<svg width="72" height="72" viewBox="0 0 72 72" fill="none" xmlns="http://www.w3.org/2000/svg">
<path fill-rule="evenodd" clip-rule="evenodd" d="M54.2136 29.0794C54.2136 42.9607 42.9607 54.2136 29.0794 54.2136C15.1982 54.2136 3.94521 42.9607 3.94521 29.0794C3.94521 15.1982 15.1982 3.94521 29.0794 3.94521C42.9607 3.94521 54.2136 15.1982 54.2136 29.0794ZM48.2008 50.9886C43.0888 55.4537 36.4 58.1589 29.0794 58.1589C13.0193 58.1589 0 45.1396 0 29.0794C0 13.0193 13.0193 0 29.0794 0C45.1395 0 58.1589 13.0193 58.1589 29.0794C58.1589 36.3999 55.4539 43.0886 50.9889 48.2005L71.4229 68.6345C72.1928 69.4044 72.1928 70.6527 71.4229 71.4226C70.6529 72.1925 69.4047 72.1925 68.6348 71.4226L48.2008 50.9886Z" fill="#6BBB41"/>
<path d="M27.335 18.5284C27.335 17.5557 28.1235 16.7672 29.0962 16.7672C30.0689 16.7672 30.8575 17.5557 30.8575 18.5284V39.6634C30.8575 40.6361 30.0689 41.4247 29.0962 41.4247C28.1235 41.4247 27.335 40.6361 27.335 39.6634V18.5284Z" fill="#6BBB41"/>
<path d="M39.6636 27.3347C40.6363 27.3347 41.4248 28.1232 41.4248 29.0959C41.4248 30.0686 40.6363 30.8572 39.6636 30.8572L18.5285 30.8572C17.5558 30.8572 16.7673 30.0686 16.7673 29.0959C16.7673 28.1232 17.5558 27.3347 18.5285 27.3347L39.6636 27.3347Z" fill="#6BBB41"/>
</svg>
