<svg width="45" height="579" viewBox="0 0 45 579" fill="none" xmlns="http://www.w3.org/2000/svg">
<path d="M1.8497 -1.88616e-06C2.21964 0.543438 2.48388 1.52514 2.64242 2.94509C2.69527 4.0495 2.79216 4.70689 2.93309 4.91725C3.03878 5.05749 3.1709 5.16268 3.32944 5.2328C3.98124 5.49575 5.75164 5.68859 8.64066 5.8113C12.3929 5.96907 17.387 6.22326 23.623 6.57387C28.3793 6.85435 31.3476 6.99459 32.5279 6.99459L33.2149 6.9946C33.4792 5.73241 33.761 3.73396 34.0605 0.999227C34.3247 0.823924 34.5273 0.736273 34.6682 0.736273C34.7563 0.736273 34.9149 0.797629 35.1439 0.920341C35.2496 1.21836 35.3024 1.44625 35.3024 1.60402C35.3024 1.74427 35.2672 2.05105 35.1967 2.52436C35.0734 3.38335 35.0118 4.56665 35.0117 6.07425C35.0117 6.5651 35.047 7.40656 35.1174 8.59862C35.1703 9.44007 35.1967 9.91339 35.1967 10.0186C35.1967 10.2991 35.1527 10.6234 35.0646 10.9915C34.8884 11.1668 34.7211 11.2983 34.5625 11.3859L32.0787 12.4903L15.5373 19.932L8.58781 23.0085C13.4322 25.4453 17.7393 27.3385 21.5091 28.6884C21.791 28.776 22.0464 28.8812 22.2754 29.0039C22.5749 29.1617 22.9096 29.3107 23.2795 29.4509C23.6495 29.5912 25.0587 30.1609 27.5073 31.1601C28.4938 31.5633 29.3394 31.8876 30.044 32.1331C32.8626 33.1323 34.4745 33.7196 34.8796 33.8949C35.0029 34.2279 35.0646 34.5172 35.0646 34.7626C35.0646 35.0431 35.047 35.4025 35.0117 35.8407C34.9589 36.8224 34.9325 38.4177 34.9325 40.6265C34.9325 41.9939 34.9501 43.1158 34.9853 43.9923C34.7915 44.0274 34.6506 44.0449 34.5625 44.0449C34.4392 44.0449 34.2719 44.0186 34.0605 43.966C33.761 43.4051 33.5937 42.7301 33.5584 41.9413C33.4704 40.3811 33.347 39.3906 33.1885 38.9699C33.03 38.5492 32.8274 38.2774 32.5807 38.1547C32.3341 38.0495 31.5238 37.9531 30.1497 37.8655L28.9342 37.8918L27.6659 37.8655C25.0235 37.8655 20.5843 37.9356 14.3482 38.0758L9.16913 38.0495L5.83972 38.0758C4.53613 38.0758 3.76103 38.1372 3.51441 38.2599C3.2854 38.3826 3.0652 38.7332 2.85381 39.3117C2.53673 40.2584 2.21083 41.801 1.87613 43.9397C1.78805 44.0624 1.67354 44.1238 1.53261 44.1238C1.37407 44.1238 1.19791 44.115 1.00414 44.0975L1.00414 42.8879C1.00414 41.8536 1.03937 40.7317 1.10983 39.5221C1.16268 38.3125 1.1891 37.6639 1.1891 37.5762C1.1891 33.9825 1.15387 31.5984 1.08341 30.4239C1.03056 29.7051 1.00414 29.2493 1.00414 29.0565C1.00414 28.9338 1.03937 28.8023 1.10983 28.6621L1.45334 28.6621C1.61189 28.6621 1.77924 28.6884 1.9554 28.7409C2.20202 29.3194 2.36937 30.1083 2.45745 31.1075C2.75693 32.212 3.07401 33.0183 3.40872 33.5267C4.07812 33.6845 5.44336 33.7634 7.50443 33.7634L12.8421 33.6845C13.4234 33.6845 14.5068 33.7108 16.0922 33.7634C17.6776 33.8335 20.2584 33.8686 23.8344 33.8686C26.6706 33.8686 28.8197 33.7984 30.2819 33.6582C29.6653 33.3602 28.3265 32.7729 26.2654 31.8964L25.2613 31.502L25.1028 31.4494L15.8544 27.5577L12.2872 26.164L7.95363 24.3496C5.96303 23.5607 4.20143 22.8858 2.66885 22.3249C1.96421 22.0794 1.4093 21.8778 1.00414 21.7201L1.03056 21.1153C6.84383 19.1343 12.8068 16.7677 18.9196 14.0155C25.0323 11.2808 29.0664 9.36119 31.0217 8.25678C30.2642 8.11654 28.0623 7.95876 24.4158 7.78346C19.9765 7.55556 15.0881 7.44162 9.75046 7.44162C8.07695 7.44162 6.19204 7.56433 4.09574 7.80975C3.4968 7.87987 3.04759 8.13406 2.74812 8.57232C2.46626 9.01058 2.30772 10.1413 2.27249 11.9644C2.27249 12.6657 2.21964 13.3318 2.11394 13.9629C1.8497 14.0856 1.65593 14.147 1.53262 14.147C1.44454 14.147 1.2948 14.1031 1.08341 14.0155L1.37407 5.83759C1.37407 5.24156 1.33003 4.31246 1.24195 3.05027C1.18911 2.34906 1.15387 1.34107 1.13626 0.0262936L1.8497 -1.88616e-06Z" fill="#474A5A"/>
<path d="M18.1268 47.0163C19.9237 47.0163 21.5179 47.2267 22.9096 47.6474C24.3189 48.0857 25.8426 48.8132 27.4809 49.8299C29.1192 50.8467 30.4844 52.0738 31.5766 53.5113C32.6864 54.9488 33.6641 56.9385 34.5097 59.4804C35.091 61.2684 35.3817 63.5299 35.3817 66.2646C35.3817 68.1053 35.1351 69.9021 34.6418 71.6552C34.1486 73.4257 33.4615 75.0297 32.5807 76.4672C31.6999 77.9047 30.3435 79.3422 28.5115 80.7797C27.2431 81.7789 25.8779 82.5327 24.4157 83.0411C22.4956 83.7073 20.5138 84.0403 18.4704 84.0403C16.1451 84.0403 14.2161 83.8124 12.6835 83.3566C11.1509 82.9184 9.63596 82.1733 8.1386 81.1215C6.97594 80.2976 5.63713 78.8864 4.12216 76.888C3.10043 75.5557 2.27248 73.899 1.63831 71.9181C1.02175 69.9372 0.713471 67.7985 0.713471 65.502C0.713472 63.1705 0.98652 61.0931 1.53261 59.27C2.07871 57.4468 2.73931 55.9217 3.51441 54.6946C4.30713 53.485 5.46978 52.2316 7.00237 50.9343C8.53496 49.6546 10.2261 48.6817 12.0758 48.0155C13.9254 47.3494 15.9425 47.0163 18.1268 47.0163ZM1.69116 65.2654C1.69116 66.7379 1.89374 68.263 2.29891 69.8408C2.72169 71.436 3.40871 72.8472 4.35997 74.0743C5.32885 75.3015 6.42104 76.2569 7.63654 76.9406C8.86966 77.6418 10.4463 78.2027 12.3664 78.6235C14.2866 79.0442 16.2067 79.2546 18.1268 79.2546C20.5226 79.2546 22.892 78.9039 25.2349 78.2027C27.0141 77.6593 28.5995 76.774 29.9912 75.5469C31.4005 74.3198 32.4839 72.8385 33.2413 71.103C34.0164 69.3675 34.404 67.518 34.404 65.5546C34.404 63.9594 34.1398 62.3992 33.6113 60.874C33.0828 59.3489 32.4046 58.0955 31.5766 57.1138C30.7663 56.1321 29.6036 55.2205 28.0887 54.379C26.5913 53.5376 24.9354 52.8977 23.121 52.4595C21.3065 52.0212 19.7035 51.8021 18.3118 51.8021C16.8497 51.8021 15.1938 52.0212 13.3441 52.4595C11.4944 52.8977 9.89139 53.4938 8.53496 54.2476C7.17853 55.0189 5.97184 55.9568 4.91488 57.0612C3.87554 58.1831 3.07401 59.4365 2.5103 60.8214C1.9642 62.2063 1.69116 63.6876 1.69116 65.2654Z" fill="#474A5A"/>
<path d="M42.6218 99.5284C43.2912 99.5284 43.855 99.7563 44.313 100.212C44.771 100.685 45 101.264 45 101.948C45 102.526 44.8503 102.999 44.5508 103.368C44.2513 103.736 43.5379 104.235 42.4104 104.866C40.8779 105.708 40.1116 106.628 40.1116 107.627C40.1116 108.627 40.8779 109.547 42.4104 110.388C43.3793 110.914 44.0487 111.379 44.4187 111.782C44.8062 112.185 45 112.702 45 113.333C45 113.982 44.7622 114.526 44.2865 114.964C43.8285 115.42 43.2736 115.647 42.6218 115.647C41.3183 115.647 40.3318 114.859 39.6624 113.281C38.993 111.721 38.6582 109.862 38.6582 107.706C38.6582 105.164 39.0194 103.166 39.7416 101.711C40.4639 100.256 41.424 99.5284 42.6218 99.5284ZM31.286 116.857C32.5191 116.804 33.2149 116.699 33.3735 116.542C33.5496 116.401 33.7082 115.709 33.8491 114.464L33.9812 113.623C34.0164 113.29 34.0605 113.009 34.1133 112.781C34.36 112.694 34.6594 112.65 35.0117 112.65C35.0998 113.246 35.1439 113.631 35.1439 113.807L34.9589 117.252C34.9237 117.672 34.906 118.82 34.906 120.696C34.906 121.468 34.9941 123.063 35.1703 125.482C34.8004 125.464 34.4833 125.421 34.219 125.351C33.99 124.877 33.8227 124.08 33.717 122.958C33.6289 122.064 33.4792 121.511 33.2678 121.301C33.0564 121.091 32.4134 120.985 31.3388 120.985L30.0969 121.012L25.1556 121.038L22.6982 120.985L18.1004 121.012L13.6084 120.959L9.72403 121.038C5.77806 121.038 3.67295 121.143 3.40871 121.354C3.14447 121.564 2.90666 122.283 2.69527 123.51C2.39579 124.772 2.17559 125.535 2.03467 125.798C1.89374 126.06 1.66473 126.192 1.34764 126.192C1.27718 126.192 1.17148 126.157 1.03056 126.087C1.01294 126.017 1.00413 125.973 1.00413 125.955C1.00413 125.868 1.02175 125.754 1.05698 125.613C1.4093 123.703 1.58546 121.722 1.58546 119.671C1.58546 117.322 1.36526 114.683 0.924861 111.756C1.15387 111.721 1.33003 111.703 1.45334 111.703C1.55904 111.703 1.71758 111.721 1.92897 111.756C2.22844 112.212 2.44864 113.071 2.58957 114.333C2.76573 116.051 3.51441 116.91 4.8356 116.91L8.61423 116.91L9.59191 116.936L10.7281 116.989L29.3306 116.91L17.9947 106.865C16.973 106.023 15.7487 104.954 14.3218 103.657C12.8597 102.342 11.2038 100.975 9.3541 99.5547L6.57959 97.3721C5.34647 97.3721 4.48329 97.4423 3.99004 97.5825C3.51441 97.7227 3.22374 97.8893 3.11805 98.0821C3.01235 98.2925 2.87143 98.8797 2.69527 99.8439C2.39579 101.124 2.17559 101.886 2.03467 102.132C1.89374 102.395 1.66473 102.526 1.34764 102.526C1.27718 102.526 1.17149 102.5 1.03056 102.447C1.01294 102.377 1.00413 102.324 1.00413 102.289C1.00413 102.219 1.02175 102.114 1.05698 101.974C1.4093 100.063 1.58546 98.0733 1.58546 96.0048C1.58546 93.6557 1.36526 91.0174 0.924862 88.0898C1.15387 88.0723 1.33003 88.0635 1.45334 88.0635C1.55904 88.0635 1.71758 88.0723 1.92897 88.0898C2.22844 88.5631 2.44864 89.4221 2.58957 90.6668C2.76573 92.4023 3.51441 93.27 4.83561 93.27L8.61423 93.2437L9.59191 93.2963L10.7281 93.3226L13.4234 93.27L16.5678 93.2437L25.6048 93.2437C28.4938 93.2437 30.414 93.235 31.3652 93.2174C32.3165 93.1999 32.8978 93.1386 33.1092 93.0334C33.3206 92.9457 33.4615 92.8405 33.532 92.7178C33.6025 92.6127 33.7082 91.9816 33.8491 90.8246L33.9812 89.9831C34.0164 89.65 34.0605 89.3695 34.1133 89.1416C34.36 89.054 34.6594 89.0102 35.0117 89.0102C35.0998 89.5887 35.1439 89.9656 35.1439 90.1409L34.9589 93.5856C34.9237 94.0063 34.9061 95.1545 34.9061 97.0303C34.9061 97.8016 34.9941 99.3969 35.1703 101.816C34.8004 101.816 34.4833 101.781 34.219 101.711C33.99 101.22 33.8227 100.422 33.717 99.318C33.6289 98.3714 33.4703 97.8104 33.2413 97.6351C33.03 97.4598 32.3958 97.3634 31.3388 97.3458L30.0969 97.3721L25.1556 97.3984L22.6982 97.3458L18.1004 97.3458L13.6084 97.3195L8.61423 97.3721L14.4803 102.237L18.6553 105.918L24.1515 110.783C26.6177 112.974 28.9959 114.999 31.286 116.857Z" fill="#474A5A"/>
<path d="M1.8497 141.417C2.21963 141.96 2.48387 142.942 2.64242 144.362C2.69526 145.467 2.79215 146.124 2.93308 146.334C3.03877 146.475 3.1709 146.58 3.32944 146.65C3.98123 146.913 5.75163 147.106 8.64065 147.228C12.3929 147.386 17.387 147.64 23.623 147.991C28.3793 148.271 31.3476 148.412 32.5279 148.412L33.2149 148.412C33.4792 147.149 33.761 145.151 34.0605 142.416C34.3247 142.241 34.5273 142.153 34.6682 142.153C34.7563 142.153 34.9149 142.215 35.1439 142.337C35.2496 142.635 35.3024 142.863 35.3024 143.021C35.3024 143.161 35.2672 143.468 35.1967 143.941C35.0734 144.8 35.0117 145.984 35.0117 147.491C35.0117 147.982 35.047 148.824 35.1174 150.016C35.1703 150.857 35.1967 151.33 35.1967 151.436C35.1967 151.716 35.1527 152.04 35.0646 152.409C34.8884 152.584 34.7211 152.715 34.5625 152.803L32.0787 153.907L15.5373 161.349L8.5878 164.426C13.4322 166.862 17.7393 168.756 21.5091 170.105C21.791 170.193 22.0464 170.298 22.2754 170.421C22.5749 170.579 22.9096 170.728 23.2795 170.868C23.6494 171.008 25.0587 171.578 27.5073 172.577C28.4938 172.98 29.3394 173.305 30.044 173.55C32.8626 174.549 34.4745 175.137 34.8796 175.312C35.0029 175.645 35.0646 175.934 35.0646 176.18C35.0646 176.46 35.047 176.82 35.0117 177.258C34.9589 178.239 34.9325 179.835 34.9325 182.044C34.9325 183.411 34.9501 184.533 34.9853 185.409C34.7915 185.444 34.6506 185.462 34.5625 185.462C34.4392 185.462 34.2719 185.436 34.0605 185.383C33.761 184.822 33.5937 184.147 33.5584 183.358C33.4703 181.798 33.347 180.808 33.1885 180.387C33.0299 179.966 32.8274 179.694 32.5807 179.572C32.3341 179.467 31.5238 179.37 30.1497 179.283L28.9342 179.309L27.6659 179.283C25.0235 179.283 20.5843 179.353 14.3482 179.493L9.16913 179.467L5.83971 179.493C4.53613 179.493 3.76103 179.554 3.5144 179.677C3.2854 179.8 3.0652 180.15 2.85381 180.729C2.53672 181.675 2.21082 183.218 1.87612 185.357C1.78804 185.479 1.67354 185.541 1.53261 185.541C1.37406 185.541 1.19791 185.532 1.00413 185.515L1.00413 184.305C1.00413 183.271 1.03936 182.149 1.10982 180.939C1.16267 179.73 1.1891 179.081 1.1891 178.993C1.1891 175.4 1.15387 173.015 1.0834 171.841C1.03056 171.122 1.00413 170.666 1.00413 170.474C1.00413 170.351 1.03936 170.219 1.10983 170.079L1.45334 170.079C1.61188 170.079 1.77923 170.105 1.95539 170.158C2.20202 170.736 2.36937 171.525 2.45745 172.525C2.75692 173.629 3.07401 174.435 3.40871 174.944C4.07811 175.102 5.44335 175.18 7.50442 175.18L12.8421 175.102C13.4234 175.102 14.5068 175.128 16.0922 175.18C17.6776 175.251 20.2584 175.286 23.8344 175.286C26.6706 175.286 28.8197 175.215 30.2819 175.075C29.6653 174.777 28.3265 174.19 26.2654 173.313L25.2613 172.919L25.1028 172.866L15.8544 168.975L12.2872 167.581L7.95363 165.767C5.96302 164.978 4.20143 164.303 2.66884 163.742C1.9642 163.496 1.4093 163.295 1.00413 163.137L1.03056 162.532C6.84382 160.551 12.8068 158.185 18.9196 155.433C25.0323 152.698 29.0664 150.778 31.0217 149.674C30.2642 149.534 28.0622 149.376 24.4157 149.2C19.9765 148.973 15.0881 148.859 9.75046 148.859C8.07694 148.859 6.19203 148.981 4.09573 149.227C3.49679 149.297 3.04758 149.551 2.74811 149.989C2.46626 150.428 2.30771 151.558 2.27248 153.381C2.27248 154.083 2.21963 154.749 2.11394 155.38C1.8497 155.503 1.65592 155.564 1.53261 155.564C1.44453 155.564 1.29479 155.52 1.0834 155.433L1.37407 147.255C1.37407 146.659 1.33003 145.73 1.24195 144.467C1.1891 143.766 1.15387 142.758 1.13625 141.443L1.8497 141.417Z" fill="#474A5A"/>
<path d="M1.66473 187.276C1.82327 187.452 1.92016 187.601 1.95539 187.723C2.04347 188.021 2.11394 188.53 2.16678 189.249C2.27248 190.949 2.43102 192.001 2.64241 192.404C2.99473 192.649 3.48798 192.772 4.12215 192.772L5.97183 192.746L12.6835 192.772L15.8544 192.72L22.4868 192.746L30.0176 192.614C31.8144 192.597 32.8274 192.483 33.0564 192.272C33.3911 191.957 33.5848 191.019 33.6377 189.459C33.6553 188.793 33.7082 188.205 33.7962 187.697C33.9196 187.469 34.0781 187.355 34.2719 187.355C34.4128 187.355 34.5802 187.399 34.7739 187.487C34.862 187.644 34.906 187.785 34.906 187.907C34.906 188.153 34.8972 188.451 34.8796 188.801C34.7915 189.836 34.7475 190.905 34.7475 192.01L34.8004 193.955L34.6947 198.583C34.6947 200.897 34.7211 202.703 34.7739 204C34.8268 205.298 34.8532 206.174 34.8532 206.63C34.8532 207.033 34.818 208.032 34.7475 209.628L34.7739 213.361L34.6947 213.808L34.7739 215.991L34.6418 216.254C34.5009 216.342 34.3511 216.403 34.1926 216.438C33.946 216.438 33.5672 216.394 33.0564 216.307C32.5455 216.236 32.2284 216.201 32.1051 216.201C30.273 216.201 28.7228 216.263 27.4545 216.385C27.3488 216.368 27.2783 216.315 27.2431 216.228C27.2431 216.035 27.2695 215.86 27.3224 215.702C27.6571 215.509 28.2472 215.246 29.0928 214.913C29.9383 214.597 30.916 214.115 32.0258 213.467C32.7657 213.028 33.2061 212.687 33.347 212.441C33.488 212.196 33.5584 211.687 33.5584 210.916C33.5584 210.758 33.576 209.961 33.6113 208.523C33.6289 208.137 33.6377 207.761 33.6377 207.392L33.4792 199.898L33.4792 199.241C33.4792 198.277 33.3558 197.698 33.1092 197.505C32.6864 197.207 31.4445 197.058 29.3834 197.058C29.1721 197.058 27.0581 197.102 23.0417 197.19L19.3688 197.19C19.3159 197.383 19.2895 197.593 19.2895 197.821L19.2895 198.268C19.2895 198.566 19.2807 199.004 19.2631 199.583C19.2278 200.494 19.2102 201.108 19.2102 201.423C19.2102 201.634 19.219 201.818 19.2366 201.976C19.3071 203.869 19.3423 206.306 19.3423 209.286C19.5009 210.215 19.6859 210.758 19.8972 210.916C20.2143 211.179 21.0423 211.372 22.3811 211.494C23.7199 211.635 24.4774 211.933 24.6536 212.389C24.6536 212.616 24.6095 212.827 24.5214 213.02C24.3805 213.055 24.2484 213.072 24.1251 213.072C24.0018 213.072 23.7992 213.055 23.5173 213.02C22.8655 212.932 20.8221 212.888 17.387 212.888C16.4709 212.888 15.4492 212.932 14.3218 213.02C13.1944 213.125 12.5866 213.177 12.4985 213.177C12.34 213.177 12.1286 213.151 11.8644 213.099C11.7939 212.958 11.7587 212.844 11.7587 212.757L11.7587 212.573C12.2519 212.292 13.0182 212.02 14.0576 211.757C15.8368 211.302 16.9466 210.82 17.387 210.311C17.845 209.82 18.074 209.014 18.074 207.892C18.074 207.647 18.0564 207.2 18.0211 206.551C18.0035 205.902 17.9947 204.938 17.9947 203.658L17.9947 201.949C17.9947 199.513 17.9419 197.917 17.8362 197.163L16.9642 197.137L12.1022 197.163L9.03701 197.137L6.0511 197.163C4.25428 197.181 3.21493 197.295 2.93308 197.505C2.54553 197.803 2.35175 198.452 2.35175 199.451L2.37817 201.055C2.37817 201.195 2.36056 201.739 2.32533 202.685C2.30771 203.65 2.2989 204.833 2.2989 206.235C2.2989 209.619 2.43983 211.871 2.72169 212.993C3.02115 214.115 3.54083 215.036 4.2807 215.754C5.02057 216.491 6.61481 217.411 9.06343 218.515C9.78568 218.848 10.1468 219.182 10.1468 219.515C10.1468 219.672 10.0763 219.848 9.93542 220.041C8.19144 219.532 7.0464 219.243 6.50031 219.173C5.26719 218.98 4.00765 218.866 2.72169 218.831C2.14036 218.831 1.65592 218.691 1.26837 218.41L1.26837 217.832L1.1891 210.443L1.21552 207.129L1.10982 199.241L1.10982 196.033C1.10982 195.63 1.10102 195.253 1.0834 194.902C0.942474 191.747 0.872009 189.424 0.872009 187.934C0.872009 187.671 0.916049 187.487 1.00413 187.382C1.09221 187.294 1.22433 187.25 1.40049 187.25L1.66473 187.276Z" fill="#474A5A"/>
<path d="M34.6418 249.044C34.5009 249.132 34.3511 249.193 34.1926 249.228C33.946 249.211 33.6025 249.176 33.1621 249.123C32.5807 249.036 32.2284 248.992 32.1051 248.992C30.273 248.992 28.7228 249.053 27.4545 249.176C27.3136 249.158 27.2431 249.053 27.2431 248.86C27.2431 248.773 27.2695 248.65 27.3224 248.492C27.5338 248.352 28.0975 248.107 29.0135 247.756C29.6477 247.511 30.5021 247.09 31.5766 246.494C32.6688 245.915 33.2678 245.468 33.3735 245.153C33.4968 244.855 33.5584 244.355 33.5584 243.654L33.6113 241.287C33.6289 240.919 33.6377 240.551 33.6377 240.183L33.5848 236.949L33.6113 234.345C33.6113 233.925 33.5672 233.39 33.4792 232.741L26.7146 232.636C25.8691 232.636 24.3277 232.697 22.0904 232.82L21.5355 232.82L20.4786 232.873C20.5314 232.943 20.5843 233.854 20.6371 235.607L20.7164 236.633C20.7869 237.58 20.8221 238.649 20.8221 239.841C20.8221 242.576 20.5667 244.811 20.0558 246.546C19.5449 248.299 18.5408 249.702 17.0435 250.754C15.5637 251.805 13.7052 252.331 11.468 252.331C8.64945 252.331 6.26249 251.087 4.30712 248.597C2.35175 246.108 1.37406 242.891 1.37406 238.947L1.37406 235.029L1.32121 233.819C1.26837 232.557 1.24194 231.444 1.24194 230.48L1.1891 224.905C1.1891 224.221 1.21552 223.625 1.26837 223.117C1.37406 223.1 1.47095 223.091 1.55903 223.091C1.92896 223.091 2.16678 223.336 2.27248 223.827C2.73049 226.053 3.05639 227.316 3.25016 227.614C3.44394 227.929 3.93718 228.148 4.7299 228.271C5.52262 228.394 7.09044 228.455 9.43337 228.455L12.525 228.376L24.0458 228.297L29.172 228.192L30.5197 228.218C31.7176 228.218 32.4839 228.113 32.8186 227.903C33.1533 227.71 33.3646 227.149 33.4527 226.22C33.576 224.853 33.8139 223.52 34.1662 222.223C34.3776 222.083 34.6154 222.013 34.8796 222.013L34.906 224.747L34.7475 232.846L34.8268 235.502L34.8532 239.42C34.8532 239.841 34.8444 240.235 34.8268 240.604L34.7475 242.418L34.7739 246.152L34.6947 246.599L34.7739 248.755C34.7387 248.843 34.6947 248.939 34.6418 249.044ZM18.8931 232.82L16.1186 232.794C9.74164 232.794 6.14799 232.881 5.33766 233.057C4.54493 233.25 3.89314 233.767 3.38228 234.608C2.88904 235.45 2.64241 236.931 2.64241 239.052C2.64241 241.366 3.44394 243.382 5.04699 245.1C6.66766 246.836 8.63184 247.703 10.9395 247.703C13.4586 247.703 15.4404 246.862 16.8849 245.179C18.347 243.496 19.0781 241.147 19.0781 238.132L19.0253 235.739L18.9724 233.425C18.9724 233.197 18.946 232.995 18.8931 232.82Z" fill="#474A5A"/>
<path d="M1.66473 256.17C1.82327 256.346 1.92015 256.495 1.95539 256.618C2.04347 256.916 2.11393 257.424 2.16678 258.143C2.27248 259.843 2.43102 260.895 2.64241 261.298C2.99473 261.544 3.48798 261.666 4.12215 261.666L5.97183 261.64L12.6835 261.666L15.8544 261.614L22.4868 261.64L30.0176 261.508C31.8144 261.491 32.8274 261.377 33.0564 261.167C33.3911 260.851 33.5848 259.913 33.6377 258.353C33.6553 257.687 33.7082 257.1 33.7962 256.591C33.9195 256.363 34.0781 256.249 34.2719 256.249C34.4128 256.249 34.5801 256.293 34.7739 256.381C34.862 256.539 34.906 256.679 34.906 256.802C34.906 257.047 34.8972 257.345 34.8796 257.696C34.7915 258.73 34.7475 259.799 34.7475 260.904L34.8003 262.85L34.6947 267.478C34.6947 269.792 34.7211 271.597 34.7739 272.894C34.8268 274.192 34.8532 275.068 34.8532 275.524C34.8532 275.927 34.818 276.926 34.7475 278.522L34.7739 282.256L34.6947 282.703L34.7739 284.885L34.6418 285.148C34.5009 285.236 34.3511 285.297 34.1926 285.332C33.946 285.332 33.5672 285.288 33.0564 285.201C32.5455 285.131 32.2284 285.096 32.1051 285.096C30.273 285.096 28.7228 285.157 27.4545 285.28C27.3488 285.262 27.2783 285.209 27.2431 285.122C27.2431 284.929 27.2695 284.754 27.3224 284.596C27.6571 284.403 28.2472 284.14 29.0928 283.807C29.9383 283.491 30.916 283.009 32.0258 282.361C32.7657 281.923 33.2061 281.581 33.347 281.335C33.488 281.09 33.5584 280.581 33.5584 279.81C33.5584 279.652 33.576 278.855 33.6113 277.417C33.6289 277.032 33.6377 276.655 33.6377 276.287L33.4791 268.792L33.4791 268.135C33.4791 267.171 33.3558 266.592 33.1092 266.399C32.6864 266.101 31.4445 265.952 29.3834 265.952C29.172 265.952 27.0581 265.996 23.0417 266.084L19.3688 266.084C19.3159 266.277 19.2895 266.487 19.2895 266.715L19.2895 267.162C19.2895 267.46 19.2807 267.898 19.2631 268.477C19.2278 269.388 19.2102 270.002 19.2102 270.317C19.2102 270.528 19.219 270.712 19.2366 270.87C19.3071 272.763 19.3423 275.2 19.3423 278.18C19.5009 279.109 19.6859 279.652 19.8972 279.81C20.2143 280.073 21.0423 280.266 22.3811 280.389C23.7199 280.529 24.4774 280.827 24.6536 281.283C24.6536 281.511 24.6095 281.721 24.5214 281.914C24.3805 281.949 24.2484 281.966 24.1251 281.966C24.0018 281.966 23.7992 281.949 23.5173 281.914C22.8655 281.826 20.8221 281.782 17.387 281.782C16.4709 281.782 15.4492 281.826 14.3218 281.914C13.1944 282.019 12.5866 282.072 12.4985 282.072C12.34 282.072 12.1286 282.045 11.8644 281.993C11.7939 281.852 11.7587 281.738 11.7587 281.651L11.7587 281.467C12.2519 281.186 13.0182 280.915 14.0576 280.652C15.8368 280.196 16.9466 279.714 17.387 279.205C17.845 278.714 18.074 277.908 18.074 276.786C18.074 276.541 18.0564 276.094 18.0211 275.445C18.0035 274.796 17.9947 273.832 17.9947 272.553L17.9947 270.843C17.9947 268.407 17.9419 266.811 17.8362 266.058L16.9642 266.031L12.1022 266.058L9.037 266.031L6.0511 266.058C4.25427 266.075 3.21493 266.189 2.93307 266.399C2.54552 266.697 2.35175 267.346 2.35175 268.345L2.37817 269.949C2.37817 270.09 2.36055 270.633 2.32532 271.58C2.30771 272.544 2.2989 273.727 2.2989 275.13C2.2989 278.513 2.43983 280.766 2.72168 281.887C3.02115 283.009 3.54082 283.93 4.28069 284.648C5.02056 285.385 6.61481 286.305 9.06343 287.41C9.78568 287.743 10.1468 288.076 10.1468 288.409C10.1468 288.566 10.0763 288.742 9.93542 288.935C8.19144 288.426 7.0464 288.137 6.5003 288.067C5.26719 287.874 4.00765 287.76 2.72168 287.725C2.14035 287.725 1.65592 287.585 1.26836 287.304L1.26836 286.726L1.18909 279.337L1.21552 276.024L1.10982 268.135L1.10982 264.927C1.10982 264.524 1.10101 264.147 1.0834 263.796C0.942471 260.641 0.872006 258.318 0.872006 256.828C0.872006 256.565 0.916046 256.381 1.00413 256.276C1.09221 256.188 1.22433 256.144 1.40049 256.144L1.66473 256.17Z" fill="#474A5A"/>
<path d="M31.4974 307.315C27.6571 305.51 22.4868 303.643 15.9865 301.714L12.9477 300.662L4.7299 298.033C4.14857 297.805 3.74341 297.691 3.5144 297.691C3.35586 297.691 3.09162 297.77 2.72168 297.928C2.52791 298.454 2.37817 299.488 2.27247 301.031C2.25486 301.416 2.20201 302.065 2.11393 302.976C1.973 303.169 1.83208 303.266 1.69115 303.266C1.60307 303.266 1.47095 303.239 1.29479 303.187L1.26836 301.372C1.26836 299.952 1.3124 298.322 1.40048 296.481L1.45333 294.641L1.37406 292.169C1.35644 291.888 1.34764 291.643 1.34764 291.433C1.34764 290.977 1.37406 290.434 1.42691 289.802C1.69115 289.802 1.91135 289.837 2.08751 289.908C2.22843 290.153 2.2989 290.372 2.2989 290.565C2.2989 292.581 2.50148 293.896 2.90665 294.509C3.31182 295.14 4.30712 295.798 5.89255 296.481C7.47799 297.183 10.4903 298.313 14.9295 299.874L18.259 301.136L25.2085 303.608C25.2789 303.643 26.8203 304.221 29.8326 305.343C32.845 306.465 35.1262 307.263 36.6764 307.736L36.7293 308.498C36.7117 308.814 36.7029 309.121 36.7029 309.419C36.65 309.559 32.8362 311.04 25.2613 313.863C17.7041 316.703 11.9348 318.789 7.95362 320.121C6.01586 320.84 4.80036 321.322 4.30711 321.567C3.83149 321.813 3.5144 322.041 3.35586 322.251C3.21493 322.461 3.03877 323.04 2.82737 323.987C2.79214 324.179 2.67764 324.539 2.48386 325.065L2.11393 326.143C1.92015 326.213 1.77042 326.248 1.66472 326.248C1.57664 326.248 1.44452 326.222 1.26836 326.169L1.24194 324.986L1.32121 320.253L1.40048 317.307L1.34763 314.494C1.34763 313.214 1.42691 312.425 1.58545 312.127C1.83207 312.127 2.06989 312.171 2.2989 312.259C2.43982 312.399 2.54552 313.293 2.61598 314.941C2.66883 316.15 2.78333 316.913 2.9595 317.229C3.27658 317.334 3.5144 317.386 3.67294 317.386C3.99003 317.386 4.80917 317.158 6.13037 316.703C6.99355 316.405 7.83912 316.133 8.66707 315.888C8.93131 315.8 11.5297 314.853 16.4621 313.048C21.4122 311.259 25.4287 309.743 28.5114 308.498L30.9953 307.578C31.101 307.543 31.2683 307.455 31.4974 307.315Z" fill="#474A5A"/>
<path d="M35.1703 344.234L34.2454 343.997L33.5056 340.737C33.2942 339.755 33.0564 339.115 32.7921 338.817C32.5279 338.519 32.0082 338.309 31.2331 338.186C30.458 338.081 28.9518 338.028 26.7146 338.028C25.8691 338.028 24.3277 338.09 22.0904 338.212L21.5355 338.212L20.4786 338.265C20.7076 339.895 20.8221 342.218 20.8221 345.233C20.8221 350.159 19.9325 353.473 18.1533 355.173C16.374 356.873 14.1456 357.724 11.468 357.724C8.64945 357.724 6.26249 356.479 4.30711 353.99C2.35174 351.5 1.37406 348.284 1.37406 344.339L1.37406 340.421L1.32121 339.212C1.26836 337.949 1.24194 336.836 1.24194 335.872L1.18909 330.297C1.18909 329.614 1.21552 329.018 1.26836 328.509C1.37406 328.492 1.47094 328.483 1.55903 328.483C1.92896 328.483 2.16678 328.728 2.27247 329.219C2.73049 331.446 3.05638 332.708 3.25016 333.006C3.44393 333.321 3.93718 333.541 4.7299 333.663C5.52262 333.786 7.09044 333.847 9.43336 333.847L12.525 333.768L24.0458 333.69L29.172 333.584L30.5197 333.611C31.7176 333.611 32.4838 333.505 32.8185 333.295C33.1533 333.102 33.3646 332.541 33.4527 331.612C33.576 330.245 33.8139 328.913 34.1662 327.615C34.3776 327.475 34.6154 327.405 34.8796 327.405L34.906 328.483L34.906 330.14L34.8532 331.56L34.7739 336.477C34.7739 338.703 34.906 341.289 35.1703 344.234ZM18.8931 338.212L16.1186 338.186C9.65356 338.186 6.0599 338.265 5.33765 338.423C4.6154 338.598 3.99003 339.089 3.46155 339.895C2.93307 340.702 2.66883 342.052 2.66883 343.945C2.66883 346.785 3.50559 349.02 5.1791 350.65C6.87024 352.28 8.79038 353.096 10.9395 353.096C13.5115 353.096 15.5109 352.237 16.9378 350.519C18.3647 348.801 19.0781 346.548 19.0781 343.761C19.0781 340.833 19.0164 338.984 18.8931 338.212Z" fill="#474A5A"/>
<path d="M0.845577 361.273L1.42691 361.3C1.76161 361.896 1.973 362.588 2.06108 363.377C2.21962 364.622 2.37817 365.411 2.53671 365.744C2.71287 366.077 2.95069 366.313 3.25016 366.454C3.83148 366.699 4.42162 366.822 5.02056 366.822L7.02878 366.769L8.87846 366.796L11.0452 366.743C11.9436 366.743 13.0622 366.769 14.4011 366.822C15.7575 366.874 16.4797 366.901 16.5678 366.901L23.7816 366.901C24.9266 366.901 26.1597 366.927 27.4809 366.98C28.8197 367.032 29.7446 367.059 30.2554 367.059C31.7704 367.059 32.6512 367.023 32.8978 366.953C33.1444 366.883 33.3206 366.752 33.4263 366.559C33.532 366.366 33.6289 365.735 33.717 364.666C33.7874 363.842 33.8491 363.272 33.9019 362.956C34.0957 362.869 34.2542 362.825 34.3776 362.825C34.5185 362.825 34.6858 362.834 34.8796 362.851C34.9148 363.272 34.9325 363.596 34.9325 363.824L34.906 366.296C34.906 368.049 34.9765 369.907 35.1174 371.871C35.1879 372.835 35.2495 374.29 35.3024 376.236C35.1439 376.271 34.9941 376.288 34.8532 376.288C34.677 376.288 34.5361 376.244 34.4304 376.157C34.3423 376.087 34.2807 375.955 34.2454 375.762C34.0517 373.466 33.761 372.107 33.3734 371.686C33.0035 371.283 32.0434 371.082 30.4932 371.082C27.6395 371.082 24.6976 371.126 21.6676 371.213L19.1838 371.318C19.1133 371.406 19.0252 372.545 18.9196 374.737C18.8843 375.333 18.8667 375.683 18.8667 375.789L18.9196 379.654L18.8403 382.205L19.0517 388.884C19.0693 389.708 19.1045 390.207 19.1574 390.383C22.2225 390.488 25.1908 390.54 28.0622 390.54C30.8279 390.54 32.4574 390.479 32.9507 390.356C33.2501 390.286 33.4527 390.163 33.5584 389.988C33.6113 389.883 33.7522 388.971 33.9812 387.253C34.0164 386.955 34.0605 386.675 34.1133 386.412C34.3776 386.324 34.677 386.28 35.0117 386.28C35.0998 386.877 35.1439 387.253 35.1439 387.411L35.0382 389.147C34.9501 390.742 34.906 392.346 34.906 393.959C34.906 394.993 34.9941 396.711 35.1703 399.113C34.818 399.095 34.5009 399.051 34.219 398.981C33.9548 398.315 33.7874 397.517 33.717 396.588C33.6817 395.992 33.5848 395.493 33.4263 395.089C33.1797 394.756 32.6776 394.59 31.9201 394.59C31.744 394.59 31.5502 394.599 31.3388 394.616C30.7046 394.634 30.2907 394.642 30.0969 394.642L27.0581 394.642L25.1556 394.669L22.6982 394.616L18.1004 394.642L13.7669 394.59C12.9037 394.59 11.5561 394.616 9.72402 394.669L6.15679 394.642C4.9589 394.642 4.10453 394.748 3.59367 394.958C3.34704 395.063 3.17088 395.238 3.06519 395.484L2.58956 397.614C2.32532 398.666 2.10512 399.288 1.92896 399.481C1.77041 399.691 1.57664 399.796 1.34763 399.796L1.03055 399.717L1.00412 399.586C1.00412 399.498 1.02174 399.384 1.05697 399.244C1.40929 397.333 1.58545 395.326 1.58545 393.222C1.58545 391.575 1.55902 390.4 1.50617 389.699C1.45333 389.015 1.25955 387.578 0.924849 385.386C1.15386 385.351 1.32121 385.334 1.42691 385.334C1.55022 385.334 1.71757 385.351 1.92896 385.386C2.24605 385.93 2.46625 386.789 2.58956 387.963C2.67764 388.84 2.95949 389.532 3.43512 390.041C3.75221 390.374 4.21903 390.54 4.83559 390.54L8.64064 390.514C9.78568 390.567 10.411 390.593 10.5167 390.593C12.0141 390.593 14.1985 390.567 17.0699 390.514C17.3165 390.461 17.4662 390.365 17.5191 390.225C17.6776 389.751 17.6424 387.42 17.4134 383.23C17.3605 382.389 17.3341 381.758 17.3341 381.337C17.3341 380.916 17.3517 380.031 17.387 378.681C17.4398 377.349 17.4662 376.113 17.4662 374.973C17.4662 374.36 17.4574 373.843 17.4398 373.422C17.4222 372.616 17.4134 372.169 17.4134 372.081C17.4134 371.678 17.3341 371.397 17.1756 371.239C17.017 371.099 16.7264 371.029 16.3036 371.029L14.4539 371.055C14.1544 371.055 12.4897 371.012 9.45978 370.924C8.84322 370.906 8.33236 370.898 7.9272 370.898C5.51381 370.898 3.91075 370.985 3.11804 371.161C2.7481 371.248 2.49267 371.406 2.35174 371.634C2.24605 371.792 2.06108 372.475 1.79684 373.685C1.62068 374.491 1.45333 375.105 1.29478 375.526L1.03055 375.683C0.942466 375.683 0.872 375.648 0.819155 375.578C0.731074 375.473 0.687033 375.324 0.687033 375.131C0.687033 374.991 0.695842 374.824 0.713458 374.632C0.713458 374.439 0.722266 374.062 0.739882 373.501C0.757499 372.607 0.819156 371.494 0.92485 370.161C0.995315 369.302 1.03055 368.54 1.03055 367.874C1.03055 366.752 0.977699 364.955 0.872001 362.483C0.854385 362.01 0.845577 361.607 0.845577 361.273Z" fill="#474A5A"/>
<path d="M35.1703 419.071L34.2454 418.834L33.5056 415.574C33.2942 414.592 33.0564 413.952 32.7921 413.654C32.5279 413.356 32.0082 413.146 31.2331 413.023C30.458 412.918 28.9518 412.865 26.7146 412.865C25.869 412.865 24.3277 412.927 22.0904 413.049L21.5355 413.049L20.4786 413.102C20.7076 414.732 20.8221 417.055 20.8221 420.07C20.8221 424.996 19.9325 428.309 18.1533 430.01C16.374 431.71 14.1456 432.561 11.468 432.561C8.64944 432.561 6.26248 431.316 4.30711 428.827C2.35174 426.337 1.37405 423.12 1.37405 419.176L1.37405 415.258L1.32121 414.048C1.26836 412.786 1.24194 411.673 1.24194 410.709L1.18909 405.134C1.18909 404.451 1.21551 403.855 1.26836 403.346C1.37406 403.329 1.47094 403.32 1.55902 403.32C1.92896 403.32 2.16677 403.565 2.27247 404.056C2.73049 406.283 3.05638 407.545 3.25015 407.843C3.44393 408.158 3.93718 408.377 4.72989 408.5C5.52261 408.623 7.09043 408.684 9.43336 408.684L12.525 408.605L24.0458 408.526L29.172 408.421L30.5197 408.448C31.7175 408.448 32.4838 408.342 32.8185 408.132C33.1532 407.939 33.3646 407.378 33.4527 406.449C33.576 405.082 33.8138 403.749 34.1662 402.452C34.3776 402.312 34.6154 402.242 34.8796 402.242L34.906 403.32L34.906 404.977L34.8532 406.397L34.7739 411.314C34.7739 413.54 34.906 416.126 35.1703 419.071ZM18.8931 413.049L16.1186 413.023C9.65356 413.023 6.0599 413.102 5.33765 413.26C4.61539 413.435 3.99003 413.926 3.46154 414.732C2.93307 415.539 2.66883 416.888 2.66883 418.782C2.66883 421.622 3.50559 423.857 5.1791 425.487C6.87023 427.117 8.79038 427.932 10.9395 427.932C13.5115 427.932 15.5109 427.074 16.9378 425.356C18.3646 423.638 19.0781 421.385 19.0781 418.598C19.0781 415.67 19.0164 413.821 18.8931 413.049ZM1.92896 432.376C2.0875 432.745 2.18439 433.139 2.21962 433.56C2.25485 434.278 2.34293 435.094 2.48386 436.005L2.51028 436.268C2.63359 437.373 2.93307 438.056 3.4087 438.319C3.88433 438.6 6.04228 438.74 9.88256 438.74L12.8949 438.714L25.1292 438.635L29.2249 438.687C30.1585 438.687 31.2331 438.635 32.4486 438.53C32.6952 438.442 32.933 438.337 33.1621 438.214C33.4791 437.723 33.7081 436.619 33.8491 434.901C33.9548 433.621 34.0605 432.885 34.1662 432.692C34.2895 432.499 34.5801 432.394 35.0382 432.376L34.9589 437.267L34.8796 441.58L35.0382 448.732C34.7387 448.732 34.4744 448.706 34.2454 448.653C34.1926 448.478 34.0957 447.891 33.9548 446.892C33.761 445.191 33.5408 444.104 33.2942 443.631C33.0652 443.158 31.2243 442.921 27.7716 442.921L11.8644 443.026L10.7017 443L9.30123 442.974C6.32414 442.974 4.56254 443.044 4.01645 443.184C3.47035 443.342 3.06519 443.727 2.80094 444.341C2.55432 444.954 2.41339 445.726 2.37816 446.655C2.34293 447.777 2.202 448.399 1.95538 448.522C1.74399 448.592 1.47975 448.627 1.16266 448.627L1.08339 445.077L1.16266 442.763L1.10981 439.134L1.13624 432.929L1.13624 432.455L1.92896 432.376Z" fill="#474A5A"/>
<path d="M42.6218 463.037C43.2912 463.037 43.8549 463.265 44.313 463.721C44.771 464.194 45 464.772 45 465.456C45 466.035 44.8502 466.508 44.5508 466.876C44.2513 467.244 43.5379 467.744 42.4104 468.375C40.8778 469.216 40.1116 470.137 40.1116 471.136C40.1116 472.135 40.8778 473.056 42.4104 473.897C43.3793 474.423 44.0487 474.887 44.4187 475.291C44.8062 475.694 45 476.211 45 476.842C45 477.491 44.7622 478.034 44.2865 478.472C43.8285 478.928 43.2736 479.156 42.6218 479.156C41.3182 479.156 40.3317 478.367 39.6623 476.789C38.9929 475.229 38.6582 473.371 38.6582 471.215C38.6582 468.673 39.0194 466.674 39.7416 465.219C40.4639 463.764 41.4239 463.037 42.6218 463.037ZM31.286 480.366C32.5191 480.313 33.2149 480.208 33.3734 480.05C33.5496 479.91 33.7081 479.217 33.8491 477.973L33.9812 477.131C34.0164 476.798 34.0605 476.518 34.1133 476.29C34.3599 476.202 34.6594 476.158 35.0117 476.158C35.0998 476.754 35.1438 477.14 35.1438 477.315L34.9589 480.76C34.9236 481.181 34.906 482.329 34.906 484.205C34.906 484.976 34.9941 486.571 35.1703 488.991C34.8003 488.973 34.4833 488.929 34.219 488.859C33.99 488.386 33.8227 487.588 33.717 486.466C33.6289 485.572 33.4791 485.02 33.2677 484.81C33.0564 484.599 32.4134 484.494 31.3388 484.494L30.0969 484.52L25.1556 484.547L22.6982 484.494L18.1004 484.52L13.6083 484.468L9.72402 484.547C5.77804 484.547 3.67293 484.652 3.4087 484.862C3.14446 485.073 2.90664 485.791 2.69525 487.018C2.39578 488.281 2.17558 489.043 2.03465 489.306C1.89372 489.569 1.66472 489.701 1.34763 489.701C1.27716 489.701 1.17147 489.666 1.03054 489.595C1.01293 489.525 1.00412 489.481 1.00412 489.464C1.00412 489.376 1.02173 489.262 1.05696 489.122C1.40928 487.211 1.58544 485.23 1.58544 483.179C1.58544 480.83 1.36524 478.192 0.924845 475.264C1.15385 475.229 1.33001 475.212 1.45333 475.212C1.55902 475.212 1.71756 475.229 1.92895 475.264C2.22843 475.72 2.44863 476.579 2.58955 477.841C2.76571 479.559 3.51439 480.418 4.83559 480.418L8.61421 480.418L9.5919 480.445L10.7281 480.497L29.3306 480.418L17.9947 470.373C16.973 469.532 15.7487 468.463 14.3218 467.165C12.8597 465.851 11.2038 464.483 9.35408 463.063L6.57957 460.881C5.34645 460.881 4.48327 460.951 3.99002 461.091C3.51439 461.231 3.22373 461.398 3.11803 461.591C3.01234 461.801 2.87141 462.388 2.69525 463.353C2.39578 464.632 2.17558 465.395 2.03465 465.64C1.89373 465.903 1.66472 466.035 1.34763 466.035C1.27716 466.035 1.17147 466.008 1.03054 465.956C1.01293 465.886 1.00412 465.833 1.00412 465.798C1.00412 465.728 1.02173 465.623 1.05696 465.482C1.40929 463.572 1.58544 461.582 1.58544 459.513C1.58544 457.164 1.36525 454.526 0.924846 451.598C1.15385 451.581 1.33001 451.572 1.45333 451.572C1.55902 451.572 1.71756 451.581 1.92895 451.598C2.22843 452.072 2.44863 452.931 2.58955 454.175C2.76571 455.911 3.51439 456.779 4.83559 456.779L8.61421 456.752L9.5919 456.805L10.7281 456.831L13.4234 456.779L16.5678 456.752L25.6048 456.752C28.4938 456.752 30.414 456.744 31.3652 456.726C32.3165 456.709 32.8978 456.647 33.1092 456.542C33.3206 456.454 33.4615 456.349 33.532 456.226C33.6025 456.121 33.7081 455.49 33.8491 454.333L33.9812 453.492C34.0164 453.159 34.0605 452.878 34.1133 452.65C34.3599 452.563 34.6594 452.519 35.0117 452.519C35.0998 453.097 35.1438 453.474 35.1438 453.649L34.9589 457.094C34.9237 457.515 34.906 458.663 34.906 460.539C34.906 461.31 34.9941 462.905 35.1703 465.325C34.8003 465.325 34.4833 465.29 34.219 465.219C33.99 464.729 33.8227 463.931 33.717 462.827C33.6289 461.88 33.4703 461.319 33.2413 461.144C33.0299 460.968 32.3958 460.872 31.3388 460.854L30.0969 460.881L25.1556 460.907L22.6982 460.854L18.1004 460.854L13.6083 460.828L8.61421 460.881L14.4803 465.745L18.6553 469.427L24.1515 474.291C26.6177 476.483 28.9959 478.507 31.286 480.366Z" fill="#474A5A"/>
<path d="M32.7128 541.108L32.845 540.977C33.1973 540.539 33.3734 540.162 33.3734 539.846C33.3734 537.9 30.9248 536.927 26.0276 536.927L21.007 537.138L7.74222 537.506L3.88432 537.532L2.51028 537.479L0.105701 537.453L3.26408e-06 536.217L28.8285 516.916L21.4827 516.995C20.0029 517.065 18.4968 517.1 16.9642 517.1C11.6618 517.1 8.1562 516.987 6.44745 516.759C4.7387 516.531 3.35585 515.873 2.29889 514.786C1.24193 513.7 0.713452 512.025 0.713452 509.764C0.713452 507.345 1.47974 506.135 3.01233 506.135C3.64651 506.135 4.15737 506.337 4.54492 506.74C4.93247 507.161 5.12625 507.573 5.12625 507.976C5.12625 508.782 4.65943 509.703 3.72578 510.737C3.53201 510.947 3.4175 511.079 3.38227 511.131L3.25015 511.263C2.89783 511.684 2.72167 512.069 2.72167 512.42C2.72167 513.559 3.36465 514.366 4.65062 514.839C5.9542 515.312 8.55256 515.549 12.4457 515.549C23.4204 515.549 29.5684 515.47 30.8896 515.312C32.2108 515.155 33.0035 513.963 33.2677 511.736C33.3911 510.579 33.4879 509.931 33.5584 509.79L34.8268 509.764C34.8268 512.481 34.8972 514.471 35.0382 515.733C35.091 516.224 35.1174 516.566 35.1174 516.759C35.1174 516.916 35.1086 517.153 35.091 517.469L6.55314 536.033L10.8602 535.875L12.4457 535.954L14.9295 535.902L16.0922 535.928C17.9595 535.928 20.6988 535.832 24.31 535.639C25.0499 535.586 25.7986 535.56 26.5561 535.56C29.7093 535.56 31.9642 536.138 33.3206 537.295C34.6946 538.47 35.3817 540.197 35.3817 542.476C35.3817 544.895 34.6242 546.104 33.1092 546.104C32.475 546.104 31.9554 545.894 31.5502 545.473C31.1626 545.07 30.9689 544.667 30.9689 544.264C30.9689 543.457 31.4357 542.537 32.3693 541.503C32.5631 541.292 32.6776 541.161 32.7128 541.108ZM22.6453 550.233C22.6453 552.529 21.8614 554.379 20.2936 555.781C18.7258 557.184 16.9554 557.885 14.9824 557.885C13.1503 557.885 11.4856 557.14 9.98825 555.65C8.50851 554.16 7.76864 552.205 7.76864 549.786C7.76864 547.647 8.4909 545.85 9.9354 544.395C11.3975 542.94 13.1856 542.213 15.2995 542.213C17.0434 542.213 18.6993 542.87 20.2672 544.185C21.8526 545.5 22.6453 547.516 22.6453 550.233ZM15.0617 546.157C13.0887 546.157 11.6089 546.516 10.6224 547.235C9.65355 547.954 9.16911 548.857 9.16911 549.943C9.16911 551.013 9.67117 551.942 10.6753 552.731C11.697 553.52 13.1944 553.914 15.1673 553.914C16.8056 553.914 18.2237 553.581 19.4216 552.915C20.6195 552.266 21.2184 551.346 21.2184 550.154C21.2184 547.489 19.1662 546.157 15.0617 546.157ZM3.303 544.027L3.303 544.369L3.27657 546.42L3.32942 547.682L3.40869 549.654L3.40869 550.364L3.32942 552.205L3.35585 552.783L3.35585 553.336C3.35585 554.703 3.28538 555.615 3.14445 556.07L1.05696 556.123C0.951266 555.106 0.898417 554.23 0.898417 553.493C0.898417 553.055 0.924842 552.529 0.97769 551.916C1.04815 551.092 1.08338 550.583 1.08338 550.391L1.05696 549.26C1.03934 548.944 1.03054 548.576 1.03054 548.155C1.03054 545.929 1.12743 544.518 1.3212 543.922L2.06107 543.869C2.36054 543.869 2.77452 543.922 3.303 544.027Z" fill="#474A5A"/>
<path d="M1.29477 578.974L1.29478 566.93C1.45332 566.913 1.58544 566.904 1.69113 566.904C1.99061 566.904 2.19319 566.965 2.29889 567.088C2.4222 567.211 2.54551 567.596 2.66882 568.245C2.88021 569.262 3.13564 570.086 3.43511 570.717C3.82267 570.892 4.18379 570.98 4.5185 570.98L6.15678 570.98C6.35056 570.98 7.24016 571.006 8.8256 571.059C9.42454 571.076 12.0141 571.094 16.5942 571.111L22.8039 571.164L26.4239 571.111C26.9524 571.111 28.6171 571.129 31.4181 571.164C28.5643 567.185 27.1374 565.002 27.1374 564.616C27.1374 564.476 27.2079 564.327 27.3488 564.169C27.5073 564.012 27.6571 563.933 27.798 563.933C27.9741 563.933 28.1151 563.994 28.2208 564.117C28.4498 564.362 28.8285 564.949 29.357 565.879C29.4275 566.019 29.9031 566.624 30.7839 567.693C32.2108 569.393 33.3294 570.638 34.1397 571.427C34.9501 572.216 35.4081 572.698 35.5138 572.873C35.5314 573.224 35.5402 573.495 35.5402 573.688C35.5402 574.144 35.4609 574.425 35.3024 574.53C35.1615 574.652 34.6242 574.714 33.6905 574.714L10.1468 574.53L7.82149 574.53C7.25778 574.53 6.68526 574.521 6.10393 574.503C5.54022 574.486 5.12625 574.477 4.86201 574.477C4.22783 574.477 3.81386 574.556 3.62008 574.714C3.49677 574.819 3.33823 575.143 3.14445 575.687L2.77451 577.475C2.58074 578.246 2.44862 578.667 2.37816 578.737C2.21961 578.912 1.97299 579 1.63829 579L1.29477 578.974Z" fill="#474A5A"/>
</svg>
