<svg width="1024" height="1024" viewBox="0 0 1024 1024" fill="none" xmlns="http://www.w3.org/2000/svg">
<mask id="mask0_810_2136" style="mask-type:alpha" maskUnits="userSpaceOnUse" x="22" y="23" width="980" height="981">
<path d="M32 512L48.9706 495.029L65.9411 512L48.9706 528.971L32 512Z" fill="black"/>
<path d="M958 512L974.971 495.029L991.941 512L974.971 528.971L958 512Z" fill="black"/>
<path d="M81.5933 423.05L78.5039 421.824C79.3439 417.809 79.4068 415.092 78.6926 413.673C78.1888 412.741 76.4476 411.552 73.4689 410.106L57.2518 403.816L40.7899 397.337C39.7962 396.924 39.1917 396.68 38.9764 396.605C34.6395 395.103 32.0421 394.496 31.1842 394.784C30.337 395.042 28.9937 396.781 27.1542 400.002C26.6713 400.8 26.283 401.423 25.9895 401.873C25.1992 401.668 24.5426 401.475 24.0197 401.293L22.5895 400.798C22.8915 399.628 23.3089 398.274 23.8418 396.736L28.9869 383.378C29.1242 383.081 29.3042 382.661 29.5267 382.118L30.3543 380.027C31.1507 379.718 32.1469 379.477 33.3431 379.306C35.9828 378.946 39.7961 378.579 44.7831 378.205L46.2046 378.129L64.3389 376.351C64.7613 376.325 65.3848 376.266 66.2095 376.172C67.4766 376.095 68.703 375.986 69.8885 375.845C71.0433 375.694 72.311 375.565 73.6918 375.457C75.0832 375.319 76.3255 375.164 77.4187 374.992C76.8297 374.305 76.1585 373.608 75.4051 372.899C73.0016 370.688 70.8181 368.588 68.8547 366.599C65.375 363.119 59.931 358.15 52.523 351.69C51.3307 350.657 49.5689 349.03 47.2376 346.81C44.8862 344.548 43.6549 343.329 43.5437 343.153C43.3936 342.791 43.4623 342.195 43.7501 341.364C43.8567 341.057 44.0065 340.575 44.1995 339.918C44.6614 338.287 45.2505 336.338 45.967 334.071C47.0552 330.831 47.8581 328.215 48.3757 326.224C48.8732 324.191 49.1646 323.052 49.2498 322.806C49.3564 322.499 49.515 322.14 49.7257 321.731C50.167 321.849 50.5107 321.951 50.7567 322.036L52.1089 322.608C52.3857 322.704 52.7956 322.863 53.3386 323.086C52.7675 326.126 52.5982 328.703 52.8306 330.816C53.0089 332.291 53.5593 333.188 54.4821 333.507L55.1742 333.747L69.5639 337.854C70.8877 338.21 77.3861 340.185 89.059 343.782C91.6746 344.585 95.0196 345.52 99.094 346.587C99.6075 346.696 100.003 346.798 100.279 346.894C101.028 347.119 101.558 347.131 101.87 346.929C102.191 346.696 104.043 344.236 107.423 339.551C107.926 339.691 108.3 339.803 108.546 339.888C109.192 340.112 109.833 340.351 110.468 340.606C110.18 341.436 109.286 343.469 107.786 346.705C106.256 349.93 104.984 353.003 103.972 355.925C102.427 360.385 101.108 364.786 100.018 369.128C99.8872 369.703 99.7469 370.257 99.5965 370.79L96.4449 369.595C96.3898 368.163 96.5553 366.343 96.9416 364.135C97.2071 362.573 97.1169 361.491 96.671 360.889C96.2252 360.286 94.6643 359.521 91.9883 358.594C90.9733 358.243 90.076 357.949 89.2963 357.713C86.0135 356.748 81.4908 355.284 75.7283 353.322L59.1701 348.464C56.8313 347.757 55.1945 347.31 54.2599 347.124L76.6701 367.756C77.1894 368.246 77.9375 368.97 78.9145 369.929C80.1765 371.159 81.0417 371.992 81.5101 372.43C86.3798 376.77 90.162 379.924 92.8566 381.891C93.5403 382.403 94.412 383.119 95.4718 384.037L94.1948 387.574L86.2726 387.619C84.1714 387.718 80.9354 388.01 76.5648 388.493C74.0186 388.783 71.9676 388.985 70.4118 389.1C69.7622 389.185 69.2777 389.241 68.9583 389.269L67.613 389.423C67.4178 389.389 67.248 389.382 67.1037 389.401L49.9118 391.144L39.4603 392.226L61.1554 400.156L75.2077 405.386C77.5453 406.196 79.3708 406.346 80.6842 405.837C81.9776 405.286 83.4788 403.687 85.188 401.041L86.5089 399.018L89.877 400.185C89.2281 401.959 88.439 403.838 87.5097 405.825C86.5603 407.769 85.4994 410.433 84.3272 413.817C84.0821 414.524 83.1708 417.602 81.5933 423.05Z" fill="black"/>
<path d="M85.7975 319.045C82.308 317.016 79.1971 314.303 76.4649 310.907C74.5048 308.45 72.9849 305.721 71.9052 302.721C70.8254 299.721 70.2466 296.41 70.1688 292.787C70.0629 289.149 70.4681 285.732 71.3844 282.537C72.2726 279.325 73.7148 276.003 75.711 272.57C79.1143 266.716 83.1651 262.275 87.8635 259.246C92.5619 256.216 97.5025 254.552 102.685 254.251C109.419 253.874 115.459 255.24 120.806 258.348C128.77 262.979 134.015 269.662 136.542 278.399C139.085 287.107 137.55 296.287 131.938 305.94C130.547 308.332 129.091 310.479 127.571 312.381C126.43 313.826 125.318 315.025 124.237 315.978C122.29 317.708 121.187 318.666 120.927 318.854C117.399 320.907 114.18 322.331 111.271 323.124C108.362 323.918 105.377 324.291 102.317 324.244C100.614 324.195 97.8115 323.639 93.911 322.576C91.4005 321.907 88.696 320.73 85.7975 319.045ZM78.9573 276.604C77.5338 279.052 76.8508 281.554 76.9083 284.11C76.9377 286.65 77.3637 288.8 78.1863 290.558C79.5894 293.52 81.4875 296.149 83.8808 298.444C86.2459 300.723 89.4125 303.016 93.3803 305.323C95.8005 306.73 97.5884 307.638 98.7442 308.046C99.1146 308.186 99.7406 308.437 100.622 308.799C102.852 309.757 104.543 310.345 105.696 310.564C109.974 311.431 112.682 311.858 113.821 311.842C115.747 311.832 117.896 311.406 120.268 310.564C121.491 310.145 122.878 309.314 124.43 308.07C125.953 306.809 127.182 305.377 128.114 303.773C129.881 300.734 130.814 297.51 130.912 294.103C130.999 290.652 129.798 287.148 127.309 283.592C124.82 280.037 120.846 276.672 115.387 273.498C113.135 272.189 109.992 270.568 105.957 268.636L105.032 268.381C104.758 268.334 104.099 268.14 103.056 267.797C97.8353 266.154 93.1559 266.107 89.0178 267.655C84.896 269.174 81.5425 272.157 78.9573 276.604Z" fill="black"/>
<path d="M155.288 239.063C153.429 214.527 151.937 198.237 150.812 190.194C148.992 188.616 147.894 187.771 147.517 187.659C147.115 187.526 146.456 187.666 145.539 188.077C144.597 188.467 143.029 189.455 140.834 191.042C139.781 191.809 139.065 192.287 138.686 192.475C137.819 191.637 137.203 190.931 136.84 190.356L137.698 189.292C139.49 187.226 140.721 185.881 141.392 185.256C143.323 183.527 145.131 181.691 146.816 179.748C149.546 176.6 151.906 173.606 153.897 170.765C154.63 169.72 155.242 168.915 155.733 168.35C156.202 167.809 156.911 167.066 157.859 166.122C158.821 167 159.641 167.818 160.318 168.578C158.477 171.893 157.357 174.153 156.958 175.359C156.555 176.518 156.809 177.492 157.719 178.281L163.068 182.92L171.289 189.986L175.909 194.123L182.645 199.771L187.883 204.314L192.299 208.015C193.16 208.762 194.122 209.639 195.186 210.648C195.782 210.26 196.321 209.887 196.803 209.53C199.3 207.645 201.318 206.336 202.858 205.604L205.536 207.732L204.197 209.351C203.835 209.769 203.394 210.227 202.876 210.725L200.329 213.364C198.359 215.188 195.454 218.314 191.615 222.74C189.652 225.002 188.223 226.8 187.325 228.133C186.153 229.832 185.429 230.841 185.152 231.16C184.917 231.431 184.513 231.748 183.939 232.112C182.78 231.064 182.034 230.309 181.701 229.848L183.286 226.828L184.276 225.165C185.374 223.403 186.039 222.213 186.272 221.597C184.73 219.699 180.516 215.764 173.63 209.792L162.717 200.39L155.92 194.366L160.12 243.254C162.895 245.618 164.366 246.829 164.532 246.886C164.832 246.888 165.328 246.564 166.02 245.915L168.469 243.837C170.696 242.064 172.003 241.129 172.388 241.032C173.018 241.449 173.431 241.743 173.628 241.913C173.947 242.191 174.347 242.624 174.828 243.213L172.881 245.531C172.071 246.466 170.856 247.718 169.236 249.286L166.8 252.021L165.058 253.806L162.036 257.067C161.097 258.149 160.03 259.528 158.834 261.206C157.616 262.908 155.866 265.074 153.584 267.705C152.822 267.044 152.013 266.213 151.157 265.212C151.3 264.948 151.674 264.368 152.28 263.471L153.36 261.629C154.434 259.845 155.152 258.421 155.514 257.357C151.08 253.08 147.129 249.438 143.662 246.431L138.756 242.175L126.384 231.251C122.622 227.988 119.271 225.318 116.331 223.243C116.162 223.139 115.829 223.001 115.332 222.829C115.131 222.913 114.889 223.091 114.609 223.365C114.392 223.565 114.153 223.767 113.89 223.97C112.713 224.93 111.704 225.844 110.866 226.712L110.239 227.137C109.568 227.761 109.032 228.18 108.632 228.393C107.855 227.849 107.368 227.491 107.171 227.32C106.876 227.064 106.534 226.639 106.146 226.043C106.492 225.395 106.932 224.764 107.465 224.149C109.022 222.354 110.946 220.36 113.236 218.167C115.309 216.173 116.965 214.463 118.202 213.037C119.93 211.045 121.432 209.139 122.711 207.317C124.281 205.059 125.226 203.746 125.546 203.377C125.951 202.91 126.525 202.373 127.266 201.767L128.405 202.69C128.798 203.031 129.235 203.496 129.715 204.085L125.117 211.473C124.847 211.884 125.233 212.607 126.275 213.64C127.318 214.674 128.601 215.852 130.126 217.174L131.892 218.641L135.18 221.557L137.13 223.184L139.542 225.47C139.862 225.748 140.461 226.224 141.34 226.9C142.489 227.811 143.604 228.735 144.687 229.674C145.572 230.442 146.436 231.234 147.278 232.051L149.1 233.825L155.288 239.063ZM112.601 199.97C111.568 199.075 111.004 197.961 110.91 196.629C110.836 195.273 111.258 194.066 112.175 193.009C112.943 192.123 113.817 191.588 114.796 191.403C115.775 191.218 117.553 191.404 120.131 191.959C123.622 192.703 126.05 192.288 127.415 190.714C128.781 189.141 128.837 186.69 127.586 183.364C126.786 181.206 126.37 179.574 126.338 178.468C126.302 177.317 126.711 176.25 127.564 175.266C128.46 174.233 129.575 173.693 130.91 173.644C132.22 173.574 133.38 173.976 134.388 174.851C136.38 176.578 136.849 179.118 135.795 182.469C134.716 185.8 132.705 189.162 129.762 192.555C126.562 196.244 123.389 198.835 120.241 200.328C117.115 201.796 114.568 201.677 112.601 199.97Z" fill="black"/>
<path d="M231.108 185.16L229.376 182.323C232.462 179.62 234.146 177.487 234.428 175.924C234.587 174.876 233.91 172.879 232.399 169.933L223.225 155.155L213.967 140.079C213.422 139.152 213.086 138.593 212.958 138.404C210.397 134.596 208.687 132.549 207.828 132.263C206.996 131.96 204.876 132.542 201.47 134.009C200.604 134.356 199.919 134.621 199.415 134.803C198.906 134.164 198.498 133.615 198.189 133.156L197.344 131.9C198.289 131.147 199.437 130.316 200.787 129.408L212.931 121.828C213.219 121.674 213.616 121.446 214.12 121.146L216.038 119.974C216.861 120.205 217.801 120.612 218.86 121.194C221.186 122.494 224.453 124.494 228.662 127.194L229.844 127.988L245.403 137.472C245.756 137.705 246.29 138.033 247.005 138.454C248.064 139.154 249.109 139.804 250.141 140.405C251.155 140.979 252.245 141.638 253.413 142.382C254.608 143.109 255.694 143.732 256.671 144.251C256.613 143.349 256.496 142.388 256.32 141.368C255.729 138.157 255.248 135.166 254.875 132.395C254.187 127.523 252.826 120.279 250.791 110.663C250.46 109.12 250.03 106.761 249.502 103.585C248.984 100.364 248.733 98.6499 248.75 98.4421C248.848 98.0625 249.261 97.6275 249.991 97.137C250.261 96.9553 250.67 96.6602 251.219 96.2517C252.569 95.2259 254.212 94.0229 256.148 92.6426C258.966 90.708 261.18 89.1009 262.791 87.8213C264.41 86.4965 265.328 85.7614 265.544 85.6161C265.815 85.4344 266.157 85.2434 266.571 85.0431C266.853 85.4031 267.066 85.6911 267.211 85.9072L267.948 87.1772C268.111 87.4203 268.343 87.794 268.643 88.2984C266.358 90.3843 264.674 92.3413 263.589 94.1695C262.845 95.4546 262.745 96.5023 263.29 97.3126L263.699 97.9204L272.727 109.855C273.571 110.935 277.575 116.421 284.739 126.314C286.346 128.529 288.456 131.287 291.07 134.59C291.415 134.986 291.669 135.305 291.832 135.548C292.295 136.178 292.712 136.506 293.082 136.532C293.48 136.539 296.437 135.687 301.956 133.976C302.273 134.39 302.505 134.705 302.65 134.921C303.032 135.489 303.4 136.065 303.754 136.65C303.025 137.141 301.088 138.228 297.944 139.911C294.782 141.567 291.918 143.258 289.352 144.984C285.436 147.618 281.736 150.342 278.254 153.155C277.804 153.536 277.358 153.895 276.917 154.23L275.118 151.38C275.935 150.203 277.162 148.849 278.798 147.316C279.95 146.228 280.528 145.309 280.534 144.56C280.54 143.81 279.753 142.261 278.172 139.911C277.573 139.019 277.032 138.245 276.551 137.588C274.508 134.843 271.775 130.954 268.351 125.921L258.042 112.082C256.598 110.111 255.559 108.77 254.924 108.059L260.424 138.02C260.544 138.724 260.706 139.752 260.91 141.106C261.179 142.847 261.369 144.033 261.48 144.665C262.761 151.061 263.887 155.855 264.857 159.047C265.095 159.868 265.361 160.963 265.656 162.334L262.509 164.392L256.152 159.665C254.413 158.48 251.653 156.767 247.87 154.526C245.661 153.226 243.901 152.154 242.588 151.311C242.018 150.988 241.597 150.741 241.326 150.571L240.158 149.885C240.022 149.741 239.891 149.633 239.764 149.562L224.98 140.617L215.979 135.196L228.545 154.578L236.627 167.207C238.008 169.26 239.376 170.478 240.732 170.86C242.097 171.198 244.257 170.823 247.214 169.737L249.486 168.915L251.475 171.872C249.891 172.899 248.13 173.927 246.193 174.955C244.265 175.938 241.815 177.428 238.844 179.427C238.223 179.845 235.644 181.756 231.108 185.16Z" fill="black"/>
<path d="M282.495 77.6257C284.236 76.9782 285.773 76.4725 287.105 76.1086C289.608 75.4156 292.412 74.3967 295.519 73.0518C296.594 72.5862 299.319 71.3004 303.692 69.1943C310.238 66.0417 316.199 63.3015 321.576 60.9738L329.648 57.3733C331.47 56.5844 334.256 55.6446 338.005 54.5538C338.801 54.9185 339.419 55.6087 339.859 56.6244L343.855 65.8552L344.739 67.6537C344.817 67.8329 344.919 68.1082 345.044 68.4796L343.245 69.3645C343.006 69.468 342.486 69.658 341.683 69.9344C341.156 69.4534 340.416 68.7273 339.463 67.7562L336.294 65.3506C335.025 64.3037 333.474 63.3434 331.641 62.4696C330.804 62.5837 329.796 62.8781 328.618 63.3525C328.306 63.452 327.363 63.7717 325.788 64.3117C322.906 65.2754 319.867 66.4491 316.671 67.8328C313.026 69.4104 309.796 70.8797 306.98 72.2407C307.213 73.0263 308.442 75.9882 310.667 81.1264L314.015 88.6156L316.459 94.2617C317.245 94.028 317.906 93.7948 318.444 93.562C323.791 91.2472 327.555 89.4939 329.735 88.302C331.915 87.11 333.196 86.2185 333.578 85.6272C333.948 85.0061 334.141 84.142 334.159 83.0349C334.143 82.2613 333.715 79.8393 332.876 75.7689L333.439 75.4719L336.057 74.3917C337.328 76.9987 338.26 78.9892 338.855 80.3634C340.213 83.5001 341.056 85.5295 341.384 86.4515C341.742 87.3607 342.031 88.0691 342.251 88.577C342.6 89.3836 343.208 90.6637 344.073 92.4173C344.926 94.141 345.539 95.436 345.914 96.3023L346.341 97.2881L343.16 98.6654C342.833 98.2391 342.183 97.3503 341.207 95.9989C339.407 93.4793 338.119 91.9794 337.344 91.4993C336.753 91.1167 335.981 90.9721 335.028 91.0653C334.34 91.1148 332.084 91.9672 328.26 93.6225C323.749 95.5752 320.411 97.1624 318.244 98.3842C318.55 99.1738 318.755 99.6881 318.858 99.9271C320.397 103.482 321.737 106.414 322.878 108.722L326.979 118.44C327.47 119.575 328.209 120.177 329.197 120.246C330.693 120.343 334.578 119.034 340.852 116.318C345.004 114.521 348.393 112.681 351.019 110.799C352.827 109.485 354.156 107.721 355.007 105.508C356.172 102.627 356.645 99.0886 356.424 94.892C357.311 94.4015 358.054 94.0269 358.651 93.7683C358.98 93.6261 359.479 93.4276 360.149 93.173C360.383 93.9586 360.58 94.6183 360.74 95.152L361.053 96.6127L363.061 105.799L364.466 111.257C362.563 112.187 361.044 112.898 359.909 113.389C358.236 114.113 353.705 115.897 346.317 118.741C341.118 120.743 334.919 123.303 327.719 126.419C324.134 127.971 319.793 130.028 314.694 132.59L312.812 133.404L307.468 135.931L306.13 132.839C306.632 132.444 307.696 131.788 309.322 130.872C312.273 129.168 314.217 127.759 315.154 126.644C315.107 125.636 314.799 124.474 314.23 123.16C314.011 122.652 313.621 121.792 313.061 120.58L312.504 119.172L305.057 102.337L302.91 97.2539L299.582 90.1813L297.435 85.0984L294.626 79.7165C294.562 79.5672 294.402 79.2814 294.149 78.8591C293.708 78.6598 293.169 78.6447 292.533 78.8137C292.178 78.8962 291.691 79.0006 291.072 79.1268C289.214 79.5054 287.481 80.0076 285.872 80.6332C285.291 80.849 284.608 81.0738 283.822 81.3074L282.495 77.6257Z" fill="black"/>
<path d="M416.906 48.5386L414.99 49.1294C414.549 49.2423 414.005 49.3479 413.358 49.4462C412.921 48.9196 412.304 48.086 411.508 46.9456C409.865 45.2492 408.781 44.0984 408.257 43.4934C406.051 41.5711 404.834 40.5553 404.604 40.446C404.375 40.3367 403.594 40.4357 402.261 40.743C401.22 41.0092 399.722 41.3253 397.766 41.6912C394.548 42.2456 391.173 42.9745 387.641 43.878C386.221 44.241 384.826 44.6315 383.455 45.0496C382.684 45.5827 382.702 47.4262 383.508 50.5798L387.753 66.7813C391.055 65.6343 393.983 64.7341 396.538 64.0806C401.647 62.7738 405.891 62.1586 409.271 62.2349C412.65 62.3112 415.582 62.8716 418.067 63.916C420.575 64.9208 422.616 66.3309 424.189 68.1461C425.754 69.9298 426.839 72.0042 427.444 74.3695C428.904 80.0776 427.72 85.2357 423.893 89.8436C420.057 94.42 414.623 97.6076 407.59 99.4066C406.297 99.7373 404.093 100.184 400.977 100.745C398.855 101.12 396.281 101.695 393.253 102.469C391.929 102.808 389.466 103.555 385.864 104.712L374.903 107.969L374.03 104.161C374.612 103.81 375.482 103.403 376.64 102.938C378.83 102.042 380.397 101.205 381.34 100.426C381.975 99.4908 381.542 96.0903 380.041 90.2245L373.256 64.2903L370.275 54.0152C369.446 51.1696 368.779 49.61 368.272 49.3364C367.797 49.0548 366.743 49.0724 365.11 49.3892C364.44 49.527 362.85 49.7489 360.341 50.0546L359.34 46.7323L363.999 45.4397L381.302 41.165L381.337 41.1056L401.747 35.5823C405.059 34.7353 408.525 34.1006 412.147 33.6782C412.852 34.0692 413.353 34.848 413.652 36.0149L416.906 48.5386ZM396.039 96.414C398.275 96.7492 400.292 96.6869 402.089 96.2271C412.307 93.6135 416.287 87.8915 414.028 79.0612C411.64 69.7263 405.29 66.3778 394.978 69.0157C392.203 69.7256 390.193 70.4076 388.949 71.0618C389.193 72.2763 389.403 73.2305 389.581 73.9243L390.437 76.8803L392.181 83.8936L394.816 93.6021L395.009 94.359C395.179 95.0213 395.522 95.7063 396.039 96.414Z" fill="black"/>
<path d="M433.86 28.5126C435.717 28.4388 437.335 28.4362 438.714 28.5046C441.308 28.6241 444.29 28.5278 447.661 28.2157C448.828 28.1077 451.817 27.7328 456.629 27.0912C463.83 26.1303 470.348 25.3798 476.182 24.8396L484.974 23.9277C486.951 23.7446 489.891 23.7176 493.793 23.8467C494.436 24.441 494.809 25.2891 494.911 26.3912L495.838 36.407L496.12 38.3914C496.138 38.5859 496.149 38.8791 496.152 39.271L494.168 39.5528C493.909 39.5768 493.355 39.5954 492.506 39.6086C492.154 38.9874 491.677 38.0672 491.074 36.8481L488.809 33.5761C487.929 32.1865 486.753 30.7915 485.283 29.3911C484.452 29.2392 483.403 29.2056 482.136 29.2902C481.808 29.2878 480.812 29.2983 479.147 29.3217C476.109 29.3415 472.855 29.5119 469.387 29.833C465.433 30.1991 461.906 30.591 458.806 31.0088C458.784 31.8281 459.031 35.0253 459.547 40.6005L460.4 48.7597L460.968 54.8858C461.787 54.908 462.488 54.8921 463.072 54.8381C468.874 54.301 472.996 53.8049 475.438 53.3499C477.881 52.895 479.376 52.446 479.923 52.003C480.468 51.5276 480.92 50.7665 481.281 49.7197C481.507 48.9796 481.853 46.5447 482.321 42.415L482.948 42.3078L485.773 42.0954C486.17 44.9682 486.437 47.1501 486.575 48.6411C486.89 52.0445 487.06 54.2354 487.086 55.2138C487.143 56.1893 487.197 56.9525 487.248 57.5035C487.329 58.3787 487.509 59.7841 487.786 61.72C488.06 63.6233 488.241 65.045 488.328 65.985L488.427 67.0547L484.975 67.3743C484.797 66.8677 484.455 65.8205 483.949 64.2328C483.021 61.2784 482.264 59.4524 481.676 58.755C481.233 58.2075 480.544 57.83 479.61 57.6223C478.94 57.4554 476.531 57.564 472.382 57.9481C467.488 58.4012 463.821 58.8715 461.382 59.3589C461.427 60.2046 461.462 60.7571 461.486 61.0164C461.843 64.8737 462.205 68.0766 462.572 70.6252L463.447 81.1362C463.561 82.3679 464.076 83.1702 464.994 83.5429C466.386 84.1006 470.485 84.0643 477.292 83.4341C481.797 83.017 485.591 82.3226 488.672 81.3508C490.798 80.6635 492.61 79.4006 494.107 77.5621C496.11 75.1863 497.66 71.9699 498.755 67.9128C499.751 67.7226 500.573 67.5974 501.221 67.5374C501.578 67.5044 502.114 67.4711 502.83 67.4375C502.808 68.2568 502.79 68.945 502.776 69.5021L502.619 70.9877L501.671 80.3434L501.309 85.9672C499.211 86.2595 497.547 86.4626 496.315 86.5767C494.5 86.7447 489.639 87.0313 481.732 87.4363C476.169 87.7226 469.481 88.2273 461.669 88.9505C457.78 89.3106 453.014 89.9153 447.371 90.7646L445.329 90.9537L439.464 91.6928L439.154 88.338C439.755 88.1189 440.97 87.8266 442.799 87.4611C446.134 86.76 448.42 86.0254 449.657 85.2571C449.926 84.2841 449.995 83.0845 449.863 81.6583C449.812 81.1072 449.709 80.1687 449.553 78.8428L449.462 77.3311L447.619 59.0148L447.159 53.5162L446.196 45.7594L445.736 40.2609L444.74 34.2725C444.725 34.1104 444.663 33.7893 444.553 33.3091C444.196 32.9825 443.689 32.8006 443.031 32.7634C442.669 32.7316 442.174 32.6794 441.546 32.6067C439.662 32.3888 437.859 32.327 436.135 32.4212C435.516 32.4458 434.797 32.447 433.977 32.4248L433.86 28.5126Z" fill="black"/>
<path d="M540.388 41.118L528.418 67.7053C525.336 74.6195 523.773 78.4014 523.732 79.0512C523.67 80.0257 524.014 80.7653 524.765 81.2698C525.515 81.7743 526.761 82.1962 528.5 82.5354C528.756 82.617 529.898 82.8692 531.926 83.292L531.819 85.7316C531.795 86.1214 531.738 86.4929 531.65 86.8462C529.636 86.7177 526.706 86.3841 522.858 85.8453L517.279 85.0982L515.26 85.3119C512.896 85.5526 510.301 85.5829 507.475 85.4027L507.783 82.0953C508.116 81.9861 509.22 81.8118 511.095 81.5726C513.66 81.2468 515.3 80.8458 516.015 80.3695C516.765 79.8628 517.741 78.3756 518.942 75.908C520.145 73.4079 523.359 66.2248 528.584 54.3587L536.128 38.1065L542.856 23.1234L548.116 23.5076C548.997 25.5535 551.342 32.2592 555.151 43.6249L556.284 46.5838C557.538 49.9256 559.261 55.1402 561.451 62.2275L562.771 66.079C563.71 68.7483 564.665 71.6796 565.635 74.8728C566.657 78.2976 567.528 80.7506 568.249 82.2317C568.972 83.6804 570.043 84.5315 571.462 84.7851C573.202 85.1243 574.784 85.6329 576.208 86.3109C576.302 87.3933 576.332 88.2106 576.297 88.7629L576.183 89.7831C573.779 89.6298 571.057 89.3422 568.018 88.9201C565.304 88.5187 563.199 88.2704 561.705 88.1751C557.644 87.9162 553.672 87.8097 549.787 87.8556L544.22 87.6964C544.294 86.5269 544.412 85.4417 544.574 84.4409C544.74 84.3862 545.941 84.2344 548.175 83.9854C550.884 83.4406 552.44 83.0831 552.842 82.913C553.244 82.743 553.465 82.3493 553.505 81.7321C553.542 81.1473 552.542 77.9033 550.504 72L548.663 66.3538C544.452 52.5815 541.694 44.1695 540.388 41.118Z" fill="black"/>
<path d="M608.565 60.1022C612.093 60.5781 615.272 61.1272 618.102 61.7495C627.099 63.7281 633.364 66.8391 636.897 71.0824C640.43 75.3256 641.662 79.8794 640.592 84.7436C639.327 90.4981 635.948 94.5712 630.456 96.963C624.97 99.323 618.683 99.7235 611.593 98.1644C610.29 97.8777 608.121 97.284 605.086 96.3833C603.022 95.7629 600.465 95.1171 597.413 94.4459C596.077 94.1522 593.541 93.7112 589.804 93.1227L578.551 91.0978L579.485 87.3037C580.163 87.2528 581.123 87.2807 582.366 87.3874C584.725 87.5729 586.501 87.5302 587.694 87.2592C588.682 86.7097 589.825 83.4783 591.126 77.565C593.594 66.3422 595.647 56.6281 597.285 48.4225C598.961 40.1921 599.654 35.8283 599.364 35.3311C599.112 34.8091 598.091 34.3011 596.299 33.8072C595.607 33.6216 594.088 33.1042 591.741 32.2549L592.343 28.8375L594.499 29.2618C597.043 29.8211 600.454 30.7546 604.732 32.0621L608.675 33.2292C609.597 33.432 611.045 33.6671 613.02 33.9346L615.886 34.3149C617.751 34.6251 619.059 34.8129 619.811 34.8783C620.959 34.964 622.201 35.1537 623.536 35.4474L623.363 36.4593L622.911 38.0598C622.838 38.2435 622.759 38.5262 622.675 38.9077C617.608 38.7599 614.716 38.874 614 39.2498C613.316 39.6326 612.716 41.0004 612.198 43.353L611.722 45.7479C611.526 46.9382 611.209 48.5348 610.768 50.5378L608.565 60.1022ZM602.625 90.2928C604.471 91.5987 606.3 92.4509 608.113 92.8494C618.413 95.1147 624.543 91.7964 626.5 82.8945C628.57 73.484 624.406 67.6356 614.01 65.3493C611.213 64.734 609.111 64.4386 607.706 64.4628C607.377 65.657 607.135 66.6037 606.981 67.3032L606.416 70.3285L604.816 77.3759L602.799 87.2313L602.631 87.9943C602.484 88.6619 602.482 89.4281 602.625 90.2928Z" fill="black"/>
<path d="M645.01 105.153C645.383 104.25 645.914 103.219 646.604 102.06L652.655 103.397C653.41 103.532 654.336 103.633 655.436 103.699L660.681 92.6585C662.238 88.5469 663.432 85.4831 664.265 83.4672L664.757 82.4026C665.357 81.2062 666.681 78.1258 668.731 73.1612L669.181 71.8151L670.837 68.0612L672.413 64.116L673.214 62.1753C673.935 60.4302 674.644 58.3283 675.342 55.8695C675.399 55.6465 675.428 55.2358 675.428 54.6373C675.225 54.4476 674.979 54.2757 674.69 54.1213C674.432 53.9795 674.165 53.8163 673.889 53.6319C672.802 52.9368 671.616 52.2708 670.329 51.634L669.727 51.1739C668.951 50.7482 668.384 50.3732 668.025 50.0489C668.295 49.139 668.48 48.5638 668.579 48.323C668.728 47.962 669.024 47.5028 669.465 46.9455C670.116 47.0736 670.984 47.3612 672.067 47.8084C673.15 48.2557 673.909 48.5512 674.342 48.695C677.852 50.6017 680.488 51.9366 682.25 52.6996C683.063 53.035 683.863 53.4005 684.65 53.7961C685.48 54.1741 686.211 54.4935 686.843 54.7543C687.836 55.1643 690.32 56.0139 694.296 57.3031C694.99 57.4135 695.713 57.624 696.465 57.9346C697.578 58.3942 698.486 58.8395 699.189 59.2704C698.958 59.9147 698.787 60.3722 698.675 60.643C698.476 61.1245 698.174 61.6863 697.768 62.3287L689.303 60.3128C688.516 60.3404 688.005 60.64 687.769 61.2117L687.215 62.9375L686.962 63.6783L686.097 65.6455L685.373 67.1427L685.224 67.5038C685.118 67.8472 685.015 68.1392 684.915 68.3799L682.504 74.0932C682.31 74.6472 682.157 75.0596 682.046 75.3304C681.984 75.4808 681.755 75.9498 681.359 76.7373C681.13 77.2063 680.91 77.6966 680.699 78.2081C680.513 78.6594 680.117 79.7462 679.511 81.4684C680.292 81.9667 680.962 82.3489 681.521 82.615L688.145 85.5082L691.394 86.8499L699.499 90.2491L707.491 93.2844C708.514 93.7068 709.64 94.0487 710.871 94.3102C711.353 93.312 712.436 90.8182 714.118 86.8289L715.047 84.8352L717.944 77.0508L718.932 73.7611C718.929 73.5132 718.799 73.2307 718.543 72.9135C717.738 71.8769 715.911 70.3304 713.063 68.2738C712.541 67.9174 712.061 67.5433 711.624 67.1516C712.119 66.1234 712.594 65.3155 713.047 64.7281C713.722 64.9713 714.134 65.124 714.285 65.1861L718.644 67.0388C721.293 68.5551 724.062 69.9096 726.95 71.1022C727.612 71.3755 728.145 71.5778 728.549 71.7092L734.49 73.9511C735.044 74.1446 735.583 74.332 736.107 74.5131C737.29 74.7196 738.453 75.0588 739.596 75.5309C740.469 75.8912 741.503 76.3711 742.7 76.9707C742.185 78.1317 741.669 79.1688 741.151 80.0819C738.147 79.5107 736.152 79.1804 735.168 79.0909C734.226 78.9838 733.226 78.9758 732.167 79.0669L731.524 79.8577L731.207 80.625L730.767 81.817L730.48 82.3851C730.159 82.9921 729.93 83.4611 729.793 83.7921L729.328 84.9204C728.799 86.2868 728.503 87.0453 728.441 87.1957L726.075 92.9275L724.331 97.2789L721.874 102.973C721.297 104.285 720.224 107.012 718.655 111.153L716.009 117.562L713.901 122.925C713.491 123.918 712.964 125.109 712.32 126.498C712.877 126.94 713.402 127.332 713.894 127.676C716.473 129.446 718.355 130.945 719.538 132.173L718.369 135.388C717.153 134.921 716.44 134.644 716.23 134.557C714.785 133.961 713.168 133.188 711.377 132.237C709.021 130.947 705.105 129.172 699.629 126.911C697.162 125.893 693.892 124.771 689.819 123.548C689.398 123.374 688.924 123.072 688.396 122.643C688.998 121.272 689.477 120.325 689.833 119.803L693.644 120.425L697.542 121.348C697.94 121.407 698.462 121.464 699.109 121.519C700.446 119.219 702.297 115.246 704.663 109.602L706.292 105.785C706.77 104.115 707.468 102.168 708.388 99.941C707.312 99.3911 706.133 98.834 704.851 98.2697L684.003 89.3979L683.615 89.185L683.318 89.0095C683.108 88.9225 682.861 88.8382 682.577 88.7564C681.783 88.4635 681.115 88.2053 680.573 87.9817L679.309 87.4599C678.738 87.2239 678.047 87.0621 677.238 86.9746L675.66 90.285L675.418 90.8717C675.143 91.709 674.955 92.2479 674.856 92.4887L669.079 106.48C668.756 107.262 668.472 108.078 668.227 108.928L668.567 109.385L674.773 113.162C675.054 113.419 675.279 113.6 675.447 113.705C675.801 113.956 676.076 114.228 676.272 114.521C676.076 115.25 675.929 115.735 675.83 115.976C675.668 116.367 675.384 116.884 674.978 117.526C673.883 117.109 672.959 116.745 672.207 116.434C671.545 116.161 670.934 115.891 670.375 115.625C670.104 115.513 669.854 115.393 669.626 115.263L663.374 112.365C661.932 111.594 659.857 110.649 657.149 109.531L656.182 109.185C654.894 108.723 654.138 108.464 653.915 108.407C651.95 107.877 648.982 106.793 645.01 105.153Z" fill="black"/>
<path d="M764.231 121.632C767.32 123.402 770.058 125.108 772.445 126.75C780.034 131.973 784.665 137.214 786.34 142.476C788.014 147.738 787.439 152.42 784.616 156.523C781.276 161.377 776.612 163.877 770.623 164.024C764.653 164.143 758.678 162.146 752.698 158.031C751.598 157.274 749.813 155.907 747.341 153.929C745.663 152.577 743.537 151.016 740.963 149.244C739.836 148.469 737.653 147.105 734.413 145.152L724.752 139.037L727.047 135.875C727.694 136.083 728.573 136.47 729.684 137.037C731.799 138.098 733.461 138.727 734.668 138.926C735.789 138.789 738.066 136.226 741.499 131.238C748.013 121.772 753.574 113.547 758.182 106.563C762.836 99.5706 765.122 95.7894 765.04 95.2193C765.003 94.6409 764.248 93.7856 762.775 92.6533C762.204 92.2205 760.991 91.1688 759.137 89.4982L760.982 86.5592L762.82 87.7646C764.965 89.2408 767.773 91.3905 771.244 94.2136L774.457 96.78C775.235 97.3152 776.487 98.0785 778.216 99.0701L780.727 100.502C782.338 101.492 783.479 102.159 784.151 102.503C785.182 103.015 786.261 103.658 787.387 104.433L786.846 105.305L785.825 106.618C785.687 106.76 785.507 106.992 785.286 107.314C780.648 105.268 777.927 104.285 777.122 104.363C776.344 104.46 775.272 105.501 773.907 107.485L772.563 109.524C771.934 110.553 771.038 111.912 769.875 113.602L764.231 121.632ZM747.356 147.361C748.574 149.266 749.947 150.744 751.476 151.796C760.164 157.775 767.092 157.01 772.259 149.501C777.721 141.564 776.068 134.578 767.299 128.544C764.939 126.92 763.104 125.854 761.793 125.347C761.038 126.33 760.458 127.116 760.052 127.706L758.388 130.295L754.251 136.221L748.67 144.59L748.227 145.234C747.84 145.797 747.549 146.506 747.356 147.361ZM777.144 174.616L779.137 171.72C779.784 171.928 780.826 172.309 782.263 172.863C784.301 173.633 785.906 174.086 787.078 174.22C788.133 173.721 789.168 172.734 790.183 171.259L793.409 166.485L799.8 157.369L801.254 155.17C805.096 149.989 807.072 147.318 807.183 147.158L810.784 141.752L812.399 139.663L815.353 134.939L816.503 133.182C816.661 132.895 816.863 132.402 817.108 131.701C816.359 130.435 814.797 128.886 812.422 127.054C811.851 126.621 811.409 126.258 811.097 125.965L813.412 122.342L824.584 130.741C825.969 131.773 826.835 132.408 827.184 132.648C828.766 133.737 831.374 135.374 835.008 137.558C837.058 138.771 838.347 139.539 838.875 139.863C838.551 140.391 838.269 140.829 838.029 141.178C837.715 141.634 837.283 142.205 836.731 142.893C835.4 142.53 833.917 142.043 832.283 141.432C830.694 140.813 829.337 140.373 828.212 140.113C827.571 140.699 826.799 141.649 825.894 142.963C825.101 144.116 824.495 145.083 824.078 145.862C820.878 150.339 818.439 153.797 816.76 156.237L809.493 166.884L805.663 172.191L800.208 180.292L799.116 181.793C798.968 182.007 798.809 182.352 798.64 182.828C800.036 184.303 801.358 185.568 802.606 186.625C802.829 186.818 803.573 187.488 804.839 188.635C804.392 189.514 803.985 190.221 803.616 190.757C803.413 191.052 803.086 191.499 802.634 192.097C802.286 191.857 802.008 191.686 801.802 191.584C800.907 191.047 800.393 190.732 800.258 190.64C800.071 190.511 799.75 190.231 799.296 189.8C798.957 189.488 797.303 188.073 794.333 185.555L787.269 180.575C785.848 179.597 783.691 178.311 780.798 176.715C778.917 175.658 777.699 174.958 777.144 174.616Z" fill="black"/>
<path d="M834.891 201.257C859.491 201.843 875.848 201.975 883.962 201.654C885.714 200 886.663 198.99 886.812 198.626C886.984 198.24 886.911 197.57 886.593 196.617C886.298 195.641 885.47 193.982 884.11 191.641C883.451 190.517 883.046 189.757 882.896 189.361C883.817 188.582 884.581 188.039 885.188 187.734L886.162 188.694C888.04 190.682 889.256 192.041 889.811 192.771C891.34 194.864 892.988 196.845 894.754 198.714C897.615 201.743 900.36 204.389 902.99 206.651C903.957 207.485 904.697 208.174 905.211 208.718C905.703 209.239 906.371 210.018 907.217 211.055C906.248 211.925 905.352 212.66 904.529 213.258C901.413 211.097 899.275 209.758 898.115 209.241C897.002 208.726 896.007 208.882 895.131 209.709L889.984 214.571L882.138 222.05L877.563 226.237L871.274 232.379L866.234 237.14L862.112 241.167C861.284 241.95 860.315 242.82 859.206 243.779C859.533 244.41 859.851 244.983 860.158 245.498C861.786 248.17 862.888 250.308 863.464 251.914L861.08 254.367L859.603 252.874C859.223 252.472 858.81 251.988 858.366 251.423L855.993 248.627C854.373 246.485 851.552 243.284 847.528 239.025C845.472 236.848 843.825 235.247 842.587 234.221C841.014 232.887 840.081 232.066 839.791 231.758C839.545 231.498 839.269 231.064 838.964 230.457C840.123 229.407 840.947 228.74 841.439 228.455L844.287 230.332L845.843 231.482C847.488 232.749 848.606 233.529 849.196 233.822C851.238 232.476 855.572 228.673 862.198 222.414L872.635 212.488L879.305 206.322L830.241 205.65C827.613 208.177 826.263 209.52 826.189 209.679C826.157 209.978 826.43 210.503 827.008 211.257L828.832 213.899C830.376 216.292 831.177 217.685 831.234 218.078C830.757 218.663 830.424 219.045 830.235 219.224C829.927 219.515 829.456 219.87 828.823 220.289L826.708 218.122C825.859 217.223 824.734 215.89 823.334 214.123L820.854 211.427L819.251 209.516L816.306 206.185C815.323 205.144 814.056 203.945 812.506 202.588C810.933 201.208 808.951 199.252 806.559 196.72C807.293 196.027 808.2 195.304 809.28 194.552C809.529 194.72 810.069 195.15 810.902 195.842L812.627 197.1C814.296 198.345 815.642 199.201 816.665 199.667C821.361 195.679 825.377 192.109 828.714 188.958L833.435 184.498L845.533 173.272C849.153 169.852 852.142 166.782 854.499 164.063C854.619 163.905 854.789 163.588 855.01 163.11C854.947 162.901 854.793 162.644 854.549 162.337C854.371 162.102 854.194 161.844 854.018 161.562C853.179 160.295 852.37 159.201 851.59 158.281L851.229 157.614C850.674 156.885 850.311 156.31 850.138 155.891C850.757 155.171 851.162 154.722 851.351 154.544C851.635 154.275 852.093 153.978 852.724 153.65C853.334 154.059 853.918 154.559 854.477 155.151C856.109 156.878 857.902 158.99 859.857 161.487C861.635 163.748 863.172 165.565 864.469 166.938C866.279 168.854 868.028 170.539 869.713 171.992C871.804 173.778 873.017 174.849 873.352 175.204C873.777 175.654 874.254 176.277 874.784 177.075L873.753 178.117C873.374 178.475 872.868 178.863 872.234 179.283L865.339 173.974C864.956 173.664 864.199 173.976 863.067 174.911C861.935 175.846 860.636 177.006 859.169 178.392L857.534 180.004L854.306 182.986L852.493 184.765L849.979 186.938C849.671 187.229 849.138 187.778 848.378 188.585C847.358 189.638 846.327 190.657 845.286 191.64C844.434 192.445 843.56 193.226 842.663 193.983L840.717 195.62L834.891 201.257ZM878.027 162.661C879.021 161.722 880.185 161.272 881.52 161.31C882.876 161.371 884.035 161.911 884.997 162.928C885.801 163.78 886.247 164.703 886.334 165.695C886.421 166.688 886.06 168.439 885.252 170.949C884.165 174.349 884.336 176.806 885.767 178.321C887.198 179.835 889.63 180.135 893.064 179.22C895.291 178.638 896.956 178.386 898.059 178.464C899.209 178.543 900.23 179.055 901.124 180.002C902.063 180.996 902.49 182.159 902.406 183.493C902.346 184.803 901.831 185.917 900.861 186.834C898.944 188.644 896.37 188.859 893.14 187.477C889.933 186.073 886.787 183.738 883.702 180.473C880.349 176.923 878.086 173.508 876.913 170.228C875.763 166.971 876.134 164.449 878.027 162.661Z" fill="black"/>
<path d="M911.666 343.587L909.016 338.689L909.412 337.62L936.922 284.327L937.076 283.651L914.115 295.379C908.43 298.202 903.993 299.732 900.804 299.971C897.63 300.239 894.814 299.656 892.358 298.222C889.916 296.818 887.885 294.483 886.263 291.218C885.351 289.381 885.16 287.313 885.691 285.015C886.236 282.745 887.558 281.089 889.657 280.047C891.261 279.251 892.797 279.124 894.266 279.667C895.778 280.224 896.875 281.188 897.555 282.558C897.917 283.287 898.096 284.161 898.094 285.18C898.12 286.185 897.57 287.639 896.444 289.543C895.083 291.854 894.657 293.519 895.163 294.54C896.625 297.485 902.226 296.539 911.964 291.704L918.459 288.207L933.833 280.082C936.632 278.62 938.594 277.155 939.719 275.688C940.858 274.25 941.416 272.737 941.391 271.15C941.396 269.549 940.813 266.912 939.644 263.241L942.641 261.589L944.465 265.263L945.312 266.859L946.55 269.134L948.938 274.163C949.373 275.038 950.024 276.241 950.894 277.772L951.849 279.587C952.009 279.907 952.204 280.337 952.435 280.877L925.26 331.768L951.809 317.604C955.833 315.606 959.111 314.415 961.645 314.029C964.209 313.628 966.624 314.064 968.892 315.337C971.159 316.61 972.988 318.646 974.377 321.445C975.782 324.273 976.189 326.851 975.601 329.178C975.041 331.491 973.741 333.155 971.7 334.168C970.096 334.964 968.538 335.084 967.026 334.526C965.528 333.998 964.439 333.049 963.758 331.678C963.382 330.92 963.18 330.039 963.154 329.035C963.171 328.045 963.743 326.598 964.869 324.694C966.201 322.397 966.635 320.783 966.171 319.85C965.563 318.625 964.531 318.047 963.075 318.116C961.619 318.185 957.597 319.855 951.008 323.127C948.763 324.241 946.678 325.349 944.753 326.45C938.323 330.115 933.548 332.723 930.428 334.272L923.3 337.593L921.726 338.374L918.598 340.091L916.062 341.241L913.35 342.806C912.883 343.037 912.322 343.298 911.666 343.587ZM938.409 361.764C936.267 357.449 935.704 353.095 936.721 348.701C937.752 344.337 940.396 341.098 944.653 338.984C948.851 336.9 953.015 336.613 957.146 338.124C961.29 339.664 964.542 342.81 966.902 347.562C969.32 352.431 969.736 357.004 968.152 361.279C966.583 365.584 964.238 368.511 961.118 370.06C956.424 372.391 952.049 372.764 947.991 371.181C943.949 369.626 940.755 366.488 938.409 361.764ZM963.95 349.083C963.067 347.304 961.614 346.172 959.592 345.686C957.599 345.185 953.92 346.267 948.555 348.931C941.704 352.333 939.328 356.148 941.427 360.375C943.453 364.457 948.359 364.565 956.144 360.7C963.404 357.095 966.006 353.223 963.95 349.083ZM927.713 352.738L934.597 366.492L938.115 373.468C938.65 374.547 939.048 375.458 939.308 376.201C937.981 376.969 936.99 377.57 936.333 378.005L935.655 378.396L933.294 379.35C932.988 379.466 932.267 379.806 931.13 380.371L919.316 356.689L921.219 355.69C921.977 355.313 922.822 354.93 923.755 354.539L924.739 354.105L926.904 352.976C926.992 352.932 927.261 352.853 927.713 352.738Z" fill="black"/>
<path d="M998.182 389.838C998.226 389.995 998.562 391.05 999.188 393.004L999.57 394.52L1000.37 397.491C999.403 397.903 998.685 398.175 998.216 398.309C998.059 398.354 997.569 398.477 996.747 398.678C996.3 398.772 994.616 399.22 991.696 400.02L984.58 401.952L980.134 403.274L948.349 412.001L945.673 412.766C944.734 413.034 944.124 413.446 943.842 414C943.561 414.555 943.552 415.827 943.816 417.816C943.936 418.594 944.115 420.168 944.352 422.538C944.057 422.69 943.769 422.806 943.487 422.887C943.143 422.985 942.383 423.169 941.207 423.437L940.63 421.418C940.236 420.041 939.727 418.02 939.1 415.355C938.738 413.732 938.472 412.623 938.302 412.029C938.087 411.277 937.218 408.53 935.693 403.786C935.509 403.263 935.368 402.829 935.27 402.485L935.029 401.639L934.733 400.251L934.277 399.01L933.7 396.636C933.611 396.323 933.381 395.695 933.009 394.751C933.68 394.492 934.203 394.309 934.579 394.201C934.923 394.103 935.448 393.987 936.155 393.852C936.857 395.006 937.617 396.363 938.436 397.924C939.558 400.074 940.41 401.337 940.991 401.713C941.613 402.111 942.299 402.202 943.05 401.988L946.229 401.029L949.757 400.223L956.88 398.137L958.698 397.567C958.948 397.495 959.896 397.258 961.541 396.856C962.404 396.677 963.164 396.494 963.822 396.306C964.229 396.19 965.483 395.78 967.584 395.078L970.314 394.501C972.313 393.795 973.5 393.388 973.875 393.28C974.345 393.146 974.819 393.028 975.297 392.925L976.498 392.683L979.65 391.63L981.146 391.355C981.812 391.199 982.693 390.964 983.788 390.651C984.852 390.347 986.147 389.96 987.672 389.49C985.378 387.742 982.994 385.681 980.522 383.307C980.244 383.047 979.2 381.822 977.389 379.631C978.605 378.2 979.549 377.237 980.219 376.74C982.889 379.566 984.801 381.458 985.954 382.414C987.895 383.993 990.225 385.629 992.943 387.324C994.128 388.034 995.874 388.873 998.182 389.838Z" fill="black"/>
<path d="M942.407 603.263L945.496 604.488C944.656 608.503 944.593 611.22 945.307 612.639C945.811 613.572 947.552 614.761 950.531 616.206L966.748 622.497L983.21 628.975C984.204 629.389 984.808 629.632 985.024 629.707C989.361 631.21 991.958 631.817 992.816 631.528C993.663 631.271 995.006 629.531 996.846 626.31C997.329 625.513 997.717 624.889 998.011 624.44C998.801 624.645 999.457 624.838 999.98 625.019L1001.41 625.515C1001.11 626.685 1000.69 628.039 1000.16 629.577L995.013 642.935C994.876 643.232 994.696 643.652 994.473 644.195L993.646 646.285C992.849 646.595 991.853 646.835 990.657 647.007C988.017 647.367 984.204 647.734 979.217 648.107L977.795 648.183L959.661 649.961C959.239 649.987 958.615 650.047 957.791 650.14C956.523 650.218 955.297 650.327 954.111 650.467C952.957 650.619 951.689 650.748 950.308 650.855C948.917 650.993 947.675 651.148 946.581 651.321C947.17 652.007 947.841 652.705 948.595 653.414C950.998 655.624 953.182 657.724 955.145 659.714C958.625 663.193 964.069 668.163 971.477 674.622C972.669 675.656 974.431 677.282 976.762 679.502C979.114 681.764 980.345 682.983 980.456 683.159C980.606 683.521 980.538 684.118 980.25 684.948C980.143 685.256 979.994 685.738 979.801 686.394C979.339 688.026 978.749 689.975 978.033 692.242C976.945 695.482 976.142 698.097 975.624 700.089C975.127 702.121 974.835 703.26 974.75 703.506C974.644 703.814 974.485 704.172 974.274 704.582C973.833 704.463 973.489 704.361 973.243 704.276L971.891 703.704C971.614 703.608 971.204 703.449 970.661 703.227C971.233 700.186 971.402 697.609 971.169 695.496C970.991 694.022 970.441 693.125 969.518 692.805L968.826 692.565L954.436 688.458C953.112 688.103 946.614 686.127 934.941 682.531C932.325 681.728 928.98 680.793 924.906 679.725C924.393 679.616 923.997 679.514 923.721 679.418C922.972 679.193 922.442 679.182 922.13 679.384C921.809 679.617 919.957 682.076 916.577 686.762C916.074 686.622 915.7 686.509 915.454 686.424C914.808 686.2 914.167 685.961 913.532 685.706C913.82 684.876 914.714 682.843 916.214 679.608C917.744 676.383 919.016 673.309 920.028 670.387C921.573 665.928 922.892 661.527 923.982 657.185C924.113 656.61 924.253 656.056 924.404 655.522L927.555 656.717C927.61 658.149 927.445 659.969 927.058 662.178C926.793 663.74 926.883 664.822 927.329 665.424C927.775 666.026 929.336 666.791 932.012 667.718C933.027 668.07 933.924 668.364 934.704 668.599C937.987 669.564 942.509 671.028 948.272 672.99L964.83 677.849C967.169 678.556 968.805 679.002 969.74 679.188L947.33 658.556C946.811 658.066 946.063 657.342 945.086 656.383C943.823 655.154 942.958 654.32 942.49 653.882C937.62 649.542 933.838 646.389 931.143 644.422C930.46 643.909 929.588 643.194 928.528 642.275L929.805 638.739L937.727 638.693C939.829 638.594 943.065 638.303 947.435 637.819C949.981 637.53 952.032 637.328 953.588 637.212C954.238 637.127 954.722 637.071 955.042 637.044L956.387 636.89C956.582 636.923 956.752 636.93 956.896 636.911L974.088 635.168L984.54 634.087L962.845 626.157L948.792 620.926C946.455 620.116 944.629 619.966 943.316 620.476C942.022 621.027 940.521 622.625 938.812 625.271L937.491 627.294L934.123 626.127C934.772 624.354 935.561 622.474 936.49 620.488C937.44 618.543 938.501 615.879 939.673 612.496C939.918 611.788 940.829 608.711 942.407 603.263Z" fill="black"/>
<path d="M938.203 707.268C941.692 709.297 944.803 712.009 947.535 715.405C949.495 717.863 951.015 720.591 952.095 723.591C953.175 726.592 953.753 729.903 953.831 733.525C953.937 737.164 953.532 740.581 952.616 743.776C951.727 746.987 950.285 750.31 948.289 753.743C944.886 759.596 940.835 764.037 936.136 767.067C931.438 770.096 926.498 771.761 921.315 772.061C914.581 772.439 908.541 771.073 903.194 767.964C895.23 763.334 889.985 756.65 887.458 747.914C884.915 739.206 886.45 730.025 892.062 720.373C893.453 717.981 894.909 715.834 896.429 713.931C897.57 712.486 898.682 711.287 899.763 710.334C901.71 708.605 902.813 707.646 903.073 707.458C906.601 705.405 909.82 703.982 912.729 703.188C915.638 702.394 918.623 702.021 921.683 702.068C923.386 702.117 926.189 702.673 930.089 703.736C932.599 704.405 935.304 705.582 938.203 707.268ZM945.043 749.709C946.466 747.261 947.149 744.758 947.092 742.202C947.062 739.662 946.636 737.513 945.814 735.754C944.411 732.792 942.512 730.164 940.119 727.868C937.754 725.589 934.588 723.297 930.62 720.989C928.2 719.582 926.412 718.675 925.256 718.266C924.885 718.126 924.259 717.875 923.378 717.513C921.148 716.556 919.457 715.968 918.304 715.749C914.026 714.881 911.318 714.455 910.179 714.471C908.253 714.48 906.104 714.906 903.732 715.749C902.509 716.167 901.122 716.999 899.57 718.243C898.047 719.503 896.818 720.936 895.886 722.54C894.119 725.579 893.186 728.802 893.088 732.209C893.001 735.661 894.202 739.164 896.691 742.72C899.18 746.276 903.154 749.641 908.613 752.815C910.865 754.124 914.008 755.744 918.043 757.677L918.968 757.932C919.242 757.978 919.901 758.173 920.944 758.516C926.165 760.158 930.844 760.205 934.982 758.658C939.104 757.138 942.458 754.155 945.043 749.709Z" fill="black"/>
<path d="M868.712 787.25C870.571 811.786 872.063 828.075 873.188 836.118C875.008 837.696 876.106 838.541 876.483 838.653C876.885 838.786 877.544 838.647 878.461 838.236C879.403 837.846 880.971 836.857 883.166 835.271C884.219 834.504 884.935 834.026 885.314 833.837C886.181 834.676 886.797 835.382 887.16 835.956L886.302 837.021C884.51 839.087 883.279 840.432 882.608 841.056C880.677 842.786 878.869 844.622 877.184 846.564C874.454 849.712 872.094 852.707 870.103 855.548C869.37 856.592 868.758 857.397 868.267 857.963C867.798 858.504 867.089 859.246 866.141 860.191C865.179 859.313 864.359 858.494 863.682 857.735C865.523 854.419 866.643 852.159 867.042 850.954C867.445 849.795 867.191 848.82 866.281 848.031L860.932 843.392L852.711 836.327L848.091 832.19L841.355 826.542L836.117 821.999L831.701 818.297C830.84 817.551 829.878 816.673 828.814 815.664C828.218 816.053 827.679 816.425 827.197 816.783C824.7 818.668 822.682 819.976 821.142 820.709L818.464 818.58L819.803 816.962C820.165 816.544 820.606 816.086 821.124 815.587L823.671 812.949C825.641 811.124 828.546 807.999 832.385 803.572C834.348 801.31 835.777 799.512 836.675 798.179C837.847 796.481 838.571 795.472 838.848 795.152C839.083 794.882 839.487 794.564 840.061 794.201C841.22 795.249 841.966 796.004 842.299 796.465L840.714 799.485L839.724 801.147C838.626 802.91 837.961 804.099 837.728 804.716C839.27 806.614 843.484 810.549 850.37 816.521L861.283 825.922L868.08 831.947L863.88 783.059C861.105 780.695 859.634 779.484 859.468 779.426C859.168 779.425 858.672 779.748 857.98 780.397L855.531 782.475C853.304 784.249 851.997 785.184 851.612 785.28C850.982 784.864 850.569 784.57 850.372 784.399C850.053 784.122 849.653 783.689 849.172 783.1L851.119 780.781C851.929 779.847 853.144 778.595 854.764 777.026L857.2 774.292L858.942 772.506L861.964 769.246C862.903 768.164 863.97 766.784 865.166 765.107C866.384 763.405 868.134 761.238 870.416 758.607C871.178 759.268 871.987 760.099 872.843 761.1C872.7 761.364 872.326 761.944 871.72 762.841L870.64 764.683C869.566 766.467 868.848 767.891 868.486 768.955C872.92 773.232 876.871 776.875 880.338 779.882L885.244 784.137L897.616 795.061C901.378 798.325 904.729 800.994 907.669 803.07C907.838 803.173 908.171 803.311 908.668 803.483C908.869 803.4 909.111 803.221 909.391 802.947C909.608 802.747 909.847 802.546 910.11 802.343C911.287 801.382 912.296 800.468 913.134 799.601L913.761 799.176C914.432 798.551 914.968 798.132 915.368 797.919C916.145 798.464 916.632 798.822 916.829 798.992C917.124 799.248 917.466 799.674 917.854 800.269C917.508 800.917 917.068 801.548 916.535 802.163C914.978 803.958 913.054 805.952 910.764 808.146C908.691 810.139 907.035 811.849 905.798 813.275C904.07 815.267 902.568 817.174 901.289 818.995C899.719 821.253 898.774 822.566 898.454 822.935C898.049 823.402 897.475 823.939 896.734 824.546L895.595 823.623C895.202 823.282 894.765 822.816 894.285 822.228L898.883 814.84C899.153 814.428 898.767 813.706 897.725 812.672C896.682 811.638 895.399 810.46 893.874 809.138L892.108 807.671L888.82 804.755L886.87 803.128L884.458 800.842C884.138 800.565 883.539 800.088 882.66 799.412C881.511 798.502 880.396 797.577 879.313 796.639C878.428 795.871 877.564 795.078 876.722 794.261L874.9 792.487L868.712 787.25ZM911.399 826.342C912.432 827.238 912.996 828.352 913.09 829.683C913.164 831.04 912.742 832.246 911.825 833.304C911.057 834.189 910.183 834.724 909.204 834.909C908.225 835.094 906.447 834.909 903.869 834.354C900.378 833.609 897.95 834.024 896.585 835.598C895.219 837.172 895.163 839.622 896.414 842.948C897.214 845.107 897.63 846.739 897.662 847.844C897.698 848.995 897.289 850.063 896.436 851.046C895.54 852.079 894.425 852.62 893.09 852.669C891.78 852.739 890.62 852.336 889.612 851.462C887.62 849.734 887.151 847.195 888.205 843.843C889.284 840.513 891.295 837.151 894.238 833.757C897.438 830.069 900.611 827.478 903.759 825.985C906.885 824.517 909.432 824.636 911.399 826.342Z" fill="black"/>
<path d="M792.892 841.152L794.624 843.989C791.538 846.692 789.854 848.825 789.572 850.389C789.413 851.437 790.09 853.434 791.601 856.38L800.775 871.158L810.033 886.233C810.578 887.161 810.914 887.719 811.042 887.908C813.603 891.717 815.313 893.764 816.172 894.049C817.004 894.353 819.124 893.771 822.53 892.303C823.396 891.956 824.081 891.692 824.585 891.509C825.094 892.148 825.502 892.697 825.811 893.156L826.656 894.412C825.711 895.166 824.563 895.996 823.213 896.905L811.069 904.484C810.781 904.639 810.384 904.866 809.88 905.166L807.962 906.339C807.139 906.107 806.199 905.701 805.14 905.118C802.814 903.818 799.547 901.819 795.338 899.118L794.156 898.324L778.597 888.84C778.244 888.607 777.71 888.28 776.995 887.858C775.936 887.158 774.891 886.508 773.859 885.908C772.845 885.334 771.755 884.675 770.587 883.93C769.392 883.204 768.306 882.581 767.329 882.061C767.387 882.964 767.504 883.925 767.68 884.944C768.271 888.156 768.752 891.147 769.125 893.917C769.813 898.79 771.174 906.034 773.209 915.65C773.54 917.192 773.97 919.551 774.498 922.727C775.016 925.948 775.267 927.663 775.25 927.87C775.152 928.25 774.739 928.685 774.009 929.176C773.739 929.357 773.33 929.652 772.781 930.061C771.431 931.087 769.788 932.29 767.852 933.67C765.034 935.604 762.82 937.212 761.209 938.491C759.59 939.816 758.672 940.551 758.456 940.696C758.185 940.878 757.843 941.069 757.429 941.269C757.147 940.909 756.934 940.621 756.789 940.405L756.052 939.135C755.889 938.892 755.657 938.518 755.357 938.014C757.642 935.928 759.326 933.971 760.411 932.143C761.155 930.858 761.255 929.81 760.71 929L760.301 928.392L751.273 916.458C750.429 915.378 746.425 909.891 739.261 899.998C737.654 897.784 735.544 895.025 732.93 891.723C732.585 891.327 732.331 891.007 732.168 890.764C731.705 890.134 731.288 889.806 730.918 889.781C730.52 889.773 727.563 890.625 722.044 892.336C721.727 891.922 721.495 891.607 721.35 891.391C720.968 890.824 720.6 890.248 720.246 889.662C720.975 889.172 722.912 888.085 726.056 886.402C729.218 884.745 732.082 883.054 734.648 881.329C738.564 878.694 742.264 875.971 745.746 873.157C746.196 872.776 746.642 872.418 747.083 872.082L748.882 874.932C748.065 876.109 746.838 877.464 745.202 878.997C744.05 880.085 743.472 881.003 743.466 881.753C743.46 882.502 744.247 884.052 745.828 886.402C746.427 887.293 746.968 888.067 747.449 888.724C749.492 891.47 752.225 895.359 755.649 900.392L765.958 914.23C767.402 916.202 768.441 917.543 769.076 918.253L763.576 888.293C763.456 887.589 763.294 886.56 763.09 885.207C762.821 883.466 762.631 882.279 762.52 881.648C761.239 875.252 760.113 870.458 759.143 867.266C758.905 866.445 758.639 865.349 758.344 863.978L761.491 861.92L767.848 866.648C769.587 867.832 772.347 869.545 776.13 871.787C778.339 873.087 780.099 874.159 781.412 875.002C781.982 875.325 782.403 875.571 782.674 875.742L783.842 876.427C783.978 876.571 784.109 876.679 784.236 876.751L799.02 885.696L808.021 891.117L795.455 871.735L787.373 859.105C785.992 857.053 784.624 855.835 783.268 855.452C781.903 855.115 779.743 855.489 776.786 856.576L774.514 857.398L772.525 854.44C774.109 853.413 775.87 852.386 777.807 851.358C779.735 850.375 782.185 848.884 785.156 846.886C785.777 846.468 788.356 844.557 792.892 841.152Z" fill="black"/>
<path d="M741.505 948.687C739.764 949.334 738.227 949.84 736.895 950.204C734.392 950.897 731.588 951.916 728.481 953.261C727.406 953.726 724.681 955.012 720.308 957.118C713.762 960.271 707.801 963.011 702.424 965.339L694.352 968.939C692.53 969.728 689.744 970.668 685.995 971.759C685.199 971.394 684.581 970.704 684.141 969.688L680.145 960.457L679.261 958.659C679.183 958.48 679.081 958.204 678.956 957.833L680.755 956.948C680.994 956.844 681.514 956.655 682.317 956.378C682.844 956.859 683.584 957.585 684.537 958.556L687.706 960.962C688.975 962.009 690.526 962.969 692.359 963.843C693.196 963.729 694.204 963.434 695.382 962.96C695.694 962.861 696.637 962.541 698.212 962.001C701.094 961.037 704.133 959.863 707.329 958.48C710.974 956.902 714.204 955.433 717.02 954.072C716.787 953.286 715.558 950.324 713.333 945.186L709.985 937.697L707.541 932.051C706.755 932.284 706.094 932.518 705.556 932.75C700.209 935.065 696.445 936.819 694.265 938.011C692.085 939.202 690.804 940.094 690.422 940.685C690.052 941.306 689.859 942.171 689.841 943.278C689.857 944.051 690.285 946.473 691.124 950.544L690.561 950.841L687.943 951.921C686.672 949.314 685.74 947.323 685.145 945.949C683.787 942.812 682.944 940.783 682.616 939.861C682.258 938.952 681.969 938.243 681.749 937.736C681.4 936.929 680.792 935.649 679.927 933.895C679.074 932.172 678.461 930.876 678.086 930.01L677.659 929.024L680.84 927.647C681.167 928.073 681.817 928.962 682.793 930.314C684.593 932.833 685.881 934.333 686.656 934.813C687.247 935.196 688.019 935.34 688.972 935.247C689.66 935.198 691.916 934.345 695.74 932.69C700.251 930.737 703.589 929.15 705.756 927.928C705.45 927.139 705.245 926.624 705.142 926.385C703.603 922.83 702.263 919.899 701.122 917.591L697.021 907.873C696.53 906.738 695.791 906.136 694.803 906.067C693.307 905.969 689.422 907.279 683.148 909.994C678.996 911.792 675.607 913.631 672.981 915.513C671.173 916.828 669.844 918.591 668.993 920.804C667.828 923.685 667.355 927.224 667.576 931.42C666.689 931.911 665.946 932.286 665.349 932.544C665.02 932.686 664.521 932.885 663.851 933.14C663.617 932.354 663.42 931.694 663.26 931.16L662.947 929.7L660.939 920.513L659.534 915.056C661.437 914.125 662.956 913.415 664.091 912.923C665.764 912.199 670.295 910.415 677.683 907.571C682.882 905.569 689.081 903.01 696.281 899.893C699.866 898.341 704.207 896.285 709.306 893.723L711.188 892.908L716.532 890.382L717.87 893.474C717.368 893.869 716.304 894.525 714.678 895.441C711.727 897.144 709.783 898.553 708.846 899.668C708.893 900.677 709.201 901.838 709.77 903.153C709.989 903.66 710.379 904.52 710.939 905.732L711.496 907.141L718.943 923.976L721.09 929.059L724.418 936.131L726.565 941.214L729.374 946.596C729.438 946.745 729.598 947.031 729.851 947.453C730.292 947.653 730.831 947.668 731.467 947.499C731.822 947.416 732.309 947.312 732.928 947.186C734.786 946.807 736.519 946.305 738.128 945.679C738.709 945.463 739.392 945.239 740.178 945.005L741.505 948.687Z" fill="black"/>
<path d="M607.094 977.774L609.01 977.183C609.451 977.07 609.995 976.965 610.642 976.866C611.079 977.393 611.696 978.226 612.492 979.367C614.135 981.063 615.219 982.214 615.743 982.819C617.949 984.741 619.166 985.757 619.396 985.867C619.625 985.976 620.406 985.877 621.739 985.57C622.78 985.303 624.278 984.987 626.234 984.621C629.452 984.067 632.827 983.338 636.359 982.434C637.779 982.071 639.174 981.681 640.545 981.263C641.316 980.73 641.298 978.886 640.492 975.733L636.247 959.531C632.945 960.678 630.017 961.578 627.462 962.232C622.353 963.539 618.109 964.154 614.729 964.078C611.35 964.001 608.418 963.441 605.933 962.396C603.425 961.392 601.384 959.982 599.811 958.166C598.246 956.383 597.161 954.308 596.556 951.943C595.096 946.235 596.28 941.077 600.107 936.469C603.943 931.893 609.377 928.705 616.41 926.906C617.703 926.575 619.907 926.129 623.023 925.567C625.145 925.193 627.719 924.618 630.747 923.844C632.071 923.505 634.534 922.757 638.136 921.601L649.097 918.343L649.97 922.152C649.388 922.502 648.518 922.91 647.36 923.374C645.17 924.27 643.603 925.108 642.66 925.887C642.025 926.822 642.458 930.222 643.959 936.088L650.744 962.022L653.725 972.297C654.554 975.143 655.221 976.703 655.728 976.976C656.203 977.258 657.257 977.24 658.89 976.923C659.56 976.785 661.15 976.564 663.659 976.258L664.66 979.58L660.001 980.873L642.698 985.147L642.663 985.207L622.253 990.73C618.941 991.577 615.475 992.212 611.853 992.634C611.148 992.243 610.647 991.464 610.348 990.298L607.094 977.774ZM627.961 929.898C625.725 929.563 623.708 929.626 621.911 930.085C611.693 932.699 607.713 938.421 609.972 947.251C612.36 956.586 618.71 959.935 629.022 957.297C631.797 956.587 633.807 955.905 635.051 955.251C634.807 954.036 634.597 953.082 634.419 952.388L633.563 949.432L631.819 942.419L629.184 932.71L628.991 931.953C628.821 931.291 628.478 930.606 627.961 929.898Z" fill="black"/>
<path d="M590.14 997.8C588.283 997.874 586.665 997.876 585.286 997.808C582.692 997.688 579.71 997.785 576.339 998.097C575.172 998.205 572.183 998.58 567.371 999.221C560.17 1000.18 553.652 1000.93 547.818 1001.47L539.026 1002.38C537.049 1002.57 534.109 1002.59 530.207 1002.47C529.564 1001.87 529.191 1001.02 529.089 999.921L528.162 989.906L527.88 987.921C527.862 987.727 527.851 987.433 527.848 987.041L529.832 986.76C530.091 986.736 530.645 986.717 531.494 986.704C531.846 987.325 532.323 988.245 532.926 989.464L535.191 992.736C536.071 994.126 537.247 995.521 538.717 996.921C539.548 997.073 540.597 997.107 541.864 997.022C542.192 997.025 543.188 997.014 544.853 996.991C547.891 996.971 551.145 996.801 554.613 996.479C558.567 996.113 562.094 995.721 565.194 995.304C565.216 994.484 564.969 991.287 564.453 985.712L563.6 977.553L563.032 971.427C562.213 971.404 561.512 971.42 560.928 971.474C555.126 972.012 551.004 972.508 548.562 972.963C546.119 973.418 544.624 973.866 544.077 974.309C543.532 974.785 543.08 975.546 542.719 976.593C542.493 977.333 542.147 979.768 541.679 983.898L541.052 984.005L538.227 984.217C537.83 981.344 537.563 979.162 537.425 977.671C537.11 974.268 536.94 972.077 536.914 971.099C536.857 970.123 536.803 969.36 536.752 968.809C536.671 967.934 536.491 966.528 536.214 964.593C535.94 962.689 535.759 961.267 535.672 960.327L535.573 959.258L539.025 958.938C539.203 959.445 539.545 960.492 540.051 962.08C540.979 965.034 541.736 966.86 542.324 967.558C542.767 968.105 543.456 968.483 544.39 968.69C545.06 968.857 547.469 968.749 551.618 968.364C556.512 967.911 560.179 967.441 562.618 966.954C562.573 966.108 562.538 965.555 562.514 965.296C562.157 961.439 561.795 958.236 561.428 955.687L560.553 945.176C560.439 943.945 559.924 943.142 559.006 942.77C557.614 942.212 553.515 942.248 546.708 942.878C542.203 943.295 538.409 943.99 535.328 944.962C533.202 945.649 531.39 946.912 529.893 948.75C527.89 951.126 526.34 954.343 525.245 958.4C524.249 958.59 523.427 958.715 522.779 958.775C522.422 958.808 521.886 958.841 521.17 958.875C521.192 958.056 521.21 957.367 521.224 956.81L521.381 955.325L522.329 945.969L522.691 940.345C524.789 940.053 526.453 939.85 527.685 939.736C529.5 939.568 534.361 939.281 542.268 938.876C547.831 938.59 554.519 938.085 562.331 937.362C566.22 937.002 570.986 936.397 576.629 935.548L578.671 935.359L584.536 934.62L584.846 937.974C584.245 938.194 583.03 938.486 581.201 938.851C577.866 939.552 575.58 940.287 574.343 941.055C574.074 942.028 574.005 943.228 574.137 944.654C574.188 945.205 574.291 946.144 574.447 947.47L574.538 948.981L576.381 967.298L576.841 972.796L577.804 980.553L578.264 986.052L579.26 992.04C579.275 992.202 579.337 992.523 579.447 993.003C579.804 993.33 580.311 993.512 580.969 993.549C581.331 993.581 581.826 993.633 582.454 993.706C584.338 993.924 586.141 993.986 587.865 993.891C588.484 993.867 589.203 993.866 590.023 993.888L590.14 997.8Z" fill="black"/>
<path d="M483.612 985.194L495.582 958.607C498.664 951.693 500.227 947.911 500.268 947.261C500.33 946.287 499.986 945.547 499.235 945.043C498.485 944.538 497.239 944.116 495.5 943.777C495.244 943.696 494.102 943.443 492.074 943.02L492.181 940.581C492.205 940.191 492.262 939.82 492.35 939.466C494.364 939.595 497.294 939.928 501.142 940.467L506.721 941.214L508.74 941.001C511.104 940.76 513.699 940.73 516.525 940.91L516.217 944.217C515.884 944.326 514.78 944.501 512.905 944.74C510.34 945.066 508.7 945.467 507.985 945.943C507.235 946.45 506.259 947.937 505.058 950.405C503.855 952.905 500.641 960.088 495.416 971.954L487.872 988.206L481.144 1003.19L475.884 1002.8C475.003 1000.76 472.658 994.053 468.849 982.688L467.716 979.729C466.462 976.387 464.739 971.172 462.549 964.085L461.229 960.233C460.29 957.564 459.335 954.633 458.365 951.44C457.343 948.015 456.472 945.562 455.751 944.081C455.028 942.632 453.957 941.781 452.538 941.527C450.798 941.188 449.216 940.68 447.792 940.002C447.698 938.919 447.668 938.102 447.703 937.55L447.817 936.529C450.221 936.683 452.943 936.97 455.982 937.392C458.696 937.794 460.801 938.042 462.295 938.137C466.356 938.396 470.328 938.503 474.213 938.457L479.78 938.616C479.706 939.786 479.588 940.871 479.426 941.872C479.26 941.926 478.059 942.078 475.825 942.327C473.116 942.872 471.56 943.229 471.158 943.399C470.756 943.57 470.535 943.963 470.495 944.58C470.458 945.165 471.458 948.409 473.496 954.312L475.337 959.959C479.548 973.731 482.306 982.143 483.612 985.194Z" fill="black"/>
<path d="M415.435 966.21C411.907 965.734 408.728 965.185 405.898 964.563C396.901 962.584 390.636 959.473 387.103 955.23C383.57 950.987 382.338 946.433 383.408 941.569C384.673 935.814 388.052 931.741 393.544 929.349C399.03 926.989 405.317 926.589 412.407 928.148C413.71 928.435 415.879 929.028 418.914 929.929C420.978 930.55 423.535 931.195 426.587 931.867C427.923 932.16 430.459 932.601 434.196 933.19L445.449 935.215L444.515 939.009C443.837 939.06 442.877 939.032 441.634 938.925C439.275 938.74 437.499 938.782 436.306 939.053C435.318 939.603 434.175 942.834 432.874 948.748C430.406 959.97 428.353 969.684 426.715 977.89C425.039 986.12 424.346 990.484 424.636 990.981C424.888 991.503 425.909 992.011 427.701 992.505C428.393 992.691 429.912 993.208 432.259 994.058L431.657 997.475L429.501 997.051C426.957 996.491 423.546 995.558 419.268 994.25L415.325 993.083C414.403 992.881 412.955 992.645 410.98 992.378L408.114 991.998C406.249 991.687 404.941 991.5 404.189 991.434C403.041 991.348 401.799 991.159 400.464 990.865L400.637 989.853L401.089 988.253C401.162 988.069 401.241 987.786 401.325 987.405C406.392 987.553 409.284 987.439 410 987.063C410.684 986.68 411.284 985.312 411.802 982.959L412.278 980.565C412.474 979.374 412.791 977.778 413.232 975.775L415.435 966.21ZM421.375 936.02C419.529 934.714 417.7 933.862 415.887 933.463C405.587 931.198 399.457 934.516 397.5 943.418C395.43 952.829 399.594 958.677 409.99 960.963C412.787 961.578 414.889 961.874 416.294 961.85C416.623 960.656 416.865 959.709 417.019 959.009L417.584 955.984L419.184 948.937L421.201 939.081L421.369 938.318C421.516 937.651 421.518 936.884 421.375 936.02Z" fill="black"/>
<path d="M378.99 921.16C378.617 922.062 378.086 923.093 377.396 924.252L371.345 922.916C370.59 922.781 369.664 922.68 368.564 922.613L363.319 933.654C361.762 937.766 360.568 940.829 359.735 942.845L359.243 943.91C358.643 945.106 357.319 948.187 355.269 953.151L354.819 954.497L353.163 958.251L351.587 962.196L350.786 964.137C350.065 965.882 349.356 967.984 348.658 970.443C348.601 970.666 348.572 971.077 348.572 971.675C348.775 971.865 349.021 972.037 349.31 972.191C349.568 972.333 349.835 972.496 350.111 972.681C351.198 973.376 352.384 974.042 353.671 974.679L354.273 975.139C355.049 975.564 355.616 975.939 355.975 976.264C355.705 977.173 355.52 977.749 355.421 977.989C355.272 978.351 354.976 978.81 354.535 979.367C353.884 979.239 353.016 978.951 351.933 978.504C350.85 978.057 350.091 977.761 349.658 977.617C346.148 975.711 343.512 974.376 341.75 973.613C340.937 973.277 340.137 972.912 339.35 972.516C338.52 972.138 337.789 971.819 337.157 971.558C336.164 971.148 333.68 970.299 329.704 969.009C329.01 968.899 328.287 968.688 327.535 968.378C326.422 967.918 325.514 967.473 324.811 967.042C325.042 966.398 325.213 965.94 325.325 965.669C325.524 965.188 325.826 964.626 326.232 963.984L334.697 966C335.484 965.972 335.995 965.672 336.231 965.101L336.785 963.375L337.038 962.634L337.903 960.667L338.627 959.17L338.776 958.809C338.882 958.465 338.985 958.173 339.085 957.933L341.496 952.219C341.69 951.665 341.843 951.253 341.954 950.982C342.016 950.832 342.245 950.363 342.641 949.575C342.87 949.106 343.09 948.616 343.301 948.104C343.487 947.653 343.883 946.566 344.489 944.844C343.708 944.346 343.038 943.964 342.479 943.697L335.855 940.804L332.606 939.463L324.501 936.063L316.509 933.028C315.486 932.606 314.36 932.264 313.129 932.002C312.647 933.001 311.564 935.494 309.882 939.484L308.953 941.477L306.056 949.262L305.068 952.551C305.071 952.799 305.201 953.082 305.457 953.399C306.262 954.436 308.089 955.982 310.937 958.039C311.459 958.395 311.939 958.769 312.376 959.161C311.881 960.189 311.406 960.997 310.953 961.584C310.278 961.341 309.866 961.188 309.715 961.126L305.356 959.274C302.707 957.757 299.938 956.403 297.05 955.21C296.388 954.937 295.855 954.735 295.451 954.603L289.51 952.361C288.956 952.168 288.417 951.981 287.893 951.799C286.71 951.593 285.547 951.254 284.404 950.782C283.531 950.421 282.497 949.941 281.3 949.342C281.815 948.181 282.331 947.144 282.849 946.231C285.853 946.802 287.848 947.132 288.832 947.222C289.774 947.329 290.774 947.337 291.833 947.246L292.476 946.455L292.793 945.688L293.233 944.495L293.52 943.927C293.841 943.32 294.07 942.851 294.207 942.52L294.672 941.392C295.201 940.026 295.497 939.267 295.559 939.117L297.925 933.385L299.669 929.034L302.126 923.339C302.703 922.028 303.776 919.301 305.345 915.159L307.991 908.75L310.099 903.387C310.509 902.395 311.036 901.203 311.68 899.814C311.123 899.373 310.598 898.98 310.106 898.636C307.527 896.867 305.645 895.368 304.462 894.14L305.631 890.924C306.847 891.391 307.56 891.668 307.77 891.755C309.215 892.351 310.832 893.125 312.623 894.076C314.979 895.365 318.895 897.14 324.371 899.401C326.838 900.42 330.108 901.541 334.181 902.765C334.602 902.939 335.076 903.24 335.604 903.669C335.002 905.041 334.523 905.988 334.167 906.51L330.356 905.887L326.458 904.965C326.06 904.906 325.538 904.849 324.891 904.793C323.554 907.094 321.703 911.066 319.337 916.71L317.708 920.528C317.23 922.197 316.532 924.145 315.612 926.372C316.688 926.921 317.867 927.479 319.149 928.043L339.997 936.915L340.385 937.127L340.682 937.303C340.892 937.39 341.139 937.474 341.423 937.556C342.217 937.849 342.885 938.107 343.427 938.331L344.691 938.853C345.262 939.089 345.953 939.25 346.762 939.338L348.34 936.027L348.582 935.441C348.857 934.604 349.045 934.065 349.144 933.824L354.921 919.833C355.244 919.05 355.528 918.234 355.773 917.385L355.433 916.928L349.227 913.15C348.946 912.893 348.721 912.713 348.553 912.608C348.199 912.356 347.924 912.084 347.728 911.792C347.924 911.063 348.071 910.578 348.17 910.337C348.332 909.946 348.616 909.429 349.022 908.787C350.117 909.204 351.041 909.568 351.793 909.878C352.455 910.151 353.066 910.421 353.625 910.687C353.896 910.799 354.146 910.92 354.374 911.049L360.626 913.947C362.068 914.719 364.143 915.664 366.851 916.782L367.818 917.128C369.106 917.59 369.862 917.849 370.085 917.906C372.05 918.435 375.018 919.52 378.99 921.16Z" fill="black"/>
<path d="M259.769 904.681C256.68 902.911 253.942 901.205 251.555 899.562C243.966 894.34 239.335 889.098 237.66 883.836C235.986 878.575 236.561 873.893 239.384 869.79C242.724 864.936 247.388 862.436 253.377 862.289C259.347 862.169 265.322 864.167 271.302 868.282C272.402 869.038 274.187 870.406 276.659 872.383C278.337 873.735 280.463 875.297 283.037 877.068C284.164 877.844 286.347 879.207 289.587 881.16L299.248 887.275L296.953 890.438C296.306 890.23 295.427 889.842 294.316 889.275C292.201 888.215 290.539 887.585 289.332 887.387C288.211 887.524 285.934 890.086 282.501 895.074C275.987 904.54 270.426 912.765 265.818 919.749C261.164 926.742 258.878 930.523 258.96 931.093C258.997 931.672 259.752 932.527 261.225 933.659C261.796 934.092 263.009 935.144 264.863 936.814L263.018 939.753L261.18 938.548C259.035 937.072 256.227 934.922 252.756 932.099L249.543 929.532C248.765 928.997 247.513 928.234 245.784 927.242L243.273 925.81C241.662 924.821 240.521 924.154 239.849 923.81C238.818 923.298 237.739 922.655 236.613 921.879L237.154 921.007L238.175 919.695C238.313 919.552 238.493 919.32 238.714 918.998C243.352 921.044 246.073 922.028 246.878 921.949C247.656 921.852 248.728 920.812 250.093 918.827L251.437 916.788C252.066 915.759 252.962 914.4 254.125 912.711L259.769 904.681ZM276.644 878.952C275.426 877.047 274.053 875.568 272.524 874.517C263.836 868.538 256.908 869.303 251.741 876.811C246.279 884.749 247.932 891.735 256.701 897.769C259.061 899.393 260.896 900.458 262.207 900.965C262.962 899.983 263.542 899.197 263.948 898.607L265.612 896.017L269.749 890.092L275.33 881.723L275.773 881.079C276.16 880.516 276.451 879.807 276.644 878.952ZM246.856 851.696L244.863 854.593C244.216 854.384 243.174 854.003 241.737 853.45C239.699 852.679 238.094 852.227 236.922 852.092C235.867 852.591 234.832 853.578 233.817 855.053L230.591 859.827L224.2 868.943L222.746 871.143C218.904 876.323 216.928 878.994 216.817 879.155L213.216 884.56L211.601 886.649L208.647 891.373L207.497 893.131C207.339 893.417 207.137 893.911 206.892 894.612C207.641 895.878 209.203 897.427 211.578 899.258C212.149 899.691 212.591 900.054 212.903 900.348L210.588 903.971L199.416 895.572C198.031 894.54 197.165 893.904 196.816 893.664C195.234 892.575 192.626 890.939 188.992 888.755C186.942 887.542 185.653 886.773 185.125 886.449C185.449 885.921 185.731 885.483 185.971 885.134C186.285 884.679 186.717 884.107 187.269 883.42C188.6 883.783 190.083 884.269 191.717 884.88C193.306 885.5 194.663 885.94 195.788 886.2C196.429 885.613 197.201 884.663 198.106 883.349C198.899 882.196 199.505 881.23 199.922 880.45C203.122 875.974 205.561 872.515 207.24 870.075L214.507 859.428L218.337 854.121L223.792 846.021L224.884 844.52C225.032 844.305 225.191 843.96 225.36 843.484C223.964 842.01 222.642 840.744 221.394 839.688C221.171 839.495 220.427 838.825 219.161 837.677C219.608 836.799 220.015 836.092 220.384 835.555C220.587 835.26 220.914 834.814 221.366 834.215C221.714 834.455 221.992 834.626 222.198 834.729C223.093 835.266 223.607 835.58 223.742 835.672C223.929 835.802 224.25 836.082 224.704 836.513C225.043 836.825 226.697 838.24 229.667 840.757L236.731 845.737C238.152 846.715 240.309 848.002 243.202 849.598C245.083 850.655 246.301 851.354 246.856 851.696Z" fill="black"/>
<path d="M189.109 825.055C164.509 824.47 148.152 824.337 140.038 824.659C138.286 826.313 137.337 827.322 137.188 827.686C137.016 828.073 137.089 828.743 137.407 829.696C137.702 830.671 138.53 832.33 139.89 834.671C140.549 835.796 140.954 836.555 141.104 836.951C140.183 837.731 139.419 838.273 138.812 838.578L137.838 837.618C135.96 835.63 134.744 834.272 134.189 833.542C132.66 831.449 131.012 829.468 129.246 827.598C126.385 824.569 123.64 821.924 121.01 819.661C120.043 818.828 119.303 818.139 118.789 817.594C118.297 817.074 117.629 816.295 116.783 815.258C117.752 814.387 118.648 813.653 119.471 813.054C122.587 815.216 124.725 816.555 125.885 817.071C126.998 817.587 127.993 817.431 128.869 816.604L134.016 811.742L141.862 804.263L146.437 800.076L152.726 793.934L157.766 789.173L161.888 785.145C162.716 784.363 163.685 783.492 164.794 782.534C164.467 781.903 164.149 781.329 163.842 780.814C162.214 778.143 161.112 776.004 160.536 774.399L162.92 771.945L164.397 773.438C164.777 773.84 165.19 774.324 165.634 774.89L168.007 777.686C169.627 779.828 172.448 783.028 176.472 787.288C178.528 789.465 180.175 791.066 181.413 792.091C182.986 793.426 183.919 794.247 184.209 794.554C184.455 794.815 184.731 795.248 185.036 795.856C183.877 796.905 183.053 797.572 182.561 797.858L179.713 795.981L178.157 794.831C176.512 793.564 175.394 792.783 174.804 792.49C172.762 793.837 168.428 797.639 161.802 803.898L151.365 813.825L144.695 819.99L193.759 820.663C196.387 818.136 197.737 816.792 197.811 816.633C197.843 816.335 197.57 815.809 196.992 815.056L195.168 812.413C193.624 810.02 192.823 808.628 192.766 808.234C193.243 807.649 193.576 807.267 193.765 807.089C194.073 806.798 194.544 806.443 195.177 806.023L197.292 808.191C198.141 809.09 199.266 810.423 200.666 812.19L203.146 814.886L204.749 816.796L207.694 820.127C208.677 821.168 209.944 822.367 211.494 823.724C213.067 825.104 215.049 827.061 217.441 829.593C216.707 830.286 215.8 831.008 214.72 831.76C214.471 831.592 213.931 831.162 213.098 830.471L211.373 829.213C209.704 827.968 208.358 827.112 207.335 826.645C202.639 830.633 198.623 834.203 195.286 837.355L190.565 841.814L178.467 853.041C174.847 856.461 171.858 859.53 169.501 862.25C169.381 862.407 169.211 862.725 168.99 863.202C169.053 863.411 169.207 863.669 169.451 863.975C169.629 864.211 169.806 864.469 169.982 864.75C170.821 866.018 171.63 867.111 172.41 868.032L172.771 868.698C173.326 869.428 173.689 870.002 173.862 870.422C173.243 871.141 172.838 871.59 172.649 871.769C172.365 872.037 171.907 872.335 171.276 872.662C170.666 872.254 170.082 871.753 169.523 871.162C167.891 869.434 166.098 867.322 164.143 864.826C162.365 862.564 160.828 860.747 159.531 859.375C157.721 857.458 155.972 855.773 154.287 854.321C152.196 852.534 150.983 851.463 150.648 851.108C150.223 850.659 149.746 850.035 149.216 849.237L150.247 848.196C150.626 847.838 151.132 847.449 151.766 847.03L158.661 852.338C159.044 852.649 159.801 852.336 160.933 851.401C162.065 850.467 163.364 849.306 164.831 847.92L166.466 846.309L169.694 843.327L171.507 841.548L174.021 839.374C174.329 839.084 174.862 838.535 175.622 837.727C176.642 836.674 177.673 835.656 178.714 834.672C179.566 833.868 180.44 833.086 181.337 832.329L183.283 830.692L189.109 825.055ZM145.973 863.652C144.979 864.591 143.815 865.041 142.48 865.003C141.124 864.941 139.965 864.402 139.003 863.384C138.199 862.532 137.753 861.61 137.666 860.617C137.579 859.625 137.94 857.873 138.748 855.363C139.835 851.963 139.664 849.506 138.233 847.992C136.802 846.477 134.37 846.177 130.936 847.093C128.709 847.674 127.044 847.926 125.941 847.849C124.791 847.77 123.77 847.257 122.876 846.311C121.937 845.317 121.51 844.153 121.594 842.82C121.654 841.509 122.169 840.395 123.139 839.479C125.056 837.668 127.63 837.454 130.86 838.835C134.067 840.239 137.213 842.574 140.298 845.84C143.651 849.389 145.914 852.804 147.087 856.084C148.237 859.341 147.866 861.863 145.973 863.652Z" fill="black"/>
<path d="M112.334 682.725L114.984 687.624L114.588 688.693L87.0784 741.985L86.9236 742.662L109.885 730.934C115.57 728.111 120.007 726.58 123.196 726.341C126.37 726.074 129.186 726.657 131.642 728.09C134.084 729.494 136.115 731.829 137.737 735.095C138.649 736.932 138.84 738.999 138.309 741.298C137.764 743.567 136.442 745.223 134.343 746.266C132.739 747.062 131.203 747.189 129.734 746.646C128.222 746.089 127.125 745.125 126.445 743.754C126.083 743.025 125.904 742.151 125.906 741.132C125.88 740.128 126.43 738.674 127.556 736.77C128.917 734.459 129.343 732.793 128.837 731.773C127.375 728.828 121.774 729.773 112.036 734.608L105.541 738.106L90.1673 746.23C87.3682 747.693 85.4061 749.158 84.281 750.625C83.1415 752.063 82.5841 753.575 82.6088 755.162C82.6044 756.763 83.1866 759.4 84.3556 763.072L81.3594 764.723L79.5353 761.049L78.6881 759.453L77.4498 757.179L75.0617 752.149C74.6274 751.275 73.9757 750.072 73.1065 748.541L72.1507 746.726C71.9915 746.405 71.7961 745.975 71.5647 745.436L98.7402 694.545L72.191 708.708C68.1675 710.706 64.8887 711.898 62.3545 712.284C59.7913 712.684 57.3759 712.248 55.1084 710.975C52.8409 709.703 51.0123 707.667 49.6226 704.868C48.2183 702.04 47.8106 699.462 48.3994 697.134C48.959 694.821 50.2593 693.158 52.3002 692.144C53.9038 691.348 55.4618 691.229 56.9743 691.786C58.4722 692.314 59.5614 693.264 60.2418 694.634C60.6182 695.392 60.8196 696.273 60.8459 697.278C60.8286 698.268 60.2568 699.715 59.1306 701.619C57.7994 703.915 57.3655 705.53 57.8287 706.463C58.4367 707.687 59.4687 708.265 60.9247 708.197C62.3807 708.128 66.4033 706.458 72.9925 703.186C75.2375 702.071 77.3223 700.963 79.247 699.862C85.6772 696.197 90.4522 693.59 93.5718 692.041L100.7 688.72L102.274 687.938L105.402 686.222L107.938 685.071L110.65 683.507C111.117 683.275 111.678 683.015 112.334 682.725ZM85.5906 664.548C87.7332 668.863 88.2961 673.218 87.2794 677.611C86.2482 681.976 83.6042 685.215 79.3474 687.328C75.149 689.413 70.9847 689.7 66.8545 688.189C62.7098 686.649 59.4576 683.502 57.0979 678.75C54.6803 673.881 54.2636 669.309 55.8477 665.033C57.4174 660.728 59.762 657.802 62.8817 656.253C67.5758 653.922 71.9515 653.548 76.0087 655.132C80.0514 656.686 83.2454 659.825 85.5906 664.548ZM60.0501 677.23C60.9332 679.008 62.3858 680.14 64.408 680.627C66.401 681.127 70.0798 680.045 75.4445 677.382C82.2961 673.98 84.6724 670.165 82.5733 665.937C80.5466 661.855 75.6409 661.747 67.8563 665.612C60.5965 669.217 57.9944 673.09 60.0501 677.23ZM96.2873 673.575L89.4034 659.82L85.8852 652.845C85.3496 651.766 84.9518 650.855 84.6918 650.112C86.0187 649.344 87.0103 648.742 87.6666 648.307L88.3447 647.916L90.7057 646.962C91.0117 646.846 91.7333 646.506 92.8704 645.942L104.684 669.624L102.781 670.623C102.023 670.999 101.178 671.383 100.245 671.773L99.2609 672.207L97.0959 673.337C97.0085 673.38 96.7389 673.459 96.2873 673.575Z" fill="black"/>
<path d="M25.8184 636.474C25.7736 636.318 25.4382 635.262 24.8121 633.308L24.4298 631.793L23.6315 628.821C24.5973 628.41 25.3149 628.137 25.7844 628.003C25.9409 627.958 26.4305 627.835 27.2532 627.634C27.7004 627.54 29.3838 627.093 32.3036 626.292L39.4197 624.36L43.8664 623.039L75.6507 614.311L78.3267 613.547C79.2657 613.278 79.876 612.867 80.1577 612.312C80.4394 611.758 80.4483 610.486 80.1843 608.496C80.0636 607.718 79.8846 606.144 79.6475 603.774C79.9426 603.622 80.231 603.506 80.5127 603.426C80.857 603.327 81.6171 603.144 82.7931 602.875L83.37 604.894C83.7636 606.271 84.2734 608.292 84.8995 610.957C85.2618 612.58 85.5279 613.689 85.6978 614.284C85.9125 615.035 86.7823 617.783 88.3073 622.527C88.4907 623.05 88.6315 623.484 88.7299 623.828L88.9714 624.673L89.2666 626.061L89.7228 627.302L90.2997 629.676C90.3891 629.989 90.6194 630.618 90.9906 631.561C90.3199 631.82 89.7968 632.004 89.4212 632.111C89.0769 632.21 88.5515 632.326 87.845 632.46C87.143 631.306 86.3828 629.949 85.5644 628.389C84.442 626.238 83.5901 624.975 83.0088 624.6C82.3873 624.202 81.7009 624.11 80.9498 624.325L77.7707 625.284L74.2428 626.089L67.12 628.175L65.3024 628.745C65.052 628.817 64.1041 629.054 62.4587 629.457C61.5957 629.635 60.8356 629.819 60.1783 630.007C59.7714 630.123 58.5172 630.532 56.4157 631.234L53.686 631.811C51.6873 632.518 50.5002 632.925 50.1246 633.032C49.6551 633.166 49.1811 633.285 48.7027 633.388L47.5021 633.629L44.3499 634.682L42.8542 634.957C42.188 635.114 41.3071 635.349 40.2117 635.662C39.1475 635.966 37.8531 636.353 36.3284 636.822C38.6223 638.57 41.0056 640.632 43.4784 643.006C43.7556 643.265 44.7998 644.49 46.6108 646.681C45.3946 648.112 44.4512 649.076 43.7806 649.572C41.111 646.746 39.1994 644.855 38.0457 643.898C36.1051 642.32 33.7754 640.683 31.0567 638.989C29.8718 638.278 28.1256 637.44 25.8184 636.474Z" fill="black"/>
</mask>
<g mask="url(#mask0_810_2136)">
<rect y="0.5" width="1024" height="1024" fill="url(#paint0_linear_810_2136)"/>
</g>
<defs>
<linearGradient id="paint0_linear_810_2136" x1="512" y1="49.6867" x2="512" y2="978.326" gradientUnits="userSpaceOnUse">
<stop offset="0.315068" stop-color="#C4FBBF"/>
<stop offset="0.69863" stop-color="#1D2B22"/>
</linearGradient>
</defs>
</svg>
