<svg width="982" height="985" viewBox="0 0 982 985" fill="none" xmlns="http://www.w3.org/2000/svg">
<mask id="mask0_810_2137" style="mask-type:alpha" maskUnits="userSpaceOnUse" x="1" y="2" width="980" height="981">
<path fill-rule="evenodd" clip-rule="evenodd" d="M408.913 767.131C404.172 767.747 399.535 769.441 395 772.213L395.618 786.076H401.493L474.15 786.538L516.816 785.614C530.008 786.538 539.18 787 544.333 787C553.196 787 567.006 786.538 585.763 785.614V781.917C585.763 779.145 585.454 775.756 584.836 771.751C581.744 767.439 574.427 764.974 562.884 764.358C557.525 764.05 550.105 762.202 540.623 758.813C534.233 756.349 529.596 753.114 526.71 749.109C524.031 744.797 522.072 737.866 520.836 728.316C520.128 721.759 519.663 709.32 519.442 691H469.1C468.105 725.054 466.078 744.886 463.019 750.496C458.485 758.505 440.449 764.05 408.913 767.131ZM468.843 293C468.672 276.512 468.07 259.273 467.039 241.284C466.214 236.971 465.081 232.812 463.638 228.808C456.011 222.955 443.644 219.104 426.536 217.256C409.634 215.099 400.05 212.789 397.783 210.324C396.134 208.476 395.206 203.701 395 196H420.971L502.903 198.772C523.928 198.772 551.96 197.848 587 196C587 200.929 586.794 205.55 586.382 209.862C582.259 211.403 575.354 213.097 565.667 214.945C546.085 218.334 534.13 221.568 529.802 224.649C527.122 226.189 525.164 228.808 523.928 232.504C521.866 238.049 520.63 248.369 520.217 263.464L519.451 293H468.843Z" fill="url(#paint0_linear_810_2137)"/>
<path fill-rule="evenodd" clip-rule="evenodd" d="M571 656C572.003 656.303 572.002 657.449 572 659.475L572 659.726C572 659.887 572 660.042 572.001 660.19C572.007 662.063 572.01 663 571 663C568.102 663 566.537 662.905 563.408 662.714L563.407 662.714L563.396 662.713C562.209 662.641 560.796 662.554 559 662.454L529.057 661.909L502 662.454C496.187 662.818 491 663 487 663C486.273 663 486 661.909 486 659.726C486 657.544 486.35 656.325 487 656C487.383 655.808 488.073 655.697 489.105 655.529L489.105 655.529C490.767 655.26 493.316 654.847 496.902 653.725C503.079 651.542 507.075 647.905 508.892 642.813C511.072 637.721 511.799 629.718 511.072 618.806L507.136 519.2L509 523.184L545.76 601.75L546.496 618.806C546.859 630.082 548.131 638.266 550.311 643.358C552.854 648.451 557.214 651.906 563.391 653.725C568.088 655.108 569.174 655.441 570.085 655.721L570.085 655.721C570.372 655.809 570.641 655.892 571 656ZM539.301 452.044L535.596 366.194C535.233 351.644 538.866 341.823 546.496 336.731C554.489 331.275 567.569 328.547 585.735 328.547C586.825 328.547 587.37 327.456 587.37 325.274C587.37 323.091 586.825 322 585.735 322C577.742 322 571.747 322.182 567.751 322.546L542.136 323.091C536.323 323.091 531.6 322.909 527.967 322.546C524.697 322.182 522.153 322 520.337 322C513.434 322 507.984 326.547 503.987 335.64L458.324 439.86L457.622 471.925L501.262 370.558L501.263 370.568L503.5 376.505L516 402.88L539.301 452.044ZM377.005 659.181L422.64 553.18L423.291 519.818L385.18 606.803L263.648 350.371C257.835 338.368 253.293 330.73 250.023 327.456C247.117 323.819 243.302 322 238.578 322C236.035 322 232.402 322.182 227.679 322.546C223.319 322.909 217.869 323.091 211.329 323.091C204.789 323.091 199.703 322.909 196.069 322.546L175.905 322C175.178 322 174.815 323.091 174.815 325.274C174.815 327.456 175.178 328.547 175.905 328.547C194.798 328.547 209.694 335.822 220.594 350.371L215.689 603.53C215.326 622.444 211.692 636.084 204.789 644.45C198.249 652.452 187.35 656.453 172.09 656.453C171.363 656.453 171 657.544 171 659.726C171 661.909 171.363 663 172.09 663C181.536 663 188.803 662.818 193.889 662.454L222.229 661.909L251.658 662.454C257.108 662.818 264.919 663 275.093 663C275.819 663 276.182 661.909 276.182 659.726C276.182 657.544 275.819 656.453 275.093 656.453C257.653 656.453 245.482 652.452 238.578 644.45C231.675 636.447 228.405 622.807 228.769 603.53L233.674 373.832L367.74 659.181C369.194 660.636 370.829 661.363 372.645 661.363C374.825 661.363 376.278 660.636 377.005 659.181Z" fill="black"/>
<path fill-rule="evenodd" clip-rule="evenodd" d="M811 659.726C811 657.544 810.455 656.453 809.365 656.453C795.558 656.453 785.567 655.543 779.39 653.725C773.214 651.906 768.854 648.451 766.311 643.358C764.131 638.266 762.859 630.082 762.496 618.806L751.596 366.194C751.233 351.644 754.866 341.823 762.496 336.731C770.489 331.275 783.568 328.547 801.735 328.547C802.825 328.547 803.37 327.456 803.37 325.274C803.37 323.091 802.825 322 801.735 322C793.742 322 787.747 322.182 783.75 322.546L758.136 323.091C752.323 323.091 747.599 322.909 743.966 322.546C740.696 322.182 738.153 322 736.336 322C729.433 322 723.983 326.547 719.987 335.64L601.179 606.803L501.228 395.906L481.539 441.655L583.74 659.181C585.193 660.636 586.828 661.363 588.645 661.363C590.825 661.363 592.278 660.636 593.005 659.181L717.262 370.558L727.071 618.806C727.798 629.718 727.071 637.721 724.891 642.813C723.075 647.905 719.078 651.542 712.902 653.725C707.089 655.543 698.005 656.453 685.652 656.453C684.926 656.453 684.562 657.544 684.562 659.726C684.562 661.909 684.926 663 685.652 663C696.189 663 704.364 662.818 710.177 662.454L745.056 661.909L782.66 662.454C789.2 662.818 798.101 663 809.365 663C810.455 663 811 661.909 811 659.726ZM463.987 404.298L449.673 373.832L444.768 603.53C444.405 622.807 447.675 636.447 454.578 644.45C461.481 652.452 471 656.5 475 656.5C475.726 656.5 476 657.544 476 659.726C476 661.909 475.726 663.047 475 663.047C474.029 663.047 473.555 662.993 472.701 662.896C471.796 662.793 470.463 662.642 467.658 662.454L438.228 661.909L409.889 662.454C408.012 662.589 406.719 662.704 405.683 662.797C403.911 662.956 402.893 663.047 401 663.047C400.273 663.047 400 661.909 400 659.726C400 657.544 400.273 656.5 401 656.5C405 656.5 414.249 652.452 420.789 644.45C427.692 636.084 431.325 622.444 431.688 603.53L436.593 350.371C425.694 335.822 410.797 328.547 391.904 328.547C391.178 328.547 390.814 327.456 390.814 325.274C390.814 323.091 391.178 322 391.904 322L412.069 322.546C415.702 322.909 420.789 323.091 427.329 323.091C433.868 323.091 439.318 322.909 443.678 322.546C448.401 322.182 452.035 322 454.578 322C459.301 322 463.116 323.819 466.023 327.456C469.293 330.73 473.834 338.368 479.647 350.371L483.383 358.254L463.987 404.298Z" fill="black"/>
<path d="M11 491L27.9706 474.029L44.9411 491L27.9706 507.971L11 491Z" fill="black"/>
<path d="M937 491L953.971 474.029L970.941 491L953.971 507.971L937 491Z" fill="black"/>
<path d="M60.5933 402.05L57.5039 400.824C58.3439 396.809 58.4068 394.092 57.6926 392.673C57.1888 391.741 55.4476 390.552 52.4689 389.106L36.2518 382.816L19.7899 376.337C18.7962 375.924 18.1917 375.68 17.9764 375.605C13.6395 374.103 11.0421 373.496 10.1842 373.784C9.33705 374.042 7.9937 375.781 6.15421 379.002C5.67126 379.8 5.28302 380.423 4.98948 380.873C4.19921 380.668 3.54263 380.475 3.01974 380.293L1.58948 379.798C1.89151 378.628 2.30895 377.274 2.8418 375.736L7.98688 362.378C8.12421 362.081 8.30416 361.661 8.52675 361.118L9.35435 359.027C10.1507 358.718 11.1469 358.477 12.3431 358.306C14.9828 357.946 18.7961 357.579 23.7831 357.205L25.2046 357.129L43.3389 355.351C43.7613 355.325 44.3848 355.266 45.2095 355.172C46.4766 355.095 47.703 354.986 48.8885 354.845C50.0433 354.694 51.311 354.565 52.6918 354.457C54.0832 354.319 55.3255 354.164 56.4187 353.992C55.8297 353.305 55.1585 352.608 54.4051 351.899C52.0016 349.688 49.8181 347.588 47.8547 345.599C44.375 342.119 38.931 337.15 31.523 330.69C30.3307 329.657 28.5689 328.03 26.2376 325.81C23.8862 323.548 22.6549 322.329 22.5437 322.153C22.3936 321.791 22.4623 321.195 22.7501 320.364C22.8567 320.057 23.0065 319.575 23.1995 318.918C23.6614 317.287 24.2505 315.338 24.967 313.071C26.0552 309.831 26.8581 307.215 27.3757 305.224C27.8732 303.191 28.1646 302.052 28.2498 301.806C28.3564 301.499 28.515 301.14 28.7257 300.731C29.167 300.849 29.5107 300.951 29.7567 301.036L31.1089 301.608C31.3857 301.704 31.7956 301.863 32.3386 302.086C31.7675 305.126 31.5982 307.703 31.8306 309.816C32.0089 311.291 32.5593 312.188 33.4821 312.507L34.1742 312.747L48.5639 316.854C49.8877 317.21 56.3861 319.185 68.059 322.782C70.6746 323.585 74.0196 324.52 78.094 325.587C78.6075 325.696 79.0026 325.798 79.2794 325.894C80.0283 326.119 80.5583 326.131 80.8695 325.929C81.1914 325.696 83.0425 323.236 86.4229 318.551C86.9257 318.691 87.3001 318.803 87.5462 318.888C88.1921 319.112 88.8327 319.351 89.4679 319.606C89.1802 320.436 88.2864 322.469 86.7864 325.705C85.2557 328.93 83.9842 332.003 82.9718 334.925C81.4265 339.385 80.1084 343.786 79.0175 348.128C78.8872 348.703 78.7469 349.257 78.5965 349.79L75.4449 348.595C75.3898 347.163 75.5553 345.343 75.9416 343.135C76.2071 341.573 76.1169 340.491 75.671 339.889C75.2252 339.286 73.6643 338.521 70.9883 337.594C69.9733 337.243 69.076 336.949 68.2963 336.713C65.0135 335.748 60.4908 334.284 54.7283 332.322L38.1701 327.464C35.8313 326.757 34.1945 326.31 33.2599 326.124L55.6701 346.756C56.1894 347.246 56.9375 347.97 57.9145 348.929C59.1765 350.159 60.0417 350.992 60.5101 351.43C65.3798 355.77 69.162 358.924 71.8566 360.891C72.5403 361.403 73.412 362.119 74.4718 363.037L73.1948 366.574L65.2726 366.619C63.1714 366.718 59.9354 367.01 55.5648 367.493C53.0186 367.783 50.9676 367.985 49.4118 368.1C48.7622 368.185 48.2777 368.241 47.9583 368.269L46.613 368.423C46.4178 368.389 46.248 368.382 46.1037 368.401L28.9118 370.144L18.4603 371.226L40.1554 379.156L54.2077 384.386C56.5453 385.196 58.3708 385.346 59.6842 384.837C60.9776 384.286 62.4788 382.687 64.188 380.041L65.5089 378.018L68.877 379.185C68.2281 380.959 67.439 382.838 66.5097 384.825C65.5603 386.769 64.4994 389.433 63.3272 392.817C63.0821 393.524 62.1708 396.602 60.5933 402.05Z" fill="black"/>
<path d="M64.7975 298.045C61.308 296.016 58.1971 293.303 55.4649 289.907C53.5048 287.45 51.9849 284.721 50.9052 281.721C49.8254 278.721 49.2466 275.41 49.1688 271.787C49.0629 268.149 49.4681 264.732 50.3844 261.537C51.2726 258.325 52.7148 255.003 54.711 251.57C58.1143 245.716 62.1651 241.275 66.8635 238.246C71.5619 235.216 76.5025 233.552 81.6851 233.251C88.4188 232.874 94.459 234.24 99.8058 237.348C107.77 241.979 113.015 248.662 115.542 257.399C118.085 266.107 116.55 275.287 110.938 284.94C109.547 287.332 108.091 289.479 106.571 291.381C105.43 292.826 104.318 294.025 103.237 294.978C101.29 296.708 100.187 297.666 99.9269 297.854C96.3987 299.907 93.1801 301.331 90.271 302.124C87.3619 302.918 84.3773 303.291 81.3171 303.244C79.6135 303.195 76.8115 302.639 72.911 301.576C70.4005 300.907 67.696 299.73 64.7975 298.045ZM57.9573 255.604C56.5338 258.052 55.8508 260.554 55.9083 263.11C55.9377 265.65 56.3637 267.8 57.1863 269.558C58.5894 272.52 60.4875 275.149 62.8808 277.444C65.2459 279.723 68.4125 282.016 72.3803 284.323C74.8005 285.73 76.5884 286.638 77.7442 287.046C78.1146 287.186 78.7406 287.437 79.6221 287.799C81.8518 288.757 83.5432 289.345 84.6964 289.564C88.9739 290.431 91.682 290.858 92.8207 290.842C94.7468 290.832 96.896 290.406 99.2684 289.564C100.491 289.145 101.878 288.314 103.43 287.07C104.953 285.809 106.182 284.377 107.114 282.773C108.881 279.734 109.814 276.51 109.912 273.103C109.999 269.652 108.798 266.148 106.309 262.592C103.82 259.037 99.8459 255.672 94.3865 252.498C92.1353 251.189 88.992 249.568 84.9566 247.636L84.0319 247.381C83.7577 247.334 83.099 247.14 82.0558 246.797C76.8353 245.154 72.1559 245.107 68.0178 246.655C63.896 248.174 60.5425 251.157 57.9573 255.604Z" fill="black"/>
<path d="M134.288 218.063C132.429 193.527 130.937 177.237 129.812 169.194C127.992 167.616 126.894 166.771 126.517 166.659C126.115 166.526 125.456 166.666 124.539 167.077C123.597 167.467 122.029 168.455 119.834 170.042C118.781 170.809 118.065 171.287 117.686 171.475C116.819 170.637 116.203 169.931 115.84 169.356L116.698 168.292C118.49 166.226 119.721 164.881 120.392 164.256C122.323 162.527 124.131 160.691 125.816 158.748C128.546 155.6 130.906 152.606 132.897 149.765C133.63 148.72 134.242 147.915 134.733 147.35C135.202 146.809 135.911 146.066 136.859 145.122C137.821 146 138.641 146.818 139.318 147.578C137.477 150.893 136.357 153.153 135.958 154.359C135.555 155.518 135.809 156.492 136.719 157.281L142.068 161.92L150.289 168.986L154.909 173.123L161.645 178.771L166.883 183.314L171.299 187.015C172.16 187.762 173.122 188.639 174.186 189.648C174.782 189.26 175.321 188.887 175.803 188.53C178.3 186.645 180.318 185.336 181.858 184.604L184.536 186.732L183.197 188.351C182.835 188.769 182.394 189.227 181.876 189.725L179.329 192.364C177.359 194.188 174.454 197.314 170.615 201.74C168.652 204.002 167.223 205.8 166.325 207.133C165.153 208.832 164.429 209.841 164.152 210.16C163.917 210.431 163.513 210.748 162.939 211.112C161.78 210.064 161.034 209.309 160.701 208.848L162.286 205.828L163.276 204.165C164.374 202.403 165.039 201.213 165.272 200.597C163.73 198.699 159.516 194.764 152.63 188.792L141.717 179.39L134.92 173.366L139.12 222.254C141.895 224.618 143.366 225.829 143.532 225.886C143.832 225.888 144.328 225.564 145.02 224.915L147.469 222.837C149.696 221.064 151.003 220.129 151.388 220.032C152.018 220.449 152.431 220.743 152.628 220.913C152.947 221.191 153.347 221.624 153.828 222.213L151.881 224.531C151.071 225.466 149.856 226.718 148.236 228.286L145.8 231.021L144.058 232.806L141.036 236.067C140.097 237.149 139.03 238.528 137.834 240.206C136.616 241.908 134.866 244.074 132.584 246.705C131.822 246.044 131.013 245.213 130.157 244.212C130.3 243.948 130.674 243.368 131.28 242.471L132.36 240.629C133.434 238.845 134.152 237.421 134.514 236.357C130.08 232.08 126.129 228.438 122.662 225.431L117.756 221.175L105.384 210.251C101.622 206.988 98.2706 204.318 95.3309 202.243C95.1621 202.139 94.8292 202.001 94.3324 201.829C94.1306 201.913 93.8895 202.091 93.6089 202.365C93.3924 202.565 93.1529 202.767 92.8904 202.97C91.7126 203.93 90.7045 204.844 89.8661 205.712L89.2387 206.137C88.5677 206.761 88.0321 207.18 87.6319 207.393C86.8547 206.849 86.3678 206.491 86.1711 206.32C85.876 206.064 85.5342 205.639 85.1458 205.043C85.4921 204.395 85.9318 203.764 86.465 203.149C88.022 201.354 89.9456 199.36 92.2358 197.167C94.3095 195.173 95.9648 193.463 97.2019 192.037C98.9295 190.045 100.432 188.139 101.711 186.317C103.281 184.059 104.226 182.746 104.546 182.377C104.951 181.91 105.525 181.373 106.266 180.767L107.405 181.69C107.798 182.031 108.235 182.496 108.715 183.085L104.117 190.473C103.847 190.884 104.233 191.607 105.275 192.64C106.318 193.674 107.601 194.852 109.126 196.174L110.892 197.641L114.18 200.557L116.13 202.184L118.542 204.47C118.862 204.748 119.461 205.224 120.34 205.9C121.489 206.811 122.604 207.735 123.687 208.674C124.572 209.442 125.436 210.234 126.278 211.051L128.1 212.825L134.288 218.063ZM91.6007 178.97C90.5679 178.075 90.0042 176.961 89.9096 175.629C89.8363 174.273 90.2582 173.066 91.1754 172.009C91.9432 171.123 92.8167 170.588 93.7958 170.403C94.7749 170.218 96.5534 170.404 99.1312 170.959C102.622 171.703 105.05 171.288 106.415 169.714C107.781 168.141 107.837 165.69 106.586 162.364C105.786 160.206 105.37 158.574 105.338 157.468C105.302 156.317 105.711 155.25 106.564 154.266C107.46 153.233 108.575 152.693 109.91 152.644C111.22 152.574 112.38 152.976 113.388 153.851C115.38 155.578 115.849 158.118 114.795 161.469C113.716 164.8 111.705 168.162 108.762 171.555C105.562 175.244 102.389 177.835 99.2411 179.328C96.1148 180.796 93.568 180.677 91.6007 178.97Z" fill="black"/>
<path d="M210.108 164.16L208.376 161.323C211.462 158.62 213.146 156.487 213.428 154.924C213.587 153.876 212.91 151.879 211.399 148.933L202.225 134.155L192.967 119.079C192.422 118.152 192.086 117.593 191.958 117.404C189.397 113.596 187.687 111.549 186.828 111.263C185.996 110.96 183.876 111.542 180.47 113.009C179.604 113.356 178.919 113.621 178.415 113.803C177.906 113.164 177.498 112.615 177.189 112.156L176.344 110.9C177.289 110.147 178.437 109.316 179.787 108.408L191.931 100.828C192.219 100.674 192.616 100.446 193.12 100.146L195.038 98.9737C195.861 99.205 196.801 99.612 197.86 100.194C200.186 101.494 203.453 103.494 207.662 106.194L208.844 106.988L224.403 116.472C224.756 116.705 225.29 117.033 226.005 117.454C227.064 118.154 228.109 118.804 229.141 119.405C230.155 119.979 231.245 120.638 232.413 121.382C233.608 122.109 234.694 122.732 235.671 123.251C235.613 122.349 235.496 121.388 235.32 120.368C234.729 117.157 234.248 114.166 233.875 111.395C233.187 106.523 231.826 99.2787 229.791 89.6627C229.46 88.1202 229.03 85.7611 228.502 82.5852C227.984 79.3642 227.733 77.6499 227.75 77.4421C227.848 77.0625 228.261 76.6275 228.991 76.137C229.261 75.9553 229.67 75.6602 230.219 75.2517C231.569 74.2259 233.212 73.0229 235.148 71.6426C237.966 69.708 240.18 68.1009 241.791 66.8213C243.41 65.4965 244.328 64.7614 244.544 64.6161C244.815 64.4344 245.157 64.2434 245.571 64.0431C245.853 64.4031 246.066 64.6911 246.211 64.9072L246.948 66.1772C247.111 66.4203 247.343 66.794 247.643 67.2984C245.358 69.3843 243.674 71.3413 242.589 73.1695C241.845 74.4546 241.745 75.5023 242.29 76.3126L242.699 76.9204L251.727 88.855C252.571 89.9349 256.575 95.4213 263.739 105.314C265.346 107.529 267.456 110.287 270.07 113.59C270.415 113.986 270.669 114.305 270.832 114.548C271.295 115.178 271.712 115.506 272.082 115.532C272.48 115.539 275.437 114.687 280.956 112.976C281.273 113.39 281.505 113.705 281.65 113.921C282.032 114.489 282.4 115.065 282.754 115.65C282.025 116.141 280.088 117.228 276.944 118.911C273.782 120.567 270.918 122.258 268.352 123.984C264.436 126.618 260.736 129.342 257.254 132.155C256.804 132.536 256.358 132.895 255.917 133.23L254.118 130.38C254.935 129.203 256.162 127.849 257.798 126.316C258.95 125.228 259.528 124.309 259.534 123.56C259.54 122.81 258.753 121.261 257.172 118.911C256.573 118.019 256.032 117.245 255.551 116.588C253.508 113.843 250.775 109.954 247.351 104.921L237.042 91.082C235.598 89.1107 234.559 87.7698 233.924 87.0591L239.424 117.02C239.544 117.724 239.706 118.752 239.91 120.106C240.179 121.847 240.369 123.033 240.48 123.665C241.761 130.061 242.887 134.855 243.857 138.047C244.095 138.868 244.361 139.963 244.656 141.334L241.509 143.392L235.152 138.665C233.413 137.48 230.653 135.767 226.87 133.526C224.661 132.226 222.901 131.154 221.588 130.311C221.018 129.988 220.597 129.741 220.326 129.571L219.158 128.885C219.022 128.741 218.891 128.633 218.764 128.562L203.98 119.617L194.979 114.196L207.545 133.578L215.627 146.207C217.008 148.26 218.376 149.478 219.732 149.86C221.097 150.198 223.257 149.823 226.214 148.737L228.486 147.915L230.475 150.872C228.891 151.899 227.13 152.927 225.193 153.955C223.265 154.938 220.815 156.428 217.844 158.427C217.223 158.845 214.644 160.756 210.108 164.16Z" fill="black"/>
<path d="M261.495 56.6257C263.236 55.9782 264.773 55.4725 266.105 55.1086C268.608 54.4156 271.412 53.3967 274.519 52.0518C275.594 51.5862 278.319 50.3004 282.692 48.1943C289.238 45.0417 295.199 42.3015 300.576 39.9738L308.648 36.3733C310.47 35.5844 313.256 34.6446 317.005 33.5538C317.801 33.9185 318.419 34.6087 318.859 35.6244L322.855 44.8552L323.739 46.6537C323.817 46.8329 323.919 47.1082 324.044 47.4796L322.245 48.3645C322.006 48.468 321.486 48.658 320.683 48.9344C320.156 48.4534 319.416 47.7273 318.463 46.7562L315.294 44.3506C314.025 43.3037 312.474 42.3434 310.641 41.4696C309.804 41.5837 308.796 41.8781 307.618 42.3525C307.306 42.452 306.363 42.7717 304.788 43.3117C301.906 44.2754 298.867 45.4491 295.671 46.8328C292.026 48.4104 288.796 49.8797 285.98 51.2407C286.213 52.0263 287.442 54.9882 289.667 60.1264L293.015 67.6156L295.459 73.2617C296.245 73.028 296.906 72.7948 297.444 72.562C302.791 70.2472 306.555 68.4939 308.735 67.302C310.915 66.11 312.196 65.2185 312.578 64.6272C312.948 64.0061 313.141 63.142 313.159 62.0349C313.143 61.2613 312.715 58.8393 311.876 54.7689L312.439 54.4719L315.057 53.3917C316.328 55.9987 317.26 57.9892 317.855 59.3634C319.213 62.5001 320.056 64.5295 320.384 65.4515C320.742 66.3607 321.031 67.0691 321.251 67.577C321.6 68.3836 322.208 69.6637 323.073 71.4173C323.926 73.141 324.539 74.436 324.914 75.3023L325.341 76.2881L322.16 77.6654C321.833 77.2391 321.183 76.3503 320.207 74.9989C318.407 72.4793 317.119 70.9794 316.344 70.4993C315.753 70.1167 314.981 69.9721 314.028 70.0653C313.34 70.1148 311.084 70.9672 307.26 72.6225C302.749 74.5752 299.411 76.1624 297.244 77.3842C297.55 78.1738 297.755 78.6881 297.858 78.9271C299.397 82.482 300.737 85.4136 301.878 87.7219L305.979 97.4396C306.47 98.5748 307.209 99.1769 308.197 99.246C309.693 99.3431 313.578 98.0338 319.852 95.3182C324.004 93.5207 327.393 91.6811 330.019 89.7994C331.827 88.4848 333.156 86.7211 334.007 84.5082C335.172 81.6273 335.645 78.0886 335.424 73.892C336.311 73.4015 337.054 73.0269 337.651 72.7683C337.98 72.6261 338.479 72.4276 339.149 72.173C339.383 72.9586 339.58 73.6183 339.74 74.152L340.053 75.6127L342.061 84.7994L343.466 90.2569C341.563 91.1871 340.044 91.8979 338.909 92.3893C337.236 93.1135 332.705 94.8974 325.317 97.7411C320.118 99.7433 313.919 102.303 306.719 105.419C303.134 106.971 298.793 109.028 293.694 111.59L291.812 112.404L286.468 114.931L285.13 111.839C285.632 111.444 286.696 110.788 288.322 109.872C291.273 108.168 293.217 106.759 294.154 105.644C294.107 104.636 293.799 103.474 293.23 102.16C293.011 101.652 292.621 100.792 292.061 99.5804L291.504 98.1719L284.057 81.3368L281.91 76.2539L278.582 69.1813L276.435 64.0984L273.626 58.7165C273.562 58.5672 273.402 58.2814 273.149 57.8591C272.708 57.6598 272.169 57.6447 271.533 57.8137C271.178 57.8962 270.691 58.0006 270.072 58.1268C268.214 58.5054 266.481 59.0076 264.872 59.6332C264.291 59.849 263.608 60.0738 262.822 60.3074L261.495 56.6257Z" fill="black"/>
<path d="M395.906 27.5386L393.99 28.1294C393.549 28.2423 393.005 28.3479 392.358 28.4462C391.921 27.9196 391.304 27.086 390.508 25.9456C388.865 24.2492 387.781 23.0984 387.257 22.4934C385.051 20.5711 383.834 19.5553 383.604 19.446C383.375 19.3367 382.594 19.4357 381.261 19.743C380.22 20.0092 378.722 20.3253 376.766 20.6912C373.548 21.2456 370.173 21.9745 366.641 22.878C365.221 23.241 363.826 23.6315 362.455 24.0496C361.684 24.5827 361.702 26.4262 362.508 29.5798L366.753 45.7813C370.055 44.6343 372.983 43.7341 375.538 43.0806C380.647 41.7738 384.891 41.1586 388.271 41.2349C391.65 41.3112 394.582 41.8716 397.067 42.916C399.575 43.9208 401.616 45.3309 403.189 47.1461C404.754 48.9298 405.839 51.0042 406.444 53.3695C407.904 59.0776 406.72 64.2357 402.893 68.8436C399.057 73.42 393.623 76.6076 386.59 78.4066C385.297 78.7373 383.093 79.1835 379.977 79.7453C377.855 80.12 375.281 80.6946 372.253 81.469C370.929 81.8078 368.466 82.5555 364.864 83.712L353.903 86.9692L353.03 83.1606C353.612 82.8101 354.482 82.4027 355.64 81.9384C357.83 81.0423 359.397 80.2047 360.34 79.4259C360.975 78.4908 360.542 75.0903 359.041 69.2245L352.256 43.2903L349.275 33.0152C348.446 30.1696 347.779 28.61 347.272 28.3364C346.797 28.0548 345.743 28.0724 344.11 28.3892C343.44 28.527 341.85 28.7489 339.341 29.0546L338.34 25.7323L342.999 24.4397L360.302 20.165L360.337 20.1056L380.747 14.5823C384.059 13.7353 387.525 13.1006 391.147 12.6782C391.852 13.0692 392.353 13.848 392.652 15.0149L395.906 27.5386ZM375.039 75.414C377.275 75.7492 379.292 75.6869 381.089 75.2271C391.307 72.6135 395.287 66.8915 393.028 58.0612C390.64 48.7263 384.29 45.3778 373.978 48.0157C371.203 48.7256 369.193 49.4076 367.949 50.0618C368.193 51.2763 368.403 52.2305 368.581 52.9243L369.437 55.8803L371.181 62.8936L373.816 72.6021L374.009 73.359C374.179 74.0213 374.522 74.7063 375.039 75.414Z" fill="black"/>
<path d="M412.86 7.51265C414.717 7.43884 416.335 7.43616 417.714 7.5046C420.308 7.62408 423.29 7.52778 426.661 7.21569C427.828 7.10766 430.817 6.73284 435.629 6.09123C442.83 5.13032 449.348 4.37978 455.182 3.83963L463.974 2.92765C465.951 2.7446 468.891 2.71763 472.793 2.84673C473.436 3.44098 473.809 4.28914 473.911 5.39119L474.838 15.407L475.12 17.3914C475.138 17.5859 475.149 17.8791 475.152 18.271L473.168 18.5528C472.909 18.5768 472.355 18.5954 471.506 18.6086C471.154 17.9874 470.677 17.0672 470.074 15.8481L467.809 12.5761C466.929 11.1865 465.753 9.79152 464.283 8.39112C463.452 8.23925 462.403 8.20562 461.136 8.29024C460.808 8.28784 459.812 8.29833 458.147 8.32172C455.109 8.34149 451.855 8.51193 448.387 8.83302C444.433 9.19912 440.906 9.59104 437.806 10.0088C437.784 10.8281 438.031 14.0253 438.547 19.6005L439.4 27.7597L439.968 33.8858C440.787 33.908 441.488 33.8921 442.072 33.8381C447.874 33.301 451.996 32.8049 454.438 32.3499C456.881 31.895 458.376 31.446 458.923 31.003C459.468 30.5276 459.92 29.7665 460.281 28.7197C460.507 27.9796 460.853 25.5447 461.321 21.415L461.948 21.3078L464.773 21.0954C465.17 23.9682 465.437 26.1501 465.575 27.6411C465.89 31.0445 466.06 33.2354 466.086 34.2138C466.143 35.1893 466.197 35.9525 466.248 36.5035C466.329 37.3787 466.509 38.7841 466.786 40.72C467.06 42.6233 467.241 44.045 467.328 44.985L467.427 46.0547L463.975 46.3743C463.797 45.8677 463.455 44.8205 462.949 43.2328C462.021 40.2784 461.264 38.4524 460.676 37.755C460.233 37.2075 459.544 36.83 458.61 36.6223C457.94 36.4554 455.531 36.564 451.382 36.9481C446.488 37.4012 442.821 37.8715 440.382 38.3589C440.427 39.2046 440.462 39.7571 440.486 40.0164C440.843 43.8737 441.205 47.0766 441.572 49.6252L442.447 60.1362C442.561 61.3679 443.076 62.1702 443.994 62.5429C445.386 63.1006 449.485 63.0643 456.292 62.4341C460.797 62.017 464.591 61.3226 467.672 60.3508C469.798 59.6635 471.61 58.4006 473.107 56.5621C475.11 54.1863 476.66 50.9699 477.755 46.9128C478.751 46.7226 479.573 46.5974 480.221 46.5374C480.578 46.5044 481.114 46.4711 481.83 46.4375C481.808 47.2568 481.79 47.945 481.776 48.5021L481.619 49.9877L480.671 59.3434L480.309 64.9672C478.211 65.2595 476.547 65.4626 475.315 65.5767C473.5 65.7447 468.639 66.0313 460.732 66.4363C455.169 66.7226 448.481 67.2273 440.669 67.9505C436.78 68.3106 432.014 68.9153 426.371 69.7646L424.329 69.9537L418.464 70.6928L418.154 67.338C418.755 67.1189 419.97 66.8266 421.799 66.4611C425.134 65.76 427.42 65.0254 428.657 64.2571C428.926 63.2841 428.995 62.0845 428.863 60.6583C428.812 60.1072 428.709 59.1687 428.553 57.8428L428.462 56.3311L426.619 38.0148L426.159 32.5162L425.196 24.7594L424.736 19.2609L423.74 13.2725C423.725 13.1104 423.663 12.7893 423.553 12.3091C423.196 11.9825 422.689 11.8006 422.031 11.7634C421.669 11.7316 421.174 11.6794 420.546 11.6067C418.662 11.3888 416.859 11.327 415.135 11.4212C414.516 11.4458 413.797 11.447 412.977 11.4248L412.86 7.51265Z" fill="black"/>
<path d="M519.388 20.118L507.418 46.7053C504.336 53.6195 502.773 57.4014 502.732 58.0512C502.67 59.0257 503.014 59.7653 503.765 60.2698C504.515 60.7743 505.761 61.1962 507.5 61.5354C507.756 61.617 508.898 61.8692 510.926 62.292L510.819 64.7316C510.795 65.1214 510.738 65.4929 510.65 65.8462C508.636 65.7177 505.706 65.3841 501.858 64.8453L496.279 64.0982L494.26 64.3119C491.896 64.5526 489.301 64.5829 486.475 64.4027L486.783 61.0953C487.116 60.9861 488.22 60.8118 490.095 60.5726C492.66 60.2468 494.3 59.8458 495.015 59.3695C495.765 58.8628 496.741 57.3756 497.942 54.908C499.145 52.4079 502.359 45.2248 507.584 33.3587L515.128 17.1065L521.856 2.12338L527.116 2.50762C527.997 4.55348 530.342 11.2592 534.151 22.6249L535.284 25.5838C536.538 28.9256 538.261 34.1402 540.451 41.2275L541.771 45.079C542.71 47.7483 543.665 50.6796 544.635 53.8728C545.657 57.2976 546.528 59.7506 547.249 61.2317C547.972 62.6804 549.043 63.5315 550.462 63.7851C552.202 64.1243 553.784 64.6329 555.208 65.3109C555.302 66.3933 555.332 67.2106 555.297 67.7629L555.183 68.7831C552.779 68.6298 550.057 68.3422 547.018 67.9201C544.304 67.5187 542.199 67.2704 540.705 67.1751C536.644 66.9162 532.672 66.8097 528.787 66.8556L523.22 66.6964C523.294 65.5269 523.412 64.4417 523.574 63.4409C523.74 63.3862 524.941 63.2344 527.175 62.9854C529.884 62.4406 531.44 62.0831 531.842 61.913C532.244 61.743 532.465 61.3493 532.505 60.7321C532.542 60.1473 531.542 56.9033 529.504 51L527.663 45.3538C523.452 31.5815 520.694 23.1695 519.388 20.118Z" fill="black"/>
<path d="M587.565 39.1022C591.093 39.5781 594.272 40.1272 597.102 40.7495C606.099 42.7281 612.364 45.8391 615.897 50.0824C619.43 54.3256 620.662 58.8794 619.592 63.7436C618.327 69.4981 614.948 73.5712 609.456 75.963C603.97 78.323 597.683 78.7235 590.593 77.1644C589.29 76.8777 587.121 76.284 584.086 75.3833C582.022 74.7629 579.465 74.1171 576.413 73.4459C575.077 73.1522 572.541 72.7112 568.804 72.1227L557.551 70.0978L558.485 66.3037C559.163 66.2528 560.123 66.2807 561.366 66.3874C563.725 66.5729 565.501 66.5302 566.694 66.2592C567.682 65.7097 568.825 62.4783 570.126 56.565C572.594 45.3422 574.647 35.6281 576.285 27.4225C577.961 19.1921 578.654 14.8283 578.364 14.3311C578.112 13.8091 577.091 13.3011 575.299 12.8072C574.607 12.6216 573.088 12.1042 570.741 11.2549L571.343 7.83754L573.499 8.26179C576.043 8.82112 579.454 9.75456 583.732 11.0621L587.675 12.2292C588.597 12.432 590.045 12.6671 592.02 12.9346L594.886 13.3149C596.751 13.6251 598.059 13.8129 598.811 13.8783C599.959 13.964 601.201 14.1537 602.536 14.4474L602.363 15.4593L601.911 17.0598C601.838 17.2435 601.759 17.5262 601.675 17.9077C596.608 17.7599 593.716 17.874 593 18.2498C592.316 18.6326 591.716 20.0004 591.198 22.353L590.722 24.7479C590.526 25.9382 590.209 27.5348 589.768 29.5378L587.565 39.1022ZM581.625 69.2928C583.471 70.5987 585.3 71.4509 587.113 71.8494C597.413 74.1147 603.543 70.7964 605.5 61.8945C607.57 52.484 603.406 46.6356 593.01 44.3493C590.213 43.734 588.111 43.4386 586.706 43.4628C586.377 44.657 586.135 45.6037 585.981 46.3032L585.416 49.3285L583.816 56.3759L581.799 66.2313L581.631 66.9943C581.484 67.6619 581.482 68.4281 581.625 69.2928Z" fill="black"/>
<path d="M624.01 84.153C624.383 83.2503 624.914 82.2194 625.604 81.0603L631.655 82.3967C632.41 82.5319 633.336 82.6329 634.436 82.6994L639.681 71.6585C641.238 67.5469 642.432 64.4831 643.265 62.4672L643.757 61.4026C644.357 60.2062 645.681 57.1258 647.731 52.1612L648.181 50.8151L649.837 47.0612L651.413 43.116L652.214 41.1753C652.935 39.4302 653.644 37.3283 654.342 34.8695C654.399 34.6465 654.428 34.2358 654.428 33.6373C654.225 33.4476 653.979 33.2757 653.69 33.1213C653.432 32.9795 653.165 32.8163 652.889 32.6319C651.802 31.9368 650.616 31.2708 649.329 30.634L648.727 30.1739C647.951 29.7482 647.384 29.3732 647.025 29.0489C647.295 28.139 647.48 27.5638 647.579 27.323C647.728 26.962 648.024 26.5028 648.465 25.9455C649.116 26.0736 649.984 26.3612 651.067 26.8084C652.15 27.2557 652.909 27.5512 653.342 27.695C656.852 29.6017 659.488 30.9366 661.25 31.6996C662.063 32.035 662.863 32.4005 663.65 32.7961C664.48 33.1741 665.211 33.4935 665.843 33.7543C666.836 34.1643 669.32 35.0139 673.296 36.3031C673.99 36.4135 674.713 36.624 675.465 36.9346C676.578 37.3942 677.486 37.8395 678.189 38.2704C677.958 38.9147 677.787 39.3722 677.675 39.643C677.476 40.1245 677.174 40.6863 676.768 41.3287L668.303 39.3128C667.516 39.3404 667.005 39.64 666.769 40.2117L666.215 41.9375L665.962 42.6783L665.097 44.6455L664.373 46.1427L664.224 46.5038C664.118 46.8472 664.015 47.1392 663.915 47.3799L661.504 53.0932C661.31 53.6472 661.157 54.0596 661.046 54.3304C660.984 54.4808 660.755 54.9498 660.359 55.7373C660.13 56.2063 659.91 56.6966 659.699 57.2081C659.513 57.6594 659.117 58.7462 658.511 60.4684C659.292 60.9667 659.962 61.3489 660.521 61.615L667.145 64.5082L670.394 65.8499L678.499 69.2491L686.491 72.2844C687.514 72.7068 688.64 73.0487 689.871 73.3102C690.353 72.312 691.436 69.8182 693.118 65.8289L694.047 63.8352L696.944 56.0508L697.932 52.7611C697.929 52.5132 697.799 52.2307 697.543 51.9135C696.738 50.8769 694.911 49.3304 692.063 47.2738C691.541 46.9174 691.061 46.5433 690.624 46.1516C691.119 45.1234 691.594 44.3155 692.047 43.7281C692.722 43.9713 693.134 44.124 693.285 44.1861L697.644 46.0388C700.293 47.5551 703.062 48.9096 705.95 50.1022C706.612 50.3755 707.145 50.5778 707.549 50.7092L713.49 52.9511C714.044 53.1446 714.583 53.332 715.107 53.5131C716.29 53.7196 717.453 54.0588 718.596 54.5309C719.469 54.8912 720.503 55.3711 721.7 55.9707C721.185 57.1317 720.669 58.1688 720.151 59.0819C717.147 58.5107 715.152 58.1804 714.168 58.0909C713.226 57.9838 712.226 57.9758 711.167 58.0669L710.524 58.8577L710.207 59.625L709.767 60.817L709.48 61.3851C709.159 61.9921 708.93 62.4611 708.793 62.7921L708.328 63.9204C707.799 65.2868 707.503 66.0453 707.441 66.1957L705.075 71.9275L703.331 76.2789L700.874 81.9735C700.297 83.285 699.224 86.0116 697.655 90.1533L695.009 96.5621L692.901 101.925C692.491 102.918 691.964 104.109 691.32 105.498C691.877 105.94 692.402 106.332 692.894 106.676C695.473 108.446 697.355 109.945 698.538 111.173L697.369 114.388C696.153 113.921 695.44 113.644 695.23 113.557C693.785 112.961 692.168 112.188 690.377 111.237C688.021 109.947 684.105 108.172 678.629 105.911C676.162 104.893 672.892 103.771 668.819 102.548C668.398 102.374 667.924 102.072 667.396 101.643C667.998 100.272 668.477 99.3248 668.833 98.8028L672.644 99.4253L676.542 100.348C676.94 100.407 677.462 100.464 678.109 100.519C679.446 98.2188 681.297 94.2465 683.663 88.6023L685.292 84.7846C685.77 83.1154 686.468 81.1675 687.388 78.941C686.312 78.3911 685.133 77.834 683.851 77.2697L663.003 68.3979L662.615 68.185L662.318 68.0095C662.108 67.9225 661.861 67.8382 661.577 67.7564C660.783 67.4635 660.115 67.2053 659.573 66.9817L658.309 66.4599C657.738 66.2239 657.047 66.0621 656.238 65.9746L654.66 69.285L654.418 69.8717C654.143 70.709 653.955 71.2479 653.856 71.4887L648.079 85.4798C647.756 86.2621 647.472 87.0781 647.227 87.9277L647.567 88.3849L653.773 92.1621C654.054 92.4191 654.279 92.5999 654.447 92.7045C654.801 92.9563 655.076 93.2284 655.272 93.5207C655.076 94.25 654.929 94.735 654.83 94.9757C654.668 95.3669 654.384 95.8836 653.978 96.5259C652.883 96.1088 651.959 95.745 651.207 95.4344C650.545 95.1611 649.934 94.8914 649.375 94.6253C649.104 94.5135 648.854 94.3928 648.626 94.2634L642.374 91.3652C640.932 90.5936 638.857 89.6488 636.149 88.5307L635.182 88.1846C633.894 87.723 633.138 87.4638 632.915 87.4069C630.95 86.8774 627.982 85.7927 624.01 84.153Z" fill="black"/>
<path d="M743.231 100.632C746.32 102.402 749.058 104.108 751.445 105.75C759.034 110.973 763.665 116.214 765.34 121.476C767.014 126.738 766.439 131.42 763.616 135.523C760.276 140.377 755.612 142.877 749.623 143.024C743.653 143.143 737.678 141.146 731.698 137.031C730.598 136.274 728.813 134.907 726.341 132.929C724.663 131.577 722.537 130.016 719.963 128.244C718.836 127.469 716.653 126.105 713.413 124.152L703.752 118.037L706.047 114.875C706.694 115.083 707.573 115.47 708.684 116.037C710.799 117.098 712.461 117.727 713.668 117.926C714.789 117.789 717.066 115.226 720.499 110.238C727.013 100.772 732.574 92.5471 737.182 85.5631C741.836 78.5706 744.122 74.7894 744.04 74.2193C744.003 73.6409 743.248 72.7856 741.775 71.6533C741.204 71.2205 739.991 70.1688 738.137 68.4982L739.982 65.5592L741.82 66.7646C743.965 68.2408 746.773 70.3905 750.244 73.2136L753.457 75.78C754.235 76.3152 755.487 77.0785 757.216 78.0701L759.727 79.5021C761.338 80.4919 762.479 81.1588 763.151 81.5028C764.182 82.0146 765.261 82.658 766.387 83.433L765.846 84.3054L764.825 85.6177C764.687 85.7601 764.507 85.9922 764.286 86.314C759.648 84.2684 756.927 83.2848 756.122 83.3632C755.344 83.4601 754.272 84.5008 752.907 86.4852L751.563 88.5241C750.934 89.5532 750.038 90.9125 748.875 92.6019L743.231 100.632ZM726.356 126.361C727.574 128.266 728.947 129.744 730.476 130.796C739.164 136.775 746.092 136.01 751.259 128.501C756.721 120.564 755.068 113.578 746.299 107.544C743.939 105.92 742.104 104.854 740.793 104.347C740.038 105.33 739.458 106.116 739.052 106.706L737.388 109.295L733.251 115.221L727.67 123.59L727.227 124.234C726.84 124.797 726.549 125.506 726.356 126.361ZM756.144 153.616L758.137 150.72C758.784 150.928 759.826 151.309 761.263 151.863C763.301 152.633 764.906 153.086 766.078 153.22C767.133 152.721 768.168 151.734 769.183 150.259L772.409 145.485L778.8 136.369L780.254 134.17C784.096 128.989 786.072 126.318 786.183 126.158L789.784 120.752L791.399 118.663L794.353 113.939L795.503 112.182C795.661 111.895 795.863 111.402 796.108 110.701C795.359 109.435 793.797 107.886 791.422 106.054C790.851 105.621 790.409 105.258 790.097 104.965L792.412 101.342L803.584 109.741C804.969 110.773 805.835 111.408 806.184 111.648C807.766 112.737 810.374 114.374 814.008 116.558C816.058 117.771 817.347 118.539 817.875 118.863C817.551 119.391 817.269 119.829 817.029 120.178C816.715 120.634 816.283 121.205 815.731 121.893C814.4 121.53 812.917 121.043 811.283 120.432C809.694 119.813 808.337 119.373 807.212 119.113C806.571 119.699 805.799 120.649 804.894 121.963C804.101 123.116 803.495 124.083 803.078 124.862C799.878 129.339 797.439 132.797 795.76 135.237L788.493 145.884L784.663 151.191L779.208 159.292L778.116 160.793C777.968 161.007 777.809 161.352 777.64 161.828C779.036 163.303 780.358 164.568 781.606 165.625C781.829 165.818 782.573 166.488 783.839 167.635C783.392 168.514 782.985 169.221 782.616 169.757C782.413 170.052 782.086 170.499 781.634 171.097C781.286 170.857 781.008 170.686 780.802 170.584C779.907 170.047 779.393 169.732 779.258 169.64C779.071 169.511 778.75 169.231 778.296 168.8C777.957 168.488 776.303 167.073 773.333 164.555L766.269 159.575C764.848 158.597 762.691 157.311 759.798 155.715C757.917 154.658 756.699 153.958 756.144 153.616Z" fill="black"/>
<path d="M813.891 180.257C838.491 180.843 854.848 180.975 862.962 180.654C864.714 179 865.663 177.99 865.812 177.626C865.984 177.24 865.911 176.57 865.593 175.617C865.298 174.641 864.47 172.982 863.11 170.641C862.451 169.517 862.046 168.757 861.896 168.361C862.817 167.582 863.581 167.039 864.188 166.734L865.162 167.694C867.04 169.682 868.256 171.041 868.811 171.771C870.34 173.864 871.988 175.845 873.754 177.714C876.615 180.743 879.36 183.389 881.99 185.651C882.957 186.485 883.697 187.174 884.211 187.718C884.703 188.239 885.371 189.018 886.217 190.055C885.248 190.925 884.352 191.66 883.529 192.258C880.413 190.097 878.275 188.758 877.115 188.241C876.002 187.726 875.007 187.882 874.131 188.709L868.984 193.571L861.138 201.05L856.563 205.237L850.274 211.379L845.234 216.14L841.112 220.167C840.284 220.95 839.315 221.82 838.206 222.779C838.533 223.41 838.851 223.983 839.158 224.498C840.786 227.17 841.888 229.308 842.464 230.914L840.08 233.367L838.603 231.874C838.223 231.472 837.81 230.988 837.366 230.423L834.993 227.627C833.373 225.485 830.552 222.284 826.528 218.025C824.472 215.848 822.825 214.247 821.587 213.221C820.014 211.887 819.081 211.066 818.791 210.758C818.545 210.498 818.269 210.064 817.964 209.457C819.123 208.407 819.947 207.74 820.439 207.455L823.287 209.332L824.843 210.482C826.488 211.749 827.606 212.529 828.196 212.822C830.238 211.476 834.572 207.673 841.198 201.414L851.635 191.488L858.305 185.322L809.241 184.65C806.613 187.177 805.263 188.52 805.189 188.679C805.157 188.978 805.43 189.503 806.008 190.257L807.832 192.899C809.376 195.292 810.177 196.685 810.234 197.078C809.757 197.663 809.424 198.045 809.235 198.224C808.927 198.515 808.456 198.87 807.823 199.289L805.708 197.122C804.859 196.223 803.734 194.89 802.334 193.123L799.854 190.427L798.251 188.516L795.306 185.185C794.323 184.144 793.056 182.945 791.506 181.588C789.933 180.208 787.951 178.252 785.559 175.72C786.293 175.027 787.2 174.304 788.28 173.552C788.529 173.72 789.069 174.15 789.902 174.842L791.627 176.1C793.296 177.345 794.642 178.201 795.665 178.667C800.361 174.679 804.377 171.109 807.714 167.958L812.435 163.498L824.533 152.272C828.153 148.852 831.142 145.782 833.499 143.063C833.619 142.905 833.789 142.588 834.01 142.11C833.947 141.901 833.793 141.644 833.549 141.337C833.371 141.102 833.194 140.844 833.018 140.562C832.179 139.295 831.37 138.201 830.59 137.281L830.229 136.614C829.674 135.885 829.311 135.31 829.138 134.891C829.757 134.171 830.162 133.722 830.351 133.544C830.635 133.275 831.093 132.978 831.724 132.65C832.334 133.059 832.918 133.559 833.477 134.151C835.109 135.878 836.902 137.99 838.857 140.487C840.635 142.748 842.172 144.565 843.469 145.938C845.279 147.854 847.028 149.539 848.713 150.992C850.804 152.778 852.017 153.849 852.352 154.204C852.777 154.654 853.254 155.277 853.784 156.075L852.753 157.117C852.374 157.475 851.868 157.863 851.234 158.283L844.339 152.974C843.956 152.664 843.199 152.976 842.067 153.911C840.935 154.846 839.636 156.006 838.169 157.392L836.534 159.004L833.306 161.986L831.493 163.765L828.979 165.938C828.671 166.229 828.138 166.778 827.378 167.585C826.358 168.638 825.327 169.657 824.286 170.64C823.434 171.445 822.56 172.226 821.663 172.983L819.717 174.62L813.891 180.257ZM857.027 141.661C858.021 140.722 859.185 140.272 860.52 140.31C861.876 140.371 863.035 140.911 863.997 141.928C864.801 142.78 865.247 143.703 865.334 144.695C865.421 145.688 865.06 147.439 864.252 149.949C863.165 153.349 863.336 155.806 864.767 157.321C866.198 158.835 868.63 159.135 872.064 158.22C874.291 157.638 875.956 157.386 877.059 157.464C878.209 157.543 879.23 158.055 880.124 159.002C881.063 159.996 881.49 161.159 881.406 162.493C881.346 163.803 880.831 164.917 879.861 165.834C877.944 167.644 875.37 167.859 872.14 166.477C868.933 165.073 865.787 162.738 862.702 159.473C859.349 155.923 857.086 152.508 855.913 149.228C854.763 145.971 855.134 143.449 857.027 141.661Z" fill="black"/>
<path d="M890.666 322.587L888.016 317.689L888.412 316.62L915.922 263.327L916.076 262.651L893.115 274.379C887.43 277.202 882.993 278.732 879.804 278.971C876.63 279.239 873.814 278.656 871.358 277.222C868.916 275.818 866.885 273.483 865.263 270.218C864.351 268.381 864.16 266.313 864.691 264.015C865.236 261.745 866.558 260.089 868.657 259.047C870.261 258.251 871.797 258.124 873.266 258.667C874.778 259.224 875.875 260.188 876.555 261.558C876.917 262.287 877.096 263.161 877.094 264.18C877.12 265.185 876.57 266.639 875.444 268.543C874.083 270.854 873.657 272.519 874.163 273.54C875.625 276.485 881.226 275.539 890.964 270.704L897.459 267.207L912.833 259.082C915.632 257.62 917.594 256.155 918.719 254.688C919.858 253.25 920.416 251.737 920.391 250.15C920.396 248.549 919.813 245.912 918.644 242.241L921.641 240.589L923.465 244.263L924.312 245.859L925.55 248.134L927.938 253.163C928.373 254.038 929.024 255.241 929.894 256.772L930.849 258.587C931.009 258.907 931.204 259.337 931.435 259.877L904.26 310.768L930.809 296.604C934.833 294.606 938.111 293.415 940.645 293.029C943.209 292.628 945.624 293.064 947.892 294.337C950.159 295.61 951.988 297.646 953.377 300.445C954.782 303.273 955.189 305.851 954.601 308.178C954.041 310.491 952.741 312.155 950.7 313.168C949.096 313.964 947.538 314.084 946.026 313.526C944.528 312.998 943.439 312.049 942.758 310.678C942.382 309.92 942.18 309.039 942.154 308.035C942.171 307.045 942.743 305.598 943.869 303.694C945.201 301.397 945.635 299.783 945.171 298.85C944.563 297.625 943.531 297.047 942.075 297.116C940.619 297.185 936.597 298.855 930.008 302.127C927.763 303.241 925.678 304.349 923.753 305.45C917.323 309.115 912.548 311.723 909.428 313.272L902.3 316.593L900.726 317.374L897.598 319.091L895.062 320.241L892.35 321.806C891.883 322.037 891.322 322.298 890.666 322.587ZM917.409 340.764C915.267 336.449 914.704 332.095 915.721 327.701C916.752 323.337 919.396 320.098 923.653 317.984C927.851 315.9 932.015 315.613 936.146 317.124C940.29 318.664 943.542 321.81 945.902 326.562C948.32 331.431 948.736 336.004 947.152 340.279C945.583 344.584 943.238 347.511 940.118 349.06C935.424 351.391 931.049 351.764 926.991 350.181C922.949 348.626 919.755 345.488 917.409 340.764ZM942.95 328.083C942.067 326.304 940.614 325.172 938.592 324.686C936.599 324.185 932.92 325.267 927.555 327.931C920.704 331.333 918.328 335.148 920.427 339.375C922.453 343.457 927.359 343.565 935.144 339.7C942.404 336.095 945.006 332.223 942.95 328.083ZM906.713 331.738L913.597 345.492L917.115 352.468C917.65 353.547 918.048 354.458 918.308 355.201C916.981 355.969 915.99 356.57 915.333 357.005L914.655 357.396L912.294 358.35C911.988 358.466 911.267 358.806 910.13 359.371L898.316 335.689L900.219 334.69C900.977 334.313 901.822 333.93 902.755 333.539L903.739 333.105L905.904 331.976C905.992 331.932 906.261 331.853 906.713 331.738Z" fill="black"/>
<path d="M977.182 368.838C977.226 368.995 977.562 370.05 978.188 372.004L978.57 373.52L979.369 376.491C978.403 376.903 977.685 377.175 977.216 377.309C977.059 377.354 976.569 377.477 975.747 377.678C975.3 377.772 973.616 378.22 970.696 379.02L963.58 380.952L959.134 382.274L927.349 391.001L924.673 391.766C923.734 392.034 923.124 392.446 922.842 393C922.561 393.555 922.552 394.827 922.816 396.816C922.936 397.594 923.115 399.168 923.352 401.538C923.057 401.69 922.769 401.806 922.487 401.887C922.143 401.985 921.383 402.169 920.207 402.437L919.63 400.418C919.236 399.041 918.727 397.02 918.1 394.355C917.738 392.732 917.472 391.623 917.302 391.029C917.087 390.277 916.218 387.53 914.693 382.786C914.509 382.263 914.368 381.829 914.27 381.485L914.029 380.639L913.733 379.251L913.277 378.01L912.7 375.636C912.611 375.323 912.381 374.695 912.009 373.751C912.68 373.492 913.203 373.309 913.579 373.201C913.923 373.103 914.448 372.987 915.155 372.852C915.857 374.006 916.617 375.363 917.436 376.924C918.558 379.074 919.41 380.337 919.991 380.713C920.613 381.111 921.299 381.202 922.05 380.988L925.229 380.029L928.757 379.223L935.88 377.137L937.698 376.567C937.948 376.495 938.896 376.258 940.541 375.856C941.404 375.677 942.164 375.494 942.822 375.306C943.229 375.19 944.483 374.78 946.584 374.078L949.314 373.501C951.313 372.795 952.5 372.388 952.875 372.28C953.345 372.146 953.819 372.028 954.297 371.925L955.498 371.683L958.65 370.63L960.146 370.355C960.812 370.199 961.693 369.964 962.788 369.651C963.852 369.347 965.147 368.96 966.672 368.49C964.378 366.742 961.994 364.681 959.522 362.307C959.244 362.047 958.2 360.822 956.389 358.631C957.605 357.2 958.549 356.237 959.219 355.74C961.889 358.566 963.801 360.458 964.954 361.414C966.895 362.993 969.225 364.629 971.943 366.324C973.128 367.034 974.874 367.873 977.182 368.838Z" fill="black"/>
<path d="M921.407 582.263L924.496 583.488C923.656 587.503 923.593 590.22 924.307 591.639C924.811 592.572 926.552 593.761 929.531 595.206L945.748 601.497L962.21 607.975C963.204 608.389 963.808 608.632 964.024 608.707C968.361 610.21 970.958 610.817 971.816 610.528C972.663 610.271 974.006 608.531 975.846 605.31C976.329 604.513 976.717 603.889 977.011 603.44C977.801 603.645 978.457 603.838 978.98 604.019L980.411 604.515C980.108 605.685 979.691 607.039 979.158 608.577L974.013 621.935C973.876 622.232 973.696 622.652 973.473 623.195L972.646 625.285C971.849 625.595 970.853 625.835 969.657 626.007C967.017 626.367 963.204 626.734 958.217 627.107L956.795 627.183L938.661 628.961C938.239 628.987 937.615 629.047 936.791 629.14C935.523 629.218 934.297 629.327 933.111 629.467C931.957 629.619 930.689 629.748 929.308 629.855C927.917 629.993 926.675 630.148 925.581 630.321C926.17 631.007 926.841 631.705 927.595 632.414C929.998 634.624 932.182 636.724 934.145 638.714C937.625 642.193 943.069 647.163 950.477 653.622C951.669 654.656 953.431 656.282 955.762 658.502C958.114 660.764 959.345 661.983 959.456 662.159C959.606 662.521 959.538 663.118 959.25 663.948C959.143 664.256 958.994 664.738 958.801 665.394C958.339 667.026 957.749 668.975 957.033 671.242C955.945 674.482 955.142 677.097 954.624 679.089C954.127 681.121 953.835 682.26 953.75 682.506C953.644 682.814 953.485 683.172 953.274 683.582C952.833 683.463 952.489 683.361 952.243 683.276L950.891 682.704C950.614 682.608 950.204 682.449 949.661 682.227C950.233 679.186 950.402 676.609 950.169 674.496C949.991 673.022 949.441 672.125 948.518 671.805L947.826 671.565L933.436 667.458C932.112 667.103 925.614 665.127 913.941 661.531C911.325 660.728 907.98 659.793 903.906 658.725C903.393 658.616 902.997 658.514 902.721 658.418C901.972 658.193 901.442 658.182 901.13 658.384C900.809 658.617 898.957 661.076 895.577 665.762C895.074 665.622 894.7 665.509 894.454 665.424C893.808 665.2 893.167 664.961 892.532 664.706C892.82 663.876 893.714 661.843 895.214 658.608C896.744 655.383 898.016 652.309 899.028 649.387C900.573 644.928 901.892 640.527 902.982 636.185C903.113 635.61 903.253 635.056 903.404 634.522L906.555 635.717C906.61 637.149 906.445 638.969 906.058 641.178C905.793 642.74 905.883 643.822 906.329 644.424C906.775 645.026 908.336 645.791 911.012 646.718C912.027 647.07 912.924 647.364 913.704 647.599C916.987 648.564 921.509 650.028 927.272 651.99L943.83 656.849C946.169 657.556 947.805 658.002 948.74 658.188L926.33 637.556C925.811 637.066 925.063 636.342 924.086 635.383C922.823 634.154 921.958 633.32 921.49 632.882C916.62 628.542 912.838 625.389 910.143 623.422C909.46 622.909 908.588 622.194 907.528 621.275L908.805 617.739L916.727 617.693C918.829 617.594 922.065 617.303 926.435 616.819C928.981 616.53 931.032 616.328 932.588 616.212C933.238 616.127 933.722 616.071 934.042 616.044L935.387 615.89C935.582 615.923 935.752 615.93 935.896 615.911L953.088 614.168L963.54 613.087L941.845 605.157L927.792 599.926C925.455 599.116 923.629 598.966 922.316 599.476C921.022 600.027 919.521 601.625 917.812 604.271L916.491 606.294L913.123 605.127C913.772 603.354 914.561 601.474 915.49 599.488C916.44 597.543 917.501 594.879 918.673 591.496C918.918 590.788 919.829 587.711 921.407 582.263Z" fill="black"/>
<path d="M917.203 686.268C920.692 688.297 923.803 691.009 926.535 694.405C928.495 696.863 930.015 699.591 931.095 702.591C932.175 705.592 932.753 708.903 932.831 712.525C932.937 716.164 932.532 719.581 931.616 722.776C930.727 725.987 929.285 729.31 927.289 732.743C923.886 738.596 919.835 743.037 915.136 746.067C910.438 749.096 905.498 750.761 900.315 751.061C893.581 751.439 887.541 750.073 882.194 746.964C874.23 742.334 868.985 735.65 866.458 726.914C863.915 718.206 865.45 709.025 871.062 699.373C872.453 696.981 873.909 694.834 875.429 692.931C876.57 691.486 877.682 690.287 878.763 689.334C880.71 687.605 881.813 686.646 882.073 686.458C885.601 684.405 888.82 682.982 891.729 682.188C894.638 681.394 897.623 681.021 900.683 681.068C902.386 681.117 905.189 681.673 909.089 682.736C911.599 683.405 914.304 684.582 917.203 686.268ZM924.043 728.709C925.466 726.261 926.149 723.758 926.092 721.202C926.062 718.662 925.636 716.513 924.814 714.754C923.411 711.792 921.512 709.164 919.119 706.868C916.754 704.589 913.588 702.297 909.62 699.989C907.2 698.582 905.412 697.675 904.256 697.266C903.885 697.126 903.259 696.875 902.378 696.513C900.148 695.556 898.457 694.968 897.304 694.749C893.026 693.881 890.318 693.455 889.179 693.471C887.253 693.48 885.104 693.906 882.732 694.749C881.509 695.167 880.122 695.999 878.57 697.243C877.047 698.503 875.818 699.936 874.886 701.54C873.119 704.579 872.186 707.802 872.088 711.209C872.001 714.661 873.202 718.164 875.691 721.72C878.18 725.276 882.154 728.641 887.613 731.815C889.865 733.124 893.008 734.744 897.043 736.677L897.968 736.932C898.242 736.978 898.901 737.173 899.944 737.516C905.165 739.158 909.844 739.205 913.982 737.658C918.104 736.138 921.458 733.155 924.043 728.709Z" fill="black"/>
<path d="M847.712 766.25C849.571 790.786 851.063 807.075 852.188 815.118C854.008 816.696 855.106 817.541 855.483 817.653C855.885 817.786 856.544 817.647 857.461 817.236C858.403 816.846 859.971 815.857 862.166 814.271C863.219 813.504 863.935 813.026 864.314 812.837C865.181 813.676 865.797 814.382 866.16 814.956L865.302 816.021C863.51 818.087 862.279 819.432 861.608 820.056C859.677 821.786 857.869 823.622 856.184 825.564C853.454 828.712 851.094 831.707 849.103 834.548C848.37 835.592 847.758 836.397 847.267 836.963C846.798 837.504 846.089 838.246 845.141 839.191C844.179 838.313 843.359 837.494 842.682 836.735C844.523 833.419 845.643 831.159 846.042 829.954C846.445 828.795 846.191 827.82 845.281 827.031L839.932 822.392L831.711 815.327L827.091 811.19L820.355 805.542L815.117 800.999L810.701 797.297C809.84 796.551 808.878 795.673 807.814 794.664C807.218 795.053 806.679 795.425 806.197 795.783C803.7 797.668 801.682 798.976 800.142 799.709L797.464 797.58L798.803 795.962C799.165 795.544 799.606 795.086 800.124 794.587L802.671 791.949C804.641 790.124 807.546 786.999 811.385 782.572C813.348 780.31 814.777 778.512 815.675 777.179C816.847 775.481 817.571 774.472 817.848 774.152C818.083 773.882 818.487 773.564 819.061 773.201C820.22 774.249 820.966 775.004 821.299 775.465L819.714 778.485L818.724 780.147C817.626 781.91 816.961 783.099 816.728 783.716C818.27 785.614 822.484 789.549 829.37 795.521L840.283 804.922L847.08 810.947L842.88 762.059C840.105 759.695 838.634 758.484 838.468 758.426C838.168 758.425 837.672 758.748 836.98 759.397L834.531 761.475C832.304 763.249 830.997 764.184 830.612 764.28C829.982 763.864 829.569 763.57 829.372 763.399C829.053 763.122 828.653 762.689 828.172 762.1L830.119 759.781C830.929 758.847 832.144 757.595 833.764 756.026L836.2 753.292L837.942 751.506L840.964 748.246C841.903 747.164 842.97 745.784 844.166 744.107C845.384 742.405 847.134 740.238 849.416 737.607C850.178 738.268 850.987 739.099 851.843 740.1C851.7 740.364 851.326 740.944 850.72 741.841L849.64 743.683C848.566 745.467 847.848 746.891 847.486 747.955C851.92 752.232 855.871 755.875 859.338 758.882L864.244 763.137L876.616 774.061C880.378 777.325 883.729 779.994 886.669 782.07C886.838 782.173 887.171 782.311 887.668 782.483C887.869 782.4 888.111 782.221 888.391 781.947C888.608 781.747 888.847 781.546 889.11 781.343C890.287 780.382 891.296 779.468 892.134 778.601L892.761 778.176C893.432 777.551 893.968 777.132 894.368 776.919C895.145 777.464 895.632 777.822 895.829 777.992C896.124 778.248 896.466 778.674 896.854 779.269C896.508 779.917 896.068 780.548 895.535 781.163C893.978 782.958 892.054 784.952 889.764 787.146C887.691 789.139 886.035 790.849 884.798 792.275C883.07 794.267 881.568 796.174 880.289 797.995C878.719 800.253 877.774 801.566 877.454 801.935C877.049 802.402 876.475 802.939 875.734 803.546L874.595 802.623C874.202 802.282 873.765 801.816 873.285 801.228L877.883 793.84C878.153 793.428 877.767 792.706 876.725 791.672C875.682 790.638 874.399 789.46 872.874 788.138L871.108 786.671L867.82 783.755L865.87 782.128L863.458 779.842C863.138 779.565 862.539 779.088 861.66 778.412C860.511 777.502 859.396 776.577 858.313 775.639C857.428 774.871 856.564 774.078 855.722 773.261L853.9 771.487L847.712 766.25ZM890.399 805.342C891.432 806.238 891.996 807.352 892.09 808.683C892.164 810.04 891.742 811.246 890.825 812.304C890.057 813.189 889.183 813.724 888.204 813.909C887.225 814.094 885.447 813.909 882.869 813.354C879.378 812.609 876.95 813.024 875.585 814.598C874.219 816.172 874.163 818.622 875.414 821.948C876.214 824.107 876.63 825.739 876.662 826.844C876.698 827.995 876.289 829.063 875.436 830.046C874.54 831.079 873.425 831.62 872.09 831.669C870.78 831.739 869.62 831.336 868.612 830.462C866.62 828.734 866.151 826.195 867.205 822.843C868.284 819.513 870.295 816.151 873.238 812.757C876.438 809.069 879.611 806.478 882.759 804.985C885.885 803.517 888.432 803.636 890.399 805.342Z" fill="black"/>
<path d="M771.892 820.152L773.624 822.989C770.538 825.692 768.854 827.825 768.572 829.389C768.413 830.437 769.09 832.434 770.601 835.38L779.775 850.158L789.033 865.233C789.578 866.161 789.914 866.719 790.042 866.908C792.603 870.717 794.313 872.764 795.172 873.049C796.004 873.353 798.124 872.771 801.53 871.303C802.396 870.956 803.081 870.692 803.585 870.509C804.094 871.148 804.502 871.697 804.811 872.156L805.656 873.412C804.711 874.166 803.563 874.996 802.213 875.905L790.069 883.484C789.781 883.639 789.384 883.866 788.88 884.166L786.962 885.339C786.139 885.107 785.199 884.701 784.14 884.118C781.814 882.818 778.547 880.819 774.338 878.118L773.156 877.324L757.597 867.84C757.244 867.607 756.71 867.28 755.995 866.858C754.936 866.158 753.891 865.508 752.859 864.908C751.845 864.334 750.755 863.675 749.587 862.93C748.392 862.204 747.306 861.581 746.329 861.061C746.387 861.964 746.504 862.925 746.68 863.944C747.271 867.156 747.752 870.147 748.125 872.917C748.813 877.79 750.174 885.034 752.209 894.65C752.54 896.192 752.97 898.551 753.498 901.727C754.016 904.948 754.267 906.663 754.25 906.87C754.152 907.25 753.739 907.685 753.009 908.176C752.739 908.357 752.33 908.652 751.781 909.061C750.431 910.087 748.788 911.29 746.852 912.67C744.034 914.604 741.82 916.212 740.209 917.491C738.59 918.816 737.672 919.551 737.456 919.696C737.185 919.878 736.843 920.069 736.429 920.269C736.147 919.909 735.934 919.621 735.789 919.405L735.052 918.135C734.889 917.892 734.657 917.518 734.357 917.014C736.642 914.928 738.326 912.971 739.411 911.143C740.155 909.858 740.255 908.81 739.71 908L739.301 907.392L730.273 895.458C729.429 894.378 725.425 888.891 718.261 878.998C716.654 876.784 714.544 874.025 711.93 870.723C711.585 870.327 711.331 870.007 711.168 869.764C710.705 869.134 710.288 868.806 709.918 868.781C709.52 868.773 706.563 869.625 701.044 871.336C700.727 870.922 700.495 870.607 700.35 870.391C699.968 869.824 699.6 869.248 699.246 868.662C699.975 868.172 701.912 867.085 705.056 865.402C708.218 863.745 711.082 862.054 713.648 860.329C717.564 857.694 721.264 854.971 724.746 852.157C725.196 851.776 725.642 851.418 726.083 851.082L727.882 853.932C727.065 855.109 725.838 856.464 724.202 857.997C723.05 859.085 722.472 860.003 722.466 860.753C722.46 861.502 723.247 863.052 724.828 865.402C725.427 866.293 725.968 867.067 726.449 867.724C728.492 870.47 731.225 874.359 734.649 879.392L744.958 893.23C746.402 895.202 747.441 896.543 748.076 897.253L742.576 867.293C742.456 866.589 742.294 865.56 742.09 864.207C741.821 862.466 741.631 861.279 741.52 860.648C740.239 854.252 739.113 849.458 738.143 846.266C737.905 845.445 737.639 844.349 737.344 842.978L740.491 840.92L746.848 845.648C748.587 846.832 751.347 848.545 755.13 850.787C757.339 852.087 759.099 853.159 760.412 854.002C760.982 854.325 761.403 854.571 761.674 854.742L762.842 855.427C762.978 855.571 763.109 855.679 763.236 855.751L778.02 864.696L787.021 870.117L774.455 850.735L766.373 838.105C764.992 836.053 763.624 834.835 762.268 834.452C760.903 834.115 758.743 834.489 755.786 835.576L753.514 836.398L751.525 833.44C753.109 832.413 754.87 831.386 756.807 830.358C758.735 829.375 761.185 827.884 764.156 825.886C764.777 825.468 767.356 823.557 771.892 820.152Z" fill="black"/>
<path d="M720.505 927.687C718.764 928.334 717.227 928.84 715.895 929.204C713.392 929.897 710.588 930.916 707.481 932.261C706.406 932.726 703.681 934.012 699.308 936.118C692.762 939.271 686.801 942.011 681.424 944.339L673.352 947.939C671.53 948.728 668.744 949.668 664.995 950.759C664.199 950.394 663.581 949.704 663.141 948.688L659.145 939.457L658.261 937.659C658.183 937.48 658.081 937.204 657.956 936.833L659.755 935.948C659.994 935.844 660.514 935.655 661.317 935.378C661.844 935.859 662.584 936.585 663.537 937.556L666.706 939.962C667.975 941.009 669.526 941.969 671.359 942.843C672.196 942.729 673.204 942.434 674.382 941.96C674.694 941.861 675.637 941.541 677.212 941.001C680.094 940.037 683.133 938.863 686.329 937.48C689.974 935.902 693.204 934.433 696.02 933.072C695.787 932.286 694.558 929.324 692.333 924.186L688.985 916.697L686.541 911.051C685.755 911.284 685.094 911.518 684.556 911.75C679.209 914.065 675.445 915.819 673.265 917.011C671.085 918.202 669.804 919.094 669.422 919.685C669.052 920.306 668.859 921.171 668.841 922.278C668.857 923.051 669.285 925.473 670.124 929.544L669.561 929.841L666.943 930.921C665.672 928.314 664.74 926.323 664.145 924.949C662.787 921.812 661.944 919.783 661.616 918.861C661.258 917.952 660.969 917.243 660.749 916.736C660.4 915.929 659.792 914.649 658.927 912.895C658.074 911.172 657.461 909.876 657.086 909.01L656.659 908.024L659.84 906.647C660.167 907.073 660.817 907.962 661.793 909.314C663.593 911.833 664.881 913.333 665.656 913.813C666.247 914.196 667.019 914.34 667.972 914.247C668.66 914.198 670.916 913.345 674.74 911.69C679.251 909.737 682.589 908.15 684.756 906.928C684.45 906.139 684.245 905.624 684.142 905.385C682.603 901.83 681.263 898.899 680.122 896.591L676.021 886.873C675.53 885.738 674.791 885.136 673.803 885.067C672.307 884.969 668.422 886.279 662.148 888.994C657.996 890.792 654.607 892.631 651.981 894.513C650.173 895.828 648.844 897.591 647.993 899.804C646.828 902.685 646.355 906.224 646.576 910.42C645.689 910.911 644.946 911.286 644.349 911.544C644.02 911.686 643.521 911.885 642.851 912.14C642.617 911.354 642.42 910.694 642.26 910.16L641.947 908.7L639.939 899.513L638.534 894.056C640.437 893.125 641.956 892.415 643.091 891.923C644.764 891.199 649.295 889.415 656.683 886.571C661.882 884.569 668.081 882.01 675.281 878.893C678.866 877.341 683.207 875.285 688.306 872.723L690.188 871.908L695.532 869.382L696.87 872.474C696.368 872.869 695.304 873.525 693.678 874.441C690.727 876.144 688.783 877.553 687.846 878.668C687.893 879.677 688.201 880.838 688.77 882.153C688.989 882.66 689.379 883.52 689.939 884.732L690.496 886.141L697.943 902.976L700.09 908.059L703.418 915.131L705.565 920.214L708.374 925.596C708.438 925.745 708.598 926.031 708.851 926.453C709.292 926.653 709.831 926.668 710.467 926.499C710.822 926.416 711.309 926.312 711.928 926.186C713.786 925.807 715.519 925.305 717.128 924.679C717.709 924.463 718.392 924.239 719.178 924.005L720.505 927.687Z" fill="black"/>
<path d="M586.094 956.774L588.01 956.183C588.451 956.07 588.995 955.965 589.642 955.866C590.079 956.393 590.696 957.226 591.492 958.367C593.135 960.063 594.219 961.214 594.743 961.819C596.949 963.741 598.166 964.757 598.396 964.867C598.625 964.976 599.406 964.877 600.739 964.57C601.78 964.303 603.278 963.987 605.234 963.621C608.452 963.067 611.827 962.338 615.359 961.434C616.779 961.071 618.174 960.681 619.545 960.263C620.316 959.73 620.298 957.886 619.492 954.733L615.247 938.531C611.945 939.678 609.017 940.578 606.462 941.232C601.353 942.539 597.109 943.154 593.729 943.078C590.35 943.001 587.418 942.441 584.933 941.396C582.425 940.392 580.384 938.982 578.811 937.166C577.246 935.383 576.161 933.308 575.556 930.943C574.096 925.235 575.28 920.077 579.107 915.469C582.943 910.893 588.377 907.705 595.41 905.906C596.703 905.575 598.907 905.129 602.023 904.567C604.145 904.193 606.719 903.618 609.747 902.844C611.071 902.505 613.534 901.757 617.136 900.601L628.097 897.343L628.97 901.152C628.388 901.502 627.518 901.91 626.36 902.374C624.17 903.27 622.603 904.108 621.66 904.887C621.025 905.822 621.458 909.222 622.959 915.088L629.744 941.022L632.725 951.297C633.554 954.143 634.221 955.703 634.728 955.976C635.203 956.258 636.257 956.24 637.89 955.923C638.56 955.785 640.15 955.564 642.659 955.258L643.66 958.58L639.001 959.873L621.698 964.147L621.663 964.207L601.253 969.73C597.941 970.577 594.475 971.212 590.853 971.634C590.148 971.243 589.647 970.464 589.348 969.298L586.094 956.774ZM606.961 908.898C604.725 908.563 602.708 908.626 600.911 909.085C590.693 911.699 586.713 917.421 588.972 926.251C591.36 935.586 597.71 938.935 608.022 936.297C610.797 935.587 612.807 934.905 614.051 934.251C613.807 933.036 613.597 932.082 613.419 931.388L612.563 928.432L610.819 921.419L608.184 911.71L607.991 910.953C607.821 910.291 607.478 909.606 606.961 908.898Z" fill="black"/>
<path d="M569.14 976.8C567.283 976.874 565.665 976.876 564.286 976.808C561.692 976.688 558.71 976.785 555.339 977.097C554.172 977.205 551.183 977.58 546.371 978.221C539.17 979.182 532.652 979.933 526.818 980.473L518.026 981.385C516.049 981.568 513.109 981.595 509.207 981.466C508.564 980.872 508.191 980.023 508.089 978.921L507.162 968.906L506.88 966.921C506.862 966.727 506.851 966.433 506.848 966.041L508.832 965.76C509.091 965.736 509.645 965.717 510.494 965.704C510.846 966.325 511.323 967.245 511.926 968.464L514.191 971.736C515.071 973.126 516.247 974.521 517.717 975.921C518.548 976.073 519.597 976.107 520.864 976.022C521.192 976.025 522.188 976.014 523.853 975.991C526.891 975.971 530.145 975.801 533.613 975.479C537.567 975.113 541.094 974.721 544.194 974.304C544.216 973.484 543.969 970.287 543.453 964.712L542.6 956.553L542.032 950.427C541.213 950.404 540.512 950.42 539.928 950.474C534.126 951.012 530.004 951.508 527.562 951.963C525.119 952.418 523.624 952.866 523.077 953.309C522.532 953.785 522.08 954.546 521.719 955.593C521.493 956.333 521.147 958.768 520.679 962.898L520.052 963.005L517.227 963.217C516.83 960.344 516.563 958.162 516.425 956.671C516.11 953.268 515.94 951.077 515.914 950.099C515.857 949.123 515.803 948.36 515.752 947.809C515.671 946.934 515.491 945.528 515.214 943.593C514.94 941.689 514.759 940.267 514.672 939.327L514.573 938.258L518.025 937.938C518.203 938.445 518.545 939.492 519.051 941.08C519.979 944.034 520.736 945.86 521.324 946.558C521.767 947.105 522.456 947.483 523.39 947.69C524.06 947.857 526.469 947.749 530.618 947.364C535.512 946.911 539.179 946.441 541.618 945.954C541.573 945.108 541.538 944.555 541.514 944.296C541.157 940.439 540.795 937.236 540.428 934.687L539.553 924.176C539.439 922.945 538.924 922.142 538.006 921.77C536.614 921.212 532.515 921.248 525.708 921.878C521.203 922.295 517.409 922.99 514.328 923.962C512.202 924.649 510.39 925.912 508.893 927.75C506.89 930.126 505.34 933.343 504.245 937.4C503.249 937.59 502.427 937.715 501.779 937.775C501.422 937.808 500.886 937.841 500.17 937.875C500.192 937.056 500.21 936.367 500.224 935.81L500.381 934.325L501.329 924.969L501.691 919.345C503.789 919.053 505.453 918.85 506.685 918.736C508.5 918.568 513.361 918.281 521.268 917.876C526.831 917.59 533.519 917.085 541.331 916.362C545.22 916.002 549.986 915.397 555.629 914.548L557.671 914.359L563.536 913.62L563.846 916.974C563.245 917.194 562.03 917.486 560.201 917.851C556.866 918.552 554.58 919.287 553.343 920.055C553.074 921.028 553.005 922.228 553.137 923.654C553.188 924.205 553.291 925.144 553.447 926.47L553.538 927.981L555.381 946.298L555.841 951.796L556.804 959.553L557.264 965.052L558.26 971.04C558.275 971.202 558.337 971.523 558.447 972.003C558.804 972.33 559.311 972.512 559.969 972.549C560.331 972.581 560.826 972.633 561.454 972.706C563.338 972.924 565.141 972.986 566.865 972.891C567.484 972.867 568.203 972.866 569.023 972.888L569.14 976.8Z" fill="black"/>
<path d="M462.612 964.194L474.582 937.607C477.664 930.693 479.227 926.911 479.268 926.261C479.33 925.287 478.986 924.547 478.235 924.043C477.485 923.538 476.239 923.116 474.5 922.777C474.244 922.696 473.102 922.443 471.074 922.02L471.181 919.581C471.205 919.191 471.262 918.82 471.35 918.466C473.364 918.595 476.294 918.928 480.142 919.467L485.721 920.214L487.74 920.001C490.104 919.76 492.699 919.73 495.525 919.91L495.217 923.217C494.884 923.326 493.78 923.501 491.905 923.74C489.34 924.066 487.7 924.467 486.985 924.943C486.235 925.45 485.259 926.937 484.058 929.405C482.855 931.905 479.641 939.088 474.416 950.954L466.872 967.206L460.144 982.189L454.884 981.805C454.003 979.759 451.658 973.053 447.849 961.688L446.716 958.729C445.462 955.387 443.739 950.172 441.549 943.085L440.229 939.233C439.29 936.564 438.335 933.633 437.365 930.44C436.343 927.015 435.472 924.562 434.751 923.081C434.028 921.632 432.957 920.781 431.538 920.527C429.798 920.188 428.216 919.68 426.792 919.002C426.698 917.919 426.668 917.102 426.703 916.55L426.817 915.529C429.221 915.683 431.943 915.97 434.982 916.392C437.696 916.794 439.801 917.042 441.295 917.137C445.356 917.396 449.328 917.503 453.213 917.457L458.78 917.616C458.706 918.786 458.588 919.871 458.426 920.872C458.26 920.926 457.059 921.078 454.825 921.327C452.116 921.872 450.56 922.229 450.158 922.399C449.756 922.57 449.535 922.963 449.495 923.58C449.458 924.165 450.458 927.409 452.496 933.312L454.337 938.959C458.548 952.731 461.306 961.143 462.612 964.194Z" fill="black"/>
<path d="M394.435 945.21C390.907 944.734 387.728 944.185 384.898 943.563C375.901 941.584 369.636 938.473 366.103 934.23C362.57 929.987 361.338 925.433 362.408 920.569C363.673 914.814 367.052 910.741 372.544 908.349C378.03 905.989 384.317 905.589 391.407 907.148C392.71 907.435 394.879 908.028 397.914 908.929C399.978 909.55 402.535 910.195 405.587 910.867C406.923 911.16 409.459 911.601 413.196 912.19L424.449 914.215L423.515 918.009C422.837 918.06 421.877 918.032 420.634 917.925C418.275 917.74 416.499 917.782 415.306 918.053C414.318 918.603 413.175 921.834 411.874 927.748C409.406 938.97 407.353 948.684 405.715 956.89C404.039 965.12 403.346 969.484 403.636 969.981C403.888 970.503 404.909 971.011 406.701 971.505C407.393 971.691 408.912 972.208 411.259 973.058L410.657 976.475L408.501 976.051C405.957 975.491 402.546 974.558 398.268 973.25L394.325 972.083C393.403 971.881 391.955 971.645 389.98 971.378L387.114 970.998C385.249 970.687 383.941 970.5 383.189 970.434C382.041 970.348 380.799 970.159 379.464 969.865L379.637 968.853L380.089 967.253C380.162 967.069 380.241 966.786 380.325 966.405C385.392 966.553 388.284 966.439 389 966.063C389.684 965.68 390.284 964.312 390.802 961.959L391.278 959.565C391.474 958.374 391.791 956.778 392.232 954.775L394.435 945.21ZM400.375 915.02C398.529 913.714 396.7 912.862 394.887 912.463C384.587 910.198 378.457 913.516 376.5 922.418C374.43 931.829 378.594 937.677 388.99 939.963C391.787 940.578 393.889 940.874 395.294 940.85C395.623 939.656 395.865 938.709 396.019 938.009L396.584 934.984L398.184 927.937L400.201 918.081L400.369 917.318C400.516 916.651 400.518 915.884 400.375 915.02Z" fill="black"/>
<path d="M357.99 900.16C357.617 901.062 357.086 902.093 356.396 903.252L350.345 901.916C349.59 901.781 348.664 901.68 347.564 901.613L342.319 912.654C340.762 916.766 339.568 919.829 338.735 921.845L338.243 922.91C337.643 924.106 336.319 927.187 334.269 932.151L333.819 933.497L332.163 937.251L330.587 941.196L329.786 943.137C329.065 944.882 328.356 946.984 327.658 949.443C327.601 949.666 327.572 950.077 327.572 950.675C327.775 950.865 328.021 951.037 328.31 951.191C328.568 951.333 328.835 951.496 329.111 951.681C330.198 952.376 331.384 953.042 332.671 953.679L333.273 954.139C334.049 954.564 334.616 954.939 334.975 955.264C334.705 956.173 334.52 956.749 334.421 956.989C334.272 957.351 333.976 957.81 333.535 958.367C332.884 958.239 332.016 957.951 330.933 957.504C329.85 957.057 329.091 956.761 328.658 956.617C325.148 954.711 322.512 953.376 320.75 952.613C319.937 952.277 319.137 951.912 318.35 951.516C317.52 951.138 316.789 950.819 316.157 950.558C315.164 950.148 312.68 949.299 308.704 948.009C308.01 947.899 307.287 947.688 306.535 947.378C305.422 946.918 304.514 946.473 303.811 946.042C304.042 945.398 304.213 944.94 304.325 944.669C304.524 944.188 304.826 943.626 305.232 942.984L313.697 945C314.484 944.972 314.995 944.672 315.231 944.101L315.785 942.375L316.038 941.634L316.903 939.667L317.627 938.17L317.776 937.809C317.882 937.465 317.985 937.173 318.085 936.933L320.496 931.219C320.69 930.665 320.843 930.253 320.954 929.982C321.016 929.832 321.245 929.363 321.641 928.575C321.87 928.106 322.09 927.616 322.301 927.104C322.487 926.653 322.883 925.566 323.489 923.844C322.708 923.346 322.038 922.964 321.479 922.697L314.855 919.804L311.606 918.463L303.501 915.063L295.509 912.028C294.486 911.606 293.36 911.264 292.129 911.002C291.647 912.001 290.564 914.494 288.882 918.484L287.953 920.477L285.056 928.262L284.068 931.551C284.071 931.799 284.201 932.082 284.457 932.399C285.262 933.436 287.089 934.982 289.937 937.039C290.459 937.395 290.939 937.769 291.376 938.161C290.881 939.189 290.406 939.997 289.953 940.584C289.278 940.341 288.866 940.188 288.715 940.126L284.356 938.274C281.707 936.757 278.938 935.403 276.05 934.21C275.388 933.937 274.855 933.735 274.451 933.603L268.51 931.361C267.956 931.168 267.417 930.981 266.893 930.799C265.71 930.593 264.547 930.254 263.404 929.782C262.531 929.421 261.497 928.941 260.3 928.342C260.815 927.181 261.331 926.144 261.849 925.231C264.853 925.802 266.848 926.132 267.832 926.222C268.774 926.329 269.774 926.337 270.833 926.246L271.476 925.455L271.793 924.688L272.233 923.495L272.52 922.927C272.841 922.32 273.07 921.851 273.207 921.52L273.672 920.392C274.201 919.026 274.497 918.267 274.559 918.117L276.925 912.385L278.669 908.034L281.126 902.339C281.703 901.028 282.776 898.301 284.345 894.159L286.991 887.75L289.099 882.387C289.509 881.395 290.036 880.203 290.68 878.814C290.123 878.373 289.598 877.98 289.106 877.636C286.527 875.867 284.645 874.368 283.462 873.14L284.631 869.924C285.847 870.391 286.56 870.668 286.77 870.755C288.215 871.351 289.832 872.125 291.623 873.076C293.979 874.365 297.895 876.14 303.371 878.401C305.838 879.42 309.108 880.541 313.181 881.765C313.602 881.939 314.076 882.24 314.604 882.669C314.002 884.041 313.523 884.988 313.167 885.51L309.356 884.887L305.458 883.965C305.06 883.906 304.538 883.849 303.891 883.793C302.554 886.094 300.703 890.066 298.337 895.71L296.708 899.528C296.23 901.197 295.532 903.145 294.612 905.372C295.688 905.921 296.867 906.479 298.149 907.043L318.997 915.915L319.385 916.127L319.682 916.303C319.892 916.39 320.139 916.474 320.423 916.556C321.217 916.849 321.885 917.107 322.427 917.331L323.691 917.853C324.262 918.089 324.953 918.25 325.762 918.338L327.34 915.027L327.582 914.441C327.857 913.604 328.045 913.065 328.144 912.824L333.921 898.833C334.244 898.05 334.528 897.234 334.773 896.385L334.433 895.928L328.227 892.15C327.946 891.893 327.721 891.713 327.553 891.608C327.199 891.356 326.924 891.084 326.728 890.792C326.924 890.063 327.071 889.578 327.17 889.337C327.332 888.946 327.616 888.429 328.022 887.787C329.117 888.204 330.041 888.568 330.793 888.878C331.455 889.151 332.066 889.421 332.625 889.687C332.896 889.799 333.146 889.92 333.374 890.049L339.626 892.947C341.068 893.719 343.143 894.664 345.851 895.782L346.818 896.128C348.106 896.59 348.862 896.849 349.085 896.906C351.05 897.435 354.018 898.52 357.99 900.16Z" fill="black"/>
<path d="M238.769 883.681C235.68 881.911 232.942 880.205 230.555 878.562C222.966 873.34 218.335 868.098 216.66 862.836C214.986 857.575 215.561 852.893 218.384 848.79C221.724 843.936 226.388 841.436 232.377 841.289C238.347 841.169 244.322 843.167 250.302 847.282C251.402 848.038 253.187 849.406 255.659 851.383C257.337 852.735 259.463 854.297 262.037 856.068C263.164 856.844 265.347 858.207 268.587 860.16L278.248 866.275L275.953 869.438C275.306 869.23 274.427 868.842 273.316 868.275C271.201 867.215 269.539 866.585 268.332 866.387C267.211 866.524 264.934 869.086 261.501 874.074C254.987 883.54 249.426 891.765 244.818 898.749C240.164 905.742 237.878 909.523 237.96 910.093C237.997 910.672 238.752 911.527 240.225 912.659C240.796 913.092 242.009 914.144 243.863 915.814L242.018 918.753L240.18 917.548C238.035 916.072 235.227 913.922 231.756 911.099L228.543 908.532C227.765 907.997 226.513 907.234 224.784 906.242L222.273 904.81C220.662 903.821 219.521 903.154 218.849 902.81C217.818 902.298 216.739 901.655 215.613 900.879L216.154 900.007L217.175 898.695C217.313 898.552 217.493 898.32 217.714 897.998C222.352 900.044 225.073 901.028 225.878 900.949C226.656 900.852 227.728 899.812 229.093 897.827L230.437 895.788C231.066 894.759 231.962 893.4 233.125 891.711L238.769 883.681ZM255.644 857.952C254.426 856.047 253.053 854.568 251.524 853.517C242.836 847.538 235.908 848.303 230.741 855.811C225.279 863.749 226.932 870.735 235.701 876.769C238.061 878.393 239.896 879.458 241.207 879.965C241.962 878.983 242.542 878.197 242.948 877.607L244.612 875.017L248.749 869.092L254.33 860.723L254.773 860.079C255.16 859.516 255.451 858.807 255.644 857.952ZM225.856 830.696L223.863 833.593C223.216 833.384 222.174 833.003 220.737 832.45C218.699 831.679 217.094 831.227 215.922 831.092C214.867 831.591 213.832 832.578 212.817 834.053L209.591 838.827L203.2 847.943L201.746 850.143C197.904 855.323 195.928 857.994 195.817 858.155L192.216 863.56L190.601 865.649L187.647 870.373L186.497 872.131C186.339 872.417 186.137 872.911 185.892 873.612C186.641 874.878 188.203 876.427 190.578 878.258C191.149 878.691 191.591 879.054 191.903 879.348L189.588 882.971L178.416 874.572C177.031 873.54 176.165 872.904 175.816 872.664C174.234 871.575 171.626 869.939 167.992 867.755C165.942 866.542 164.653 865.773 164.125 865.449C164.449 864.921 164.731 864.483 164.971 864.134C165.285 863.679 165.717 863.107 166.269 862.42C167.6 862.783 169.083 863.269 170.717 863.88C172.306 864.5 173.663 864.94 174.788 865.2C175.429 864.613 176.201 863.663 177.106 862.349C177.899 861.196 178.505 860.23 178.922 859.45C182.122 854.974 184.561 851.515 186.24 849.075L193.507 838.428L197.337 833.121L202.792 825.021L203.884 823.52C204.032 823.305 204.191 822.96 204.36 822.484C202.964 821.01 201.642 819.744 200.394 818.688C200.171 818.495 199.427 817.825 198.161 816.677C198.608 815.799 199.015 815.092 199.384 814.555C199.587 814.26 199.914 813.814 200.366 813.215C200.714 813.455 200.992 813.626 201.198 813.729C202.093 814.266 202.607 814.58 202.742 814.672C202.929 814.802 203.25 815.082 203.704 815.513C204.043 815.825 205.697 817.24 208.667 819.757L215.731 824.737C217.152 825.715 219.309 827.002 222.202 828.598C224.083 829.655 225.301 830.354 225.856 830.696Z" fill="black"/>
<path d="M168.109 804.055C143.509 803.47 127.152 803.337 119.038 803.659C117.286 805.313 116.337 806.322 116.188 806.686C116.016 807.073 116.089 807.743 116.407 808.696C116.702 809.671 117.53 811.33 118.89 813.671C119.549 814.796 119.954 815.555 120.104 815.951C119.183 816.731 118.419 817.273 117.812 817.578L116.838 816.618C114.96 814.63 113.744 813.272 113.189 812.542C111.66 810.449 110.012 808.468 108.246 806.598C105.385 803.569 102.64 800.924 100.01 798.661C99.0434 797.828 98.3032 797.139 97.7891 796.594C97.2973 796.074 96.6287 795.295 95.7832 794.258C96.7521 793.387 97.6481 792.653 98.471 792.054C101.587 794.216 103.725 795.555 104.885 796.071C105.998 796.587 106.993 796.431 107.869 795.604L113.016 790.742L120.862 783.263L125.437 779.076L131.726 772.934L136.766 768.173L140.888 764.145C141.716 763.363 142.685 762.492 143.794 761.534C143.467 760.903 143.149 760.329 142.842 759.814C141.214 757.143 140.112 755.004 139.536 753.399L141.92 750.945L143.397 752.438C143.777 752.84 144.19 753.324 144.634 753.89L147.007 756.686C148.627 758.828 151.448 762.028 155.472 766.288C157.528 768.465 159.175 770.066 160.413 771.091C161.986 772.426 162.919 773.247 163.209 773.554C163.455 773.815 163.731 774.248 164.036 774.856C162.877 775.905 162.053 776.572 161.561 776.858L158.713 774.981L157.157 773.831C155.512 772.564 154.394 771.783 153.804 771.49C151.762 772.837 147.428 776.639 140.802 782.898L130.365 792.825L123.695 798.99L172.759 799.663C175.387 797.136 176.737 795.792 176.811 795.633C176.843 795.335 176.57 794.809 175.992 794.056L174.168 791.413C172.624 789.02 171.823 787.628 171.766 787.234C172.243 786.649 172.576 786.267 172.765 786.089C173.073 785.798 173.544 785.443 174.177 785.023L176.292 787.191C177.141 788.09 178.266 789.423 179.666 791.19L182.146 793.886L183.749 795.796L186.694 799.127C187.677 800.168 188.944 801.367 190.494 802.724C192.067 804.104 194.049 806.061 196.441 808.593C195.707 809.286 194.8 810.008 193.72 810.76C193.471 810.592 192.931 810.162 192.098 809.471L190.373 808.213C188.704 806.968 187.358 806.112 186.335 805.645C181.639 809.633 177.623 813.203 174.286 816.355L169.565 820.814L157.467 832.041C153.847 835.461 150.858 838.53 148.501 841.25C148.381 841.407 148.211 841.725 147.99 842.202C148.053 842.411 148.207 842.669 148.451 842.975C148.629 843.211 148.806 843.469 148.982 843.75C149.821 845.018 150.63 846.111 151.41 847.032L151.771 847.698C152.326 848.428 152.689 849.002 152.862 849.422C152.243 850.141 151.838 850.59 151.649 850.769C151.365 851.037 150.907 851.335 150.276 851.662C149.666 851.254 149.082 850.753 148.523 850.162C146.891 848.434 145.098 846.322 143.143 843.826C141.365 841.564 139.828 839.747 138.531 838.375C136.721 836.458 134.972 834.773 133.287 833.321C131.196 831.534 129.983 830.463 129.648 830.108C129.223 829.659 128.746 829.035 128.216 828.237L129.247 827.196C129.626 826.838 130.132 826.449 130.766 826.03L137.661 831.338C138.044 831.649 138.801 831.336 139.933 830.401C141.065 829.467 142.364 828.306 143.831 826.92L145.466 825.309L148.694 822.327L150.507 820.548L153.021 818.374C153.329 818.084 153.862 817.535 154.622 816.727C155.642 815.674 156.673 814.656 157.714 813.672C158.566 812.868 159.44 812.086 160.337 811.329L162.283 809.692L168.109 804.055ZM124.973 842.652C123.979 843.591 122.815 844.041 121.48 844.003C120.124 843.941 118.965 843.402 118.003 842.384C117.199 841.532 116.753 840.61 116.666 839.617C116.579 838.625 116.94 836.873 117.748 834.363C118.835 830.963 118.664 828.506 117.233 826.992C115.802 825.477 113.37 825.177 109.936 826.093C107.709 826.674 106.044 826.926 104.941 826.849C103.791 826.77 102.77 826.257 101.876 825.311C100.937 824.317 100.51 823.153 100.594 821.82C100.654 820.509 101.169 819.395 102.139 818.479C104.056 816.668 106.63 816.454 109.86 817.835C113.067 819.239 116.213 821.574 119.298 824.84C122.651 828.389 124.914 831.804 126.087 835.084C127.237 838.341 126.866 840.863 124.973 842.652Z" fill="black"/>
<path d="M91.3336 661.725L93.9841 666.624L93.5881 667.693L66.0784 720.985L65.9236 721.662L88.8848 709.934C94.5702 707.111 99.0073 705.58 102.196 705.341C105.37 705.074 108.186 705.657 110.642 707.09C113.084 708.494 115.115 710.829 116.737 714.095C117.649 715.932 117.84 717.999 117.309 720.298C116.764 722.567 115.442 724.223 113.343 725.266C111.739 726.062 110.203 726.189 108.734 725.646C107.222 725.089 106.125 724.125 105.445 722.754C105.083 722.025 104.904 721.151 104.906 720.132C104.88 719.128 105.43 717.674 106.556 715.77C107.917 713.459 108.343 711.793 107.837 710.773C106.375 707.828 100.774 708.773 91.0364 713.608L84.5411 717.106L69.1673 725.23C66.3682 726.693 64.4061 728.158 63.281 729.625C62.1415 731.063 61.5841 732.575 61.6088 734.162C61.6044 735.763 62.1866 738.4 63.3556 742.072L60.3594 743.723L58.5353 740.049L57.6881 738.453L56.4498 736.179L54.0617 731.149C53.6274 730.275 52.9757 729.072 52.1065 727.541L51.1507 725.726C50.9915 725.405 50.7961 724.975 50.5647 724.436L77.7402 673.545L51.191 687.708C47.1675 689.706 43.8887 690.898 41.3545 691.284C38.7913 691.684 36.3759 691.248 34.1084 689.975C31.8409 688.703 30.0123 686.667 28.6226 683.868C27.2183 681.04 26.8106 678.462 27.3994 676.134C27.959 673.821 29.2593 672.158 31.3002 671.144C32.9038 670.348 34.4618 670.229 35.9743 670.786C37.4722 671.314 38.5614 672.264 39.2418 673.634C39.6182 674.392 39.8196 675.273 39.8459 676.278C39.8286 677.268 39.2568 678.715 38.1306 680.619C36.7994 682.915 36.3655 684.53 36.8287 685.463C37.4367 686.687 38.4687 687.265 39.9247 687.197C41.3807 687.128 45.4033 685.458 51.9925 682.186C54.2375 681.071 56.3223 679.963 58.247 678.862C64.6772 675.197 69.4522 672.59 72.5718 671.041L79.6998 667.72L81.2743 666.938L84.4017 665.222L86.9379 664.071L89.65 662.507C90.1165 662.275 90.6777 662.015 91.3336 661.725ZM64.5906 643.548C66.7332 647.863 67.2961 652.218 66.2794 656.611C65.2482 660.976 62.6042 664.215 58.3474 666.328C54.149 668.413 49.9847 668.7 45.8545 667.189C41.7098 665.649 38.4576 662.502 36.0979 657.75C33.6803 652.881 33.2636 648.309 34.8477 644.033C36.4174 639.728 38.762 636.802 41.8817 635.253C46.5758 632.922 50.9515 632.548 55.0087 634.132C59.0514 635.686 62.2454 638.825 64.5906 643.548ZM39.0501 656.23C39.9332 658.008 41.3858 659.14 43.408 659.627C45.401 660.127 49.0798 659.045 54.4445 656.382C61.2961 652.98 63.6724 649.165 61.5733 644.937C59.5466 640.855 54.6409 640.747 46.8563 644.612C39.5965 648.217 36.9944 652.09 39.0501 656.23ZM75.2873 652.575L68.4034 638.82L64.8852 631.845C64.3496 630.766 63.9518 629.855 63.6918 629.112C65.0187 628.344 66.0103 627.742 66.6666 627.307L67.3447 626.916L69.7057 625.962C70.0117 625.846 70.7333 625.506 71.8704 624.942L83.6836 648.624L81.781 649.623C81.023 649.999 80.1776 650.383 79.2448 650.773L78.2609 651.207L76.0959 652.337C76.0085 652.38 75.7389 652.459 75.2873 652.575Z" fill="black"/>
<path d="M4.81837 615.474C4.77365 615.318 4.43824 614.262 3.81215 612.308L3.42977 610.793L2.63147 607.821C3.59727 607.41 4.31491 607.137 4.7844 607.003C4.94089 606.958 5.4305 606.835 6.25322 606.634C6.70036 606.54 8.3838 606.093 11.3036 605.292L18.4197 603.36L22.8664 602.039L54.6507 593.311L57.3267 592.547C58.2657 592.278 58.876 591.867 59.1577 591.312C59.4394 590.758 59.4483 589.486 59.1843 587.496C59.0636 586.718 58.8846 585.144 58.6475 582.774C58.9426 582.622 59.231 582.506 59.5127 582.426C59.857 582.327 60.6171 582.144 61.7931 581.875L62.37 583.894C62.7636 585.271 63.2734 587.292 63.8995 589.957C64.2618 591.58 64.5279 592.689 64.6978 593.284C64.9125 594.035 65.7823 596.783 67.3073 601.527C67.4907 602.05 67.6315 602.484 67.7299 602.828L67.9714 603.673L68.2666 605.061L68.7228 606.302L69.2997 608.676C69.3891 608.989 69.6194 609.618 69.9906 610.561C69.3199 610.82 68.7968 611.004 68.4212 611.111C68.0769 611.21 67.5515 611.326 66.845 611.46C66.143 610.306 65.3828 608.949 64.5644 607.389C63.442 605.238 62.5901 603.975 62.0088 603.6C61.3873 603.202 60.7009 603.11 59.9498 603.325L56.7707 604.284L53.2428 605.089L46.12 607.175L44.3024 607.745C44.052 607.817 43.1041 608.054 41.4587 608.457C40.5957 608.635 39.8356 608.819 39.1783 609.007C38.7714 609.123 37.5172 609.532 35.4157 610.234L32.686 610.811C30.6873 611.518 29.5002 611.925 29.1246 612.032C28.6551 612.166 28.1811 612.285 27.7027 612.388L26.5021 612.629L23.3499 613.682L21.8542 613.957C21.188 614.114 20.3071 614.349 19.2117 614.662C18.1475 614.966 16.8531 615.353 15.3284 615.822C17.6223 617.57 20.0056 619.632 22.4784 622.006C22.7556 622.265 23.7998 623.49 25.6108 625.681C24.3946 627.112 23.4512 628.076 22.7806 628.572C20.111 625.746 18.1994 623.855 17.0457 622.898C15.1051 621.32 12.7754 619.683 10.0567 617.989C8.87176 617.278 7.12565 616.44 4.81837 615.474Z" fill="black"/>
</mask>
<g mask="url(#mask0_810_2137)">
<rect x="-21" y="-20.5" width="1024" height="1024" fill="url(#paint1_linear_810_2137)"/>
</g>
<defs>
<linearGradient id="paint0_linear_810_2137" x1="439.813" y1="264.392" x2="698.672" y2="389.035" gradientUnits="userSpaceOnUse">
<stop stop-color="#FFD495"/>
<stop offset="1" stop-color="#987748"/>
</linearGradient>
<linearGradient id="paint1_linear_810_2137" x1="491" y1="28.6867" x2="491" y2="957.326" gradientUnits="userSpaceOnUse">
<stop offset="0.315068" stop-color="#C4FBBF"/>
<stop offset="0.69863" stop-color="#1D2B22"/>
</linearGradient>
</defs>
</svg>
